<?xml version="1.0" standalone="no"?>
<!DOCTYPE svg PUBLIC "-//W3C//DTD SVG 1.1//EN" "http://www.w3.org/Graphics/SVG/1.1/DTD/svg11.dtd" >
<svg xmlns:xlink="http://www.w3.org/1999/xlink" xmlns="http://www.w3.org/2000/svg" version="1.1">
    <metadata>
        Created by FontForge 20170731 at Sun Nov 29 19:03:35 2015
        By Aleksey,,,
        Copyright (c) 2012 by Fontfabric LLC. All rights reserved.
    </metadata>
    <defs>
        <font id="Nexa-ThinItalic" horiz-adv-x="600">
            <font-face
                    font-family="Nexa Thin Italic"
                    font-weight="250"
                    font-style="italic"
                    font-stretch="normal"
                    units-per-em="1000"
                    panose-1="2 0 5 0 0 0 0 0 0 0"
                    ascent="750"
                    descent="-250"
                    x-height="494"
                    cap-height="700"
                    bbox="-182 -294 1106 952"
                    underline-thickness="50"
                    underline-position="-175"
                    unicode-range="U+000D-FB02"
            />
            <missing-glyph horiz-adv-x="648"
                           d="M37 0l123 700h538l-123 -700h-538zM198 461h22q14 74 67.5 103.5t122.5 29.5q125 0 150 -75q10 -31 4 -64.5t-25 -57.5q-6 -7 -12.5 -13t-16 -11.5t-15 -9t-19 -9t-17 -7t-20 -7t-18.5 -6.5q-64 -22 -84.5 -55.5t-36.5 -111.5h21q14 69 33 99t72 50q4 1 26.5 8.5t31.5 11
t26 11.5t29 18.5t21 23.5q43 62 21 134q-14 48 -63 69.5t-103 21.5q-82 0 -142.5 -35.5t-74.5 -117.5zM278 88q0 -18 18 -18q10 0 17.5 6.5t7.5 17.5q0 18 -17 18q-10 0 -18 -6.5t-8 -17.5z"/>
            <glyph glyph-name=".notdef" horiz-adv-x="648"
                   d="M37 0l123 700h538l-123 -700h-538zM198 461h22q14 74 67.5 103.5t122.5 29.5q125 0 150 -75q10 -31 4 -64.5t-25 -57.5q-6 -7 -12.5 -13t-16 -11.5t-15 -9t-19 -9t-17 -7t-20 -7t-18.5 -6.5q-64 -22 -84.5 -55.5t-36.5 -111.5h21q14 69 33 99t72 50q4 1 26.5 8.5t31.5 11
t26 11.5t29 18.5t21 23.5q43 62 21 134q-14 48 -63 69.5t-103 21.5q-82 0 -142.5 -35.5t-74.5 -117.5zM278 88q0 -18 18 -18q10 0 17.5 6.5t7.5 17.5q0 18 -17 18q-10 0 -18 -6.5t-8 -17.5z"/>
            <glyph glyph-name=".null" horiz-adv-x="0"
            />
            <glyph glyph-name="nonmarkingreturn" horiz-adv-x="333"
            />
            <glyph glyph-name="CR" unicode="&#xd;" horiz-adv-x="352"
            />
            <glyph glyph-name="space" unicode=" " horiz-adv-x="273"
            />
            <glyph glyph-name="exclam" unicode="!" horiz-adv-x="226"
                   d="M168 700h31l-100 -569h-31zM37 21q0 14 9.5 22.5t22.5 8.5q24 0 24 -22q0 -14 -10 -22.5t-24 -8.5q-22 0 -22 22z"/>
            <glyph glyph-name="quotedbl" unicode="&#x22;" horiz-adv-x="314"
                   d="M150 705h28l-45 -253h-28zM280 705h27l-45 -253h-27z"/>
            <glyph glyph-name="numbersign" unicode="#" horiz-adv-x="617"
                   d="M323 700h24l-73 -172h224l74 172h24l-74 -172h96l-3 -19h-100l-132 -308h99l-4 -21h-104l-76 -180h-24l76 180h-224l-76 -180h-24l76 180h-82l4 21h85l133 308h-85l3 19h90zM488 507h-220l-132 -304h221z"/>
            <glyph glyph-name="dollar" unicode="$" horiz-adv-x="650"
                   d="M629 604l-25 -19q-51 91 -217 91q-34 0 -69.5 -6t-79 -22t-72.5 -51.5t-32 -85.5q-2 -27 10 -48t25.5 -33t46.5 -24t48.5 -15.5t57.5 -12.5q15 -3 23 -5q126 -28 171 -53q83 -46 66 -143q-10 -54 -41.5 -92.5t-76.5 -57.5t-87.5 -27t-88.5 -9l-15 -88h-28l15 89
q-80 3 -147.5 39t-92.5 103l31 16q22 -63 89.5 -95.5t142.5 -32.5q39 0 76 6t79.5 21.5t73 49t38.5 81.5q7 40 -4.5 67.5t-46.5 45.5t-61 25.5t-80 19.5l-27 6q-5 1 -27 5.5t-30.5 6.5t-30 8t-32 10t-28.5 12t-27 15.5t-21.5 19t-18.5 23.5t-10 28t-4 34q1 54 30 95t74 62.5
t90 32t90 11.5l15 84h29l-15 -85q153 -8 214 -102z"/>
            <glyph glyph-name="percent" unicode="%" horiz-adv-x="719"
                   d="M64 0l566 702h34l-566 -702h-34zM528 289q72 0 105 -44.5t21 -105.5q-13 -62 -59.5 -103t-118.5 -41q-62 0 -94.5 35.5t-32.5 86.5q0 65 49.5 118.5t129.5 53.5zM526 263q-66 0 -106.5 -44.5t-40.5 -97.5q0 -43 24 -70.5t79 -27.5q56 0 94.5 34t48.5 82q10 52 -13 88
t-86 36zM262 708q72 0 105 -44.5t21 -105.5q-13 -62 -59.5 -103t-118.5 -41q-62 0 -94.5 35.5t-32.5 86.5q0 65 49.5 118.5t129.5 53.5zM260 682q-66 0 -106.5 -44.5t-40.5 -97.5q0 -98 102 -98q56 0 95 34.5t49 81.5q10 52 -13 88t-86 36z"/>
            <glyph glyph-name="ampersand" unicode="&#x26;" horiz-adv-x="675"
                   d="M583 547h-27q5 38 -9 64.5t-42.5 40t-60 19t-70.5 5.5q-113 0 -171.5 -48t-58.5 -125q0 -70 56.5 -102t136.5 -32h290l-5 -24h-65l-29 -167q-6 -43 -8.5 -80t15.5 -59.5t57 -17.5l-4 -22q-46 -7 -71 20t-21 77q-44 -55 -106.5 -80t-123.5 -25q-112 0 -168 43.5t-56 116.5
q0 82 64.5 139t140.5 69q-60 10 -96.5 47t-36.5 95q0 85 66 143t199 58q41 0 76 -7t68 -22.5t49.5 -48t10.5 -77.5zM501 178l29 167h-200q-115 0 -186 -57.5t-71 -133.5q0 -62 48.5 -98t148.5 -36q49 0 95 14t86 51.5t50 92.5z"/>
            <glyph glyph-name="quotesingle" unicode="'" horiz-adv-x="184"
                   d="M150 705h27l-45 -253h-27z"/>
            <glyph glyph-name="parenleft" unicode="(" horiz-adv-x="309"
                   d="M345 732l14 -22q-98 -53 -169.5 -150t-99.5 -216q-18 -85 -15.5 -167.5t37 -162.5t97.5 -136l-19 -24q-98 90 -130.5 217t-1.5 263q58 264 287 398z"/>
            <glyph glyph-name="parenright" unicode=")" horiz-adv-x="310"
                   d="M98 714l16 21q73 -53 111.5 -147t38.5 -202q0 -170 -80.5 -309t-225.5 -223l-11 24q285 179 285 510q0 105 -34 190.5t-100 135.5z"/>
            <glyph glyph-name="asterisk" unicode="*" horiz-adv-x="330"
                   d="M273 529l-23 -14l-38 72l-67 -73l-17 14l67 69l-71 23l10 21l73 -24l15 80h22l-15 -80l89 23l2 -20l-86 -23z"/>
            <glyph glyph-name="plus" unicode="+" horiz-adv-x="498"
                   d="M59 329l4 26h182l32 180h29l-32 -180h181l-4 -26h-181l-32 -184h-29l32 184h-182z"/>
            <glyph glyph-name="comma" unicode="," horiz-adv-x="195"
                   d="M-1 -81l40 76q-14 3 -14 19q0 26 25 32q22 5 29 -12l2 -10q0 -5 -13 -31l-40 -74h-29z"/>
            <glyph glyph-name="hyphen" unicode="-" horiz-adv-x="496"
                   d="M71 274l5 29h345l-5 -29h-345z"/>
            <glyph glyph-name="period" unicode="." horiz-adv-x="202"
                   d="M29 19q0 15 10 23.5t23 8.5q9 0 16 -6t7 -16q0 -33 -34 -33q-22 0 -22 23z"/>
            <glyph glyph-name="slash" unicode="/" horiz-adv-x="486"
                   d="M-30 -82l531 839h31l-532 -839h-30z"/>
            <glyph glyph-name="zero" unicode="0" horiz-adv-x="678"
                   d="M67 260l32 181q24 128 109.5 196.5t198.5 68.5q115 0 181.5 -69.5t42.5 -195.5l-32 -181q-23 -128 -108.5 -197t-202.5 -69q-50 0 -94 17t-77 49t-47.5 84t-2.5 116zM132 441l-32 -181q-20 -112 37 -173.5t157 -61.5q98 0 175 62t97 173l32 181q22 114 -35 174t-163 60
q-92 0 -169 -60.5t-99 -173.5z"/>
            <glyph glyph-name="one" unicode="1" horiz-adv-x="380"
                   d="M-5 0l4 30h140l115 635l-140 -31l5 29l174 37l-119 -670h142l-4 -30h-317z"/>
            <glyph glyph-name="two" unicode="2" horiz-adv-x="670"
                   d="M76 152l-22 -120h513l-6 -32h-544l26 152q32 191 303 191q45 0 88.5 9.5t85.5 30.5t68.5 60t27.5 91q1 42 -17.5 72t-51 45.5t-67.5 22t-76 6.5q-40 0 -79 -7.5t-78.5 -25t-67.5 -51t-36 -78.5h-31q8 52 38 90.5t73.5 59.5t89.5 31t96 10q51 0 95 -11t79.5 -33.5
t52.5 -63t8 -93.5q-10 -64 -55.5 -109.5t-108.5 -66t-137 -20.5q-49 0 -87.5 -6.5t-78.5 -22t-66 -49t-35 -82.5z"/>
            <glyph glyph-name="three" unicode="3" horiz-adv-x="658"
                   d="M142 535h-29q34 175 285 175q112 0 168.5 -43.5t58.5 -113.5q1 -73 -55.5 -128t-137.5 -68q58 -10 101 -52.5t43 -100.5q0 -89 -78.5 -151t-224.5 -62q-38 0 -72.5 4.5t-68.5 17.5t-57 32.5t-34 52t-4 73.5h28q-6 -37 5 -65t32 -43.5t53 -25t61 -12.5t62 -3q131 0 199 51
t68 127q0 57 -54 102t-151 45h-117l5 27h115q120 0 186.5 53.5t66.5 121.5q0 59 -50.5 95.5t-150.5 36.5q-224 0 -253 -146z"/>
            <glyph glyph-name="four" unicode="4" horiz-adv-x="636"
                   d="M417 0l29 165h-437l2 32l531 503h30l-89 -506h93l-5 -29h-93l-29 -165h-32zM49 194h402l82 458z"/>
            <glyph glyph-name="five" unicode="5" horiz-adv-x="638"
                   d="M133 423h218q124 0 185 -63.5t35 -172.5q-47 -192 -301 -192q-34 0 -66.5 5t-65.5 19t-55.5 35t-33.5 56t-4 79h29q-7 -39 3 -68.5t30 -47.5t50 -29.5t59 -15.5t61 -4q117 0 182 46t83 124q23 92 -28 146.5t-168 54.5h-246l53 305h445l-5 -27h-414z"/>
            <glyph glyph-name="six" unicode="6" horiz-adv-x="685"
                   d="M162 525l-46 -228q47 61 118.5 90.5t146.5 29.5q97 0 165.5 -46t68.5 -135q-1 -65 -29.5 -114t-75.5 -76t-99.5 -40t-109.5 -13q-112 0 -182.5 52.5t-49.5 161.5l60 317q18 91 102 138t192 47q107 0 173 -44.5t59 -124.5h-32q6 67 -51 103t-154 36q-95 -1 -167.5 -39.5
t-88.5 -114.5zM306 25q47 0 91 10t86 32t68.5 64.5t28.5 99.5q1 55 -32 91.5t-77.5 49.5t-96.5 13q-55 0 -110.5 -18t-102 -60.5t-58.5 -100.5q-19 -95 41.5 -138t161.5 -43z"/>
            <glyph glyph-name="seven" unicode="7" horiz-adv-x="550"
                   d="M56 0l506 672h-469l5 28h509v-16l-513 -684h-38z"/>
            <glyph glyph-name="eight" unicode="8" horiz-adv-x="699"
                   d="M43 181q13 74 78.5 122t143.5 63q-63 14 -107 49.5t-44 90.5q0 59 30.5 102t79.5 65.5t99 32.5t101 10q33 0 66 -5t66 -16.5t57.5 -29.5t40 -46.5t15.5 -63.5q-1 -80 -61.5 -127t-152.5 -66q75 -15 124 -66.5t36 -118.5q-10 -53 -43.5 -92t-81 -60t-96.5 -30.5t-99 -9.5
q-39 0 -76 6t-72.5 21t-60.5 36.5t-37.5 56t-5.5 76.5zM365 378q40 0 84 9t87.5 28t71.5 54t28 80q1 39 -20.5 67.5t-57.5 43t-70.5 20.5t-68.5 6q-39 0 -80.5 -7.5t-88 -25t-75.5 -54.5t-29 -88q0 -37 22.5 -64.5t58 -41.5t70.5 -20.5t68 -6.5zM359 351q-40 0 -85.5 -10.5
t-91.5 -31.5t-77 -61.5t-32 -93.5q-1 -41 22 -70t61 -43t74 -20t71 -6q33 0 73 7.5t85.5 24.5t79.5 51t43 80q8 45 -13.5 81t-60 54.5t-77 28t-72.5 9.5z"/>
            <glyph glyph-name="nine" unicode="9" horiz-adv-x="685"
                   d="M539 177l48 219q-51 -56 -123 -83.5t-144 -27.5q-46 0 -86.5 10.5t-74 32t-52 57t-16.5 81.5q3 65 32.5 114t77 76t100.5 40t110 13q51 0 95 -11.5t79 -35.5t50 -67t3 -100l-67 -317q-19 -92 -105.5 -138.5t-195.5 -46.5q-107 0 -170.5 44.5t-53.5 124.5h34
q-10 -66 44 -102.5t152 -36.5q94 1 171 40t92 114zM403 678q-47 0 -92 -10t-88 -32.5t-70.5 -65t-29.5 -99.5q-2 -80 56.5 -118t147.5 -38q55 0 112 18.5t106 61.5t62 101q20 93 -38.5 137.5t-165.5 44.5z"/>
            <glyph glyph-name="colon" unicode=":" horiz-adv-x="216"
                   d="M82 319q0 17 11.5 26.5t26.5 9.5q26 0 26 -25q0 -18 -11 -27.5t-26 -9.5q-27 0 -27 26zM29 22q0 17 10.5 26.5t25.5 9.5q11 0 19.5 -7t8.5 -19q0 -17 -11 -26.5t-26 -9.5q-27 0 -27 26z"/>
            <glyph glyph-name="semicolon" unicode=";" horiz-adv-x="235"
                   d="M98 319q0 17 11.5 26.5t26.5 9.5q26 0 26 -25q0 -18 -11 -27.5t-26 -9.5q-27 0 -27 26zM14 -81l40 76q-14 3 -14 19q0 26 25 32q22 5 29 -12l2 -10q0 -5 -13 -31l-40 -74h-29z"/>
            <glyph glyph-name="less" unicode="&#x3c;" horiz-adv-x="347"
                   d="M62 327l240 189l16 -21l-228 -178l165 -177l-22 -20l-174 189z"/>
            <glyph glyph-name="equal" unicode="=" horiz-adv-x="519"
                   d="M98 401l6 29h357l-6 -29h-357zM64 207l6 30h357l-6 -30h-357z"/>
            <glyph glyph-name="greater" unicode="&#x3e;" horiz-adv-x="347"
                   d="M123 516l174 -189l-3 -18l-241 -189l-18 23l229 178l-162 174z"/>
            <glyph glyph-name="question" unicode="?" horiz-adv-x="588"
                   d="M104 512h-29q18 107 98 154.5t186 47.5q44 0 86 -10t81 -38t52 -71q14 -42 6.5 -90.5t-34.5 -86.5q-12 -17 -28 -30.5t-37 -24t-35 -16t-41 -14.5t-35 -12q-70 -25 -94.5 -64.5t-42.5 -130.5h-28q8 43 14 65.5t17 50.5t26.5 44t40.5 32t61 28q92 31 123 53q19 13 32 29
q26 32 33.5 76.5t-6.5 84.5q-31 98 -196 98q-41 0 -77.5 -7.5t-73.5 -25.5t-63.5 -54.5t-35.5 -87.5zM180 21q0 15 10.5 24t22.5 9q24 0 24 -23q0 -15 -10.5 -23.5t-23.5 -8.5q-23 0 -23 22z"/>
            <glyph glyph-name="at" unicode="@" horiz-adv-x="890"
                   d="M511 677q-123 0 -220 -57.5t-149 -151.5t-52 -206q0 -131 75.5 -208t224.5 -77q101 0 169 44l11 -26q-86 -49 -185 -49q-159 0 -243 88.5t-84 225.5q0 85 32.5 165t90.5 143t145.5 101t190.5 38q172 0 262.5 -107t65.5 -286q-13 -95 -50 -160t-100 -65q-32 -1 -48.5 21.5
t-9.5 71.5q-40 -54 -105.5 -87t-134.5 -33q-103 0 -156 60.5t-53 155.5q0 125 88 206t209 81q66 0 119.5 -36t72.5 -97l20 112h30l-64 -361q-7 -36 4 -51t30 -15q47 0 76 55.5t41 137.5q25 168 -52.5 267.5t-250.5 99.5zM479 535q-103 0 -181.5 -70t-78.5 -182
q0 -190 184 -190q117 0 188.5 78.5t71.5 175.5q0 78 -47 133t-137 55z"/>
            <glyph glyph-name="A" unicode="A" horiz-adv-x="732"
                   d="M-16 0l437 700h38l191 -700h-32l-51 182h-435l-112 -182h-36zM150 213h409l-123 458z"/>
            <glyph glyph-name="B" unicode="B" horiz-adv-x="691"
                   d="M52 0l123 700h276q88 0 143.5 -39.5t55.5 -118.5q0 -76 -43 -124t-115 -64q67 -19 98.5 -65t23.5 -111q-6 -51 -34.5 -87.5t-71 -55t-86.5 -27t-94 -8.5h-276zM202 669l-52 -297h253q30 0 58 4t57.5 15.5t50.5 29.5t34.5 48.5t13.5 69.5q0 130 -171 130h-244zM144 341
l-55 -310h244q222 0 247 144q10 57 -15.5 96t-69 54.5t-98.5 15.5h-253z"/>
            <glyph glyph-name="C" unicode="C" horiz-adv-x="715"
                   d="M612 119l20 -22q-120 -104 -271 -104q-111 0 -184.5 49t-100 128t-9.5 176q24 150 137.5 256t282.5 106q148 0 233 -104l-26 -20q-75 93 -212 93q-154 0 -256.5 -94.5t-126.5 -235.5q-23 -140 44.5 -231t223.5 -91q134 0 245 94z"/>
            <glyph glyph-name="D" unicode="D" horiz-adv-x="746"
                   d="M52 0l123 700h227q81 0 141.5 -25t96 -68t51 -97.5t12.5 -117.5q-10 -171 -128.5 -281.5t-295.5 -110.5h-227zM89 31h195q89 0 164 32.5t123 85.5t74.5 119.5t26.5 135.5q0 55 -14.5 101t-45.5 83.5t-86 59t-129 21.5h-195z"/>
            <glyph glyph-name="E" unicode="E" horiz-adv-x="650"
                   d="M89 31h456l-5 -31h-488l123 700h473l-5 -31h-441l-53 -300h420l-5 -31h-420z"/>
            <glyph glyph-name="F" unicode="F" horiz-adv-x="629"
                   d="M51 -1l124 701h463l-6 -31h-431l-54 -305h418l-5 -31h-418l-59 -334h-32z"/>
            <glyph glyph-name="G" unicode="G" horiz-adv-x="746"
                   d="M720 604l-25 -21q-76 94 -211 94q-165 0 -263 -93t-122 -233q-24 -139 46.5 -233t223.5 -94q62 0 130.5 25.5t115.5 67.5l37 210h-264l6 29h294l-45 -253q-127 -110 -279 -110q-170 0 -249 110.5t-43 278.5q33 151 146.5 238.5t271.5 87.5q144 0 230 -104z"/>
            <glyph glyph-name="H" unicode="H" horiz-adv-x="749"
                   d="M593 0h-32l58 327h-477l-58 -327h-32l123 700h32l-60 -342h477l60 342h32z"/>
            <glyph glyph-name="I" unicode="I" horiz-adv-x="240"
                   d="M84 0h-32l123 700h32z"/>
            <glyph glyph-name="J" unicode="J" horiz-adv-x="661"
                   d="M317 669l5 31h315l-78 -445q-22 -123 -112.5 -194t-207.5 -71q-115 0 -176 75.5t-41 191.5h29q-18 -103 35 -169.5t159 -66.5q103 0 183 61.5t99 172.5l73 414h-283z"/>
            <glyph glyph-name="K" unicode="K" horiz-adv-x="567"
                   d="M82 1h-32l123 699h32l-57 -325l415 325h40l-1 -5l-424 -332l335 -360v-3h-44l-325 354z"/>
            <glyph glyph-name="L" unicode="L" horiz-adv-x="550"
                   d="M175 700h32l-118 -669h405l-5 -31h-437z"/>
            <glyph glyph-name="M" unicode="M" horiz-adv-x="851"
                   d="M663 0l116 659l-361 -442h-10l-208 439l-116 -656h-32l123 700h40l204 -436l354 436h45l-123 -700h-32z"/>
            <glyph glyph-name="N" unicode="N" horiz-adv-x="740"
                   d="M52 0l123 700h3l391 -618l26 164l80 454h32l-123 -700l-394 622l-26 -168l-80 -454h-32z"/>
            <glyph glyph-name="O" unicode="O" horiz-adv-x="818"
                   d="M482 709q85 0 149 -30t96.5 -80t45.5 -115t-2 -134q-13 -71 -46.5 -134.5t-85.5 -114.5t-125.5 -81t-157.5 -30q-143 0 -218.5 87t-75.5 215q0 73 27 145t77 134t132.5 100t183.5 38zM739 350q16 90 -5 162.5t-87.5 119t-170.5 46.5q-87 0 -161 -33.5t-121 -88
t-73 -121.5t-26 -136q0 -75 26 -136t88 -101.5t152 -40.5q149 0 252.5 97.5t125.5 231.5z"/>
            <glyph glyph-name="P" unicode="P" horiz-adv-x="665"
                   d="M397 251h-269l-44 -251h-32l123 700h301q123 0 168 -92q39 -80 2 -180q-37 -102 -128 -149q-56 -28 -121 -28zM134 282h269q112 0 179 91q56 77 46 163q-10 89 -85 120q-32 13 -72 13h-269z"/>
            <glyph glyph-name="Q" unicode="Q" horiz-adv-x="818"
                   d="M695 -2l-78 84q-111 -88 -259 -88q-114 0 -187 50.5t-97 131.5t-5 181q28 148 140.5 249t274.5 101q110 0 182.5 -50.5t98 -131t7.5 -177.5q-25 -141 -130 -243l77 -86zM479 676q-137 0 -245 -90t-133 -229q-26 -145 39.5 -238.5t223.5 -93.5q150 0 250 93t126 229
q26 142 -40 235.5t-221 93.5z"/>
            <glyph glyph-name="R" unicode="R" horiz-adv-x="693"
                   d="M551 0l-204 277h-215l-48 -277h-32l123 700h302q91 0 139.5 -53t48.5 -128q0 -104 -68.5 -172.5t-209.5 -69.5l207 -277h-43zM138 307h253q117 0 179.5 58t62.5 150q0 68 -41.5 111.5t-119.5 43.5h-270z"/>
            <glyph glyph-name="S" unicode="S" horiz-adv-x="652"
                   d="M630 604l-25 -19q-51 91 -217 91q-34 0 -69.5 -6t-79 -22t-72.5 -51.5t-32 -85.5q-2 -27 10 -48t25.5 -33t46.5 -24t48.5 -15.5t57.5 -12.5q15 -3 23 -5q126 -28 171 -53q83 -46 66 -143q-10 -56 -43 -95t-80.5 -57.5t-90.5 -26t-90 -7.5q-85 0 -158.5 36t-99.5 107
l31 16q22 -63 89.5 -95.5t142.5 -32.5q39 0 76 6t79.5 21.5t73 49t38.5 81.5q7 40 -4.5 67.5t-46.5 45.5t-61 25.5t-80 19.5l-27 6q-5 1 -27 5.5t-30.5 6.5t-30 8t-32 10t-28.5 12t-27 15.5t-21.5 19t-18.5 23.5t-10 28t-4 34q1 55 31 96.5t76 63t92 31.5t91 10
q171 0 237 -103z"/>
            <glyph glyph-name="T" unicode="T" horiz-adv-x="583"
                   d="M78 669l5 31h557l-5 -31h-263l-118 -669h-32l118 669h-262z"/>
            <glyph glyph-name="U" unicode="U" horiz-adv-x="707"
                   d="M651 700h32l-78 -443q-23 -129 -111 -197t-195 -68q-51 0 -93.5 16.5t-73 48t-43 83.5t-0.5 117l78 443h32l-78 -443q-21 -116 32 -175.5t147 -59.5q95 0 174 60t99 175z"/>
            <glyph glyph-name="V" unicode="V" horiz-adv-x="687"
                   d="M269 -2l-164 702h35l152 -667l390 667h36l-411 -702h-38z"/>
            <glyph glyph-name="W" unicode="W" horiz-adv-x="1080"
                   d="M237 -2l-127 702h34l114 -662l339 662h20l113 -653l341 653h35l-370 -702h-26l-114 636l-329 -636h-30z"/>
            <glyph glyph-name="X" unicode="X" horiz-adv-x="584"
                   d="M311 384l275 316h37l-299 -342l195 -358h-36l-181 340l-302 -340h-40l328 366l-180 334h35z"/>
            <glyph glyph-name="Y" unicode="Y" horiz-adv-x="650"
                   d="M254 0l49 278l-201 422h37l183 -394l322 394h39l-348 -422l-49 -278h-32z"/>
            <glyph glyph-name="Z" unicode="Z" horiz-adv-x="577"
                   d="M121 672l5 28h490l-1 -8l-594 -663h477l-5 -29h-527l1 10l593 662h-439z"/>
            <glyph glyph-name="bracketleft" unicode="[" horiz-adv-x="293"
                   d="M15 -164l155 880h166l-5 -28h-133l-145 -822h134l-6 -30h-166z"/>
            <glyph glyph-name="backslash" unicode="\" horiz-adv-x="468"
                   d="M375 -82h-31l-236 839h32z"/>
            <glyph glyph-name="bracketright" unicode="]" horiz-adv-x="290"
                   d="M269 717l-155 -880h-163l5 29h132l145 822h-132l5 29h163z"/>
            <glyph glyph-name="asciicircum" unicode="^" horiz-adv-x="554"
                   d="M107 393h-32l-2 2l270 305h15l164 -305l-2 -2h-31l-143 273z"/>
            <glyph glyph-name="underscore" unicode="_" horiz-adv-x="619"
                   d="M13 -63l5 30h467l-5 -30h-467z"/>
            <glyph glyph-name="grave" unicode="`" horiz-adv-x="233"
                   d="M256 582h-28l-64 120h37l56 -117z"/>
            <glyph glyph-name="a" unicode="a" horiz-adv-x="632"
                   d="M495 0h-30l11 63l17 63q-36 -67 -103.5 -100t-139.5 -32q-92 0 -151 57t-59 153q0 133 88.5 214.5t208.5 81.5q72 0 130.5 -41t64.5 -107l10 82l10 60h30zM331 471q-107 0 -184 -71t-77 -191q0 -87 50.5 -136.5t135.5 -49.5q123 0 191 80.5t68 186.5q0 80 -47 130.5
t-137 50.5z"/>
            <glyph glyph-name="b" unicode="b" horiz-adv-x="630"
                   d="M62 0h-30l124 701h30l-47 -267l-19 -75q32 69 101.5 105t144.5 36q92 0 150 -58.5t58 -153.5q0 -129 -89.5 -211.5t-209.5 -82.5q-69 -1 -121 33t-71 105l-10 -69zM362 472q-119 0 -190.5 -78.5t-71.5 -186.5q0 -80 44.5 -132t134.5 -52q108 0 186.5 72t78.5 191
q0 86 -49 136t-133 50z"/>
            <glyph glyph-name="c" unicode="c" horiz-adv-x="529"
                   d="M427 89l16 -20q-85 -73 -190 -73q-99 0 -156 57.5t-57 153.5q0 127 87.5 209t214.5 82q104 0 167 -74l-22 -19q-49 64 -151 64q-108 0 -187 -70.5t-79 -189.5q0 -88 49.5 -136t138.5 -48q95 0 169 64z"/>
            <glyph glyph-name="d" unicode="d" horiz-adv-x="630"
                   d="M494 0h-30l11 63l16 60q-37 -66 -103.5 -98t-138.5 -31q-92 0 -151 57t-59 153q0 129 89 212.5t208 83.5q72 0 127 -36.5t68 -109.5l10 80l46 265h30zM330 471q-106 0 -183.5 -73t-77.5 -189q0 -87 50.5 -136.5t135.5 -49.5q123 0 191 80.5t68 186.5q0 78 -47 129.5
t-137 51.5z"/>
            <glyph glyph-name="e" unicode="e" horiz-adv-x="587"
                   d="M457 110l20 -17q-43 -47 -105.5 -72t-125.5 -25q-90 0 -148.5 55.5t-58.5 151.5q0 127 87.5 212t207.5 85q52 0 94.5 -15t74 -47.5t39.5 -83t-10 -122.5h-462q-10 -102 42.5 -155t138.5 -53q54 0 112 23.5t94 62.5zM73 260h438q21 102 -26.5 156.5t-156.5 54.5
q-92 0 -161 -54t-94 -157z"/>
            <glyph glyph-name="f" unicode="f" horiz-adv-x="335"
                   d="M109 0h-30l82 465h-103l5 28h103l9 53q13 74 50 115t113 41q56 0 88 -32l-20 -20q-28 24 -74 24q-53 0 -84 -28.5t-43 -99.5l-9 -53h168l-5 -28h-168z"/>
            <glyph glyph-name="g" unicode="g" horiz-adv-x="631"
                   d="M492 -16q-20 -118 -98 -177.5t-184 -59.5q-100 0 -154 47t-46 123h29q-7 -68 41.5 -105t134.5 -37q56 0 105.5 19.5t89.5 68t52 119.5l14 81l15 59q-35 -67 -102 -97.5t-139 -29.5q-96 0 -153.5 56.5t-57.5 153.5q0 129 89 212t209 83q71 0 125 -36t69 -101l10 71l11 60
h30zM330 471q-106 0 -183 -73t-77 -189q0 -88 48.5 -136t137.5 -48q84 0 144.5 40.5t87 99t26.5 125.5q0 78 -47 129.5t-137 51.5z"/>
            <glyph glyph-name="h" unicode="h" horiz-adv-x="586"
                   d="M120 494l36 206h30l-36 -206l-26 -120q40 66 99 95.5t122 30.5q197 0 161 -209l-51 -291h-30l51 290q17 94 -15 137t-121 45q-78 2 -145.5 -53t-81.5 -138l-50 -281h-30z"/>
            <glyph glyph-name="i" unicode="i" horiz-adv-x="200"
                   d="M139 659q0 14 9.5 22t21.5 8q9 0 16 -6t7 -16q0 -14 -10 -22t-22 -8q-22 0 -22 22zM150 494h-30l-87 -494h30z"/>
            <glyph glyph-name="j" unicode="j" horiz-adv-x="199"
                   d="M150 495h-30l-102 -576q-6 -35 -10.5 -51.5t-15.5 -39.5t-31 -32.5t-50 -9.5q-42 0 -75 23l-14 -25q47 -27 82 -27q40 0 67 12.5t42 37.5t22 49.5t13 62.5zM138 660q0 14 9.5 21.5t21.5 7.5q9 0 16 -6t7 -16q0 -14 -10 -22t-22 -8q-9 0 -15.5 6.5t-6.5 16.5z"/>
            <glyph glyph-name="k" unicode="k" horiz-adv-x="447"
                   d="M156 700h30l-75 -426l288 220h46v-1l-310 -234l252 -257v-2h-39l-241 247l-44 -247h-30z"/>
            <glyph glyph-name="l" unicode="l" horiz-adv-x="215"
                   d="M164 700h30l-123 -700h-30z"/>
            <glyph glyph-name="m" unicode="m" horiz-adv-x="945"
                   d="M33 0l87 494h30l-18 -95q30 52 80.5 77.5t106.5 25.5q66 0 114 -31.5t55 -98.5q32 65 89.5 98t121.5 33q92 0 138.5 -56t30.5 -144l-53 -303h-30l53 303q13 81 -24.5 126t-118.5 45q-76 0 -133.5 -48.5t-70.5 -125.5l-53 -300h-30l53 300q13 81 -27.5 127t-120.5 46
q-74 -2 -129 -49.5t-68 -123.5l-53 -300h-30z"/>
            <glyph glyph-name="n" unicode="n"
                   d="M33 0l87 494h29l-21 -112q39 61 98.5 90.5t119.5 30.5q101 0 146.5 -56t28.5 -156l-51 -291h-30l51 290q16 91 -23 138t-127 46q-81 -1 -147.5 -56.5t-80.5 -136.5l-50 -281h-30z"/>
            <glyph glyph-name="o" unicode="o" horiz-adv-x="605"
                   d="M39 203q0 133 89.5 216t209.5 83q91 0 151 -58.5t60 -154.5q0 -133 -90 -214t-210 -81q-91 0 -150.5 56t-59.5 153zM519 285q0 86 -51.5 137t-134.5 51q-104 0 -184 -74t-80 -191q0 -86 50.5 -135.5t134.5 -49.5q106 0 185.5 72.5t79.5 189.5z"/>
            <glyph glyph-name="p" unicode="p" horiz-adv-x="631"
                   d="M120 494h30l-11 -63l-17 -66q37 71 103 103.5t140 31.5q92 0 151 -57t59 -153q0 -127 -89.5 -211.5t-207.5 -84.5q-74 0 -127.5 36t-66.5 109l-11 -79l-53 -302h-30zM284 23q106 0 183.5 73.5t77.5 190.5q0 86 -52 135t-134 49q-123 0 -191 -80.5t-68 -186.5
q0 -78 47 -129.5t137 -51.5z"/>
            <glyph glyph-name="q" unicode="q" horiz-adv-x="630"
                   d="M551 494h30l-130 -736h-30l54 302l20 78q-32 -69 -103 -106.5t-145 -37.5q-91 0 -149.5 58.5t-58.5 153.5q0 129 89.5 211.5t209.5 82.5q69 1 123.5 -35.5t66.5 -104.5zM251 23q116 0 189 78.5t73 185.5q0 80 -44.5 132t-134.5 52q-108 0 -186.5 -72t-78.5 -191
q0 -85 50.5 -135t131.5 -50z"/>
            <glyph glyph-name="r" unicode="r" horiz-adv-x="391"
                   d="M120 494h29l-9 -54l-13 -62q27 56 81.5 88t116.5 32q52 0 92 -24l-17 -24q-32 20 -80 20q-73 -1 -132.5 -53.5t-71.5 -121.5l-52 -295h-31z"/>
            <glyph glyph-name="s" unicode="s" horiz-adv-x="502"
                   d="M461 436l-22 -21q-51 58 -155 58q-81 0 -132.5 -28.5t-51.5 -87.5q0 -17 8 -30.5t17.5 -21.5t28.5 -15t30.5 -9.5t35 -7t29.5 -5.5q4 -1 23 -5t25.5 -5t24 -5.5t24.5 -7.5t21.5 -9t21 -11.5t16 -14t13.5 -17.5t7.5 -20.5t3.5 -25.5q0 -74 -58 -113.5t-144 -39.5
q-156 0 -220 101l25 19q52 -90 189 -92q74 -1 126 30.5t52 92.5q0 10 -3 19t-6.5 16t-11.5 13.5t-14 11t-18 9t-19 7t-21.5 6t-21.5 4.5t-23.5 4.5t-22.5 4.5q-40 8 -63.5 14.5t-51 19.5t-40.5 33t-13 49q0 73 63 109t154 36q116 0 174 -65z"/>
            <glyph glyph-name="t" unicode="t" horiz-adv-x="368"
                   d="M200 643l30 3l-26 -152h176l-5 -26h-176l-57 -321q-6 -37 -7 -65t18.5 -44.5t64.5 -16.5q38 0 94 25l8 -25q-58 -28 -105 -28q-74 1 -95.5 38.5t-7.5 115.5l57 321h-108l5 26h108z"/>
            <glyph glyph-name="u" unicode="u"
                   d="M550 494l-87 -494h-30l21 112q-38 -61 -97.5 -90.5t-119.5 -30.5q-102 0 -147.5 56t-28.5 156l51 291h31l-51 -290q-17 -92 20.5 -138.5t129.5 -45.5q81 1 147.5 56.5t80.5 136.5l50 281h30z"/>
            <glyph glyph-name="v" unicode="v" horiz-adv-x="531"
                   d="M194 0l-119 494h33l108 -457l272 457h34l-294 -494h-34z"/>
            <glyph glyph-name="w" unicode="w" horiz-adv-x="811"
                   d="M166 0l-90 494h34l77 -454l243 454h17l79 -454l238 454h34l-263 -494h-32l-75 433l-230 -433h-32z"/>
            <glyph glyph-name="x" unicode="x" horiz-adv-x="461"
                   d="M-33 0v2l241 255l-139 236v1h35l123 -214l198 214h38v-1l-222 -238l150 -253v-2h-34l-134 232l-219 -232h-37z"/>
            <glyph glyph-name="y" unicode="y" horiz-adv-x="599"
                   d="M456 112q-38 -61 -98.5 -90.5t-120.5 -30.5q-102 0 -147.5 56t-28.5 156l51 291h30l-51 -290q-16 -91 22.5 -137.5t128.5 -46.5q81 0 147.5 56t80.5 137l50 281h30l-92 -521q-18 -109 -86.5 -167.5t-169.5 -58.5q-98 0 -144 45.5t-38 119.5h28q-6 -65 32.5 -100.5
t126.5 -35.5q84 0 144.5 50t77.5 147z"/>
            <glyph glyph-name="z" unicode="z" horiz-adv-x="450"
                   d="M73 466l5 28h367l-1 -10l-417 -457h345l-5 -27h-391l2 9l411 457h-316z"/>
            <glyph glyph-name="braceleft" unicode="{" horiz-adv-x="292"
                   d="M41 312q82 0 103 126l28 160q27 154 160 119l-4 -25q-50 13 -82 -6.5t-44 -87.5l-28 -160q-22 -128 -96 -140q22 -8 35 -22.5t15.5 -35.5t1.5 -38t-5 -41l-26 -152q-12 -68 13 -86t80 -5l-5 -25q-70 -17 -101 9.5t-17 106.5l26 152q23 125 -59 125z"/>
            <glyph glyph-name="bar" unicode="|" horiz-adv-x="222"
                   d="M168 702h30l-146 -828h-30z"/>
            <glyph glyph-name="braceright" unicode="}" horiz-adv-x="291"
                   d="M257 312l-5 -26q-80 0 -103 -125l-26 -152q-26 -151 -160 -116l4 25q51 -13 82 5t43 86l27 152q4 26 8.5 42.5t14.5 39t27.5 37t42.5 20.5q-40 18 -47.5 59t3.5 79l28 160q12 68 -13 87.5t-79 6.5l4 25q70 17 101 -10.5t17 -108.5l-28 -160q-21 -126 59 -126z"/>
            <glyph glyph-name="asciitilde" unicode="~" horiz-adv-x="613"
                   d="M518 348l23 -11q-33 -62 -80 -75t-114 17l-79 43q-50 28 -96 15.5t-72 -62.5l-23 9q27 60 82.5 79t125.5 -16l76 -40q24 -11 44 -15.5t40.5 -2t38.5 17t34 41.5z"/>
            <glyph glyph-name="exclamdown" unicode="&#xa1;" horiz-adv-x="207"
                   d="M32 -202h-31l100 569h31zM163 477q0 -14 -9.5 -22.5t-22.5 -8.5q-24 0 -24 22q0 14 10.5 22.5t24.5 8.5q21 0 21 -22z"/>
            <glyph glyph-name="cent" unicode="&#xa2;" horiz-adv-x="545"
                   d="M224 -84l13 71q-89 5 -144.5 58.5t-55.5 147.5q0 131 83.5 209.5t204.5 85.5l10 57h30l-10 -57q99 -9 149 -68l-24 -18q-49 57 -146 57q-111 0 -189 -69.5t-78 -194.5q0 -88 52.5 -134t136.5 -46q88 0 168 66l19 -21q-81 -67 -176 -72l-13 -72h-30z"/>
            <glyph glyph-name="sterling" unicode="&#xa3;" horiz-adv-x="633"
                   d="M6 0l4 25q66 54 100 110.5t40 95.5t2 88h-90l5 26h82q-6 56 -6 105q0 68 23.5 119t63.5 80t87 42.5t101 13.5q45 0 81 -8t65.5 -26t42 -53t3.5 -84h-26q8 43 -3.5 73t-39 44.5t-58 20.5t-70.5 6q-105 0 -173 -54.5t-68 -165.5q0 -30 5 -113h273l-5 -26h-266
q18 -175 -134 -292h484l-5 -27h-518z"/>
            <glyph glyph-name="currency" unicode="&#xa4;" horiz-adv-x="564"
                   d="M258 158q91 0 146.5 60.5t55.5 137.5q0 143 -142 143q-92 0 -147 -61t-55 -138q0 -142 142 -142zM129 169l-71 -60l-17 21l71 61q-27 38 -27 105q0 95 74 171l-49 57l25 21l49 -58q58 42 139 42q77 0 123 -44l71 60l17 -21l-70 -59q27 -40 27 -104q0 -96 -78 -172l52 -59
l-25 -21l-50 58q-55 -39 -137 -39q-81 0 -124 41z"/>
            <glyph glyph-name="yen" unicode="&#xa5;" horiz-adv-x="646"
                   d="M147 278l4 26h140l-188 396h37l182 -393l323 393h39l-327 -396h143l-4 -26h-160l-12 -67h160l-5 -27h-160l-32 -184h-32l32 184h-157l5 27h157l12 67h-157z"/>
            <glyph glyph-name="brokenbar" unicode="&#xa6;" horiz-adv-x="225"
                   d="M137 342h-32l64 363h32zM93 274h32l-64 -361h-32z"/>
            <glyph glyph-name="section" unicode="&#xa7;" horiz-adv-x="519"
                   d="M483 667l-15 -24q-46 46 -136 48q-71 1 -121.5 -25.5t-50.5 -83.5q0 -44 40 -67.5t95 -29.5q173 -17 173 -123q0 -58 -48.5 -91.5t-118.5 -37.5q56 -12 91 -40t36 -67q3 -71 -59.5 -107t-155.5 -36q-66 0 -118 25t-73 72l24 15q21 -43 68.5 -63.5t103.5 -20.5
q28 0 55.5 4.5t57.5 15.5t48.5 34t18.5 55q0 43 -45 67t-108 33q-156 19 -156 124q0 45 39 84.5t108 45.5q-47 9 -76.5 36t-29.5 69q0 68 58.5 103t147.5 35q93 0 147 -50zM440 361q0 48 -43 70.5t-100 22.5q-167 0 -180 -105q-6 -43 36.5 -70t105.5 -27q74 0 127.5 27
t53.5 82z"/>
            <glyph glyph-name="dieresis" unicode="&#xa8;" horiz-adv-x="441"
                   d="M192 679q0 15 10.5 24t23.5 9q10 0 16.5 -6t6.5 -17q0 -16 -10 -24.5t-23 -8.5q-10 0 -17 6t-7 17zM397 679q0 15 10.5 24t23.5 9q10 0 16.5 -6t6.5 -17q0 -16 -10 -24.5t-23 -8.5q-10 0 -17 6t-7 17z"/>
            <glyph glyph-name="copyright" unicode="&#xa9;" horiz-adv-x="841"
                   d="M494 712q145 0 224 -87.5t79 -218.5q0 -109 -52.5 -205t-153 -157.5t-226.5 -61.5q-145 0 -223.5 86t-78.5 218q0 109 52 205.5t152 158.5t227 62zM96 290q0 -121 72 -198.5t202 -77.5q172 0 282.5 114.5t110.5 275.5q0 121 -72 198.5t-203 77.5q-172 0 -282 -114.5
t-110 -275.5zM574 468l25 22q-44 56 -124 56q-98 0 -165.5 -65t-67.5 -162q0 -75 44 -120t120 -45q84 0 145 55l-19 24q-55 -47 -121 -47q-68 0 -102 37t-34 102q0 85 58 137.5t136 52.5q67 0 105 -47z"/>
            <glyph glyph-name="ordfeminine" unicode="&#xaa;" horiz-adv-x="502"
                   d="M419 377h-29l12 67q-60 -70 -146 -70q-59 0 -98 37t-39 101q0 87 58.5 140.5t137.5 53.5q39 0 72.5 -18.5t47.5 -52.5l12 66h29zM310 675q-65 0 -112.5 -44t-47.5 -115q0 -51 31.5 -81t80.5 -30q85 0 131 71q41 62 24 124q-17 65 -87 74q-10 1 -20 1zM87 275l6 32h329
l-6 -32h-329z"/>
            <glyph glyph-name="guillemotleft" unicode="&#xab;" horiz-adv-x="368"
                   d="M55 297l177 219h33l-173 -219l95 -220h-33zM240 77l-99 220l177 219h32l-173 -219l95 -220h-32z"/>
            <glyph glyph-name="logicalnot" unicode="&#xac;" horiz-adv-x="496"
                   d="M428 357l-31 -176h-30l26 146h-305l5 30h335z"/>
            <glyph glyph-name="registered" unicode="&#xae;" horiz-adv-x="841"
                   d="M259 157l68 386h169q76 0 98 -60q20 -53 -16 -108q-42 -65 -125 -65l109 -149v-4h-37l-106 151h-103l-26 -151h-31zM321 337h134q67 0 100 54q28 46 7 86q-19 37 -71 37h-138zM494 712q145 0 224 -87.5t79 -218.5q0 -109 -52.5 -205t-153 -157.5t-226.5 -61.5
q-145 0 -223.5 86t-78.5 218q0 109 52 205.5t152 158.5t227 62zM96 290q0 -121 72 -198.5t202 -77.5q172 0 282.5 114.5t110.5 275.5q0 121 -72 198.5t-203 77.5q-172 0 -282 -114.5t-110 -275.5z"/>
            <glyph glyph-name="macron" unicode="&#xaf;" horiz-adv-x="367"
                   d="M154 673l5 29h291l-5 -29h-291z"/>
            <glyph glyph-name="degree" unicode="&#xb0;" horiz-adv-x="308"
                   d="M226 703q-37 0 -59.5 -23t-22.5 -56q0 -22 15 -39t44 -17q35 0 57 24.5t22 55.5q0 24 -14.5 39.5t-41.5 15.5zM230 728q38 0 58.5 -22.5t20.5 -55.5q0 -42 -30 -74t-80 -32q-40 0 -60.5 22t-21.5 52q-1 48 32 79t81 31z"/>
            <glyph glyph-name="plusminus" unicode="&#xb1;" horiz-adv-x="520"
                   d="M89 355l4 24h168l30 168h26l-30 -168h167l-4 -24h-167l-31 -172h-26l31 172h-168zM46 55l5 26h344l-5 -26h-344z"/>
            <glyph glyph-name="twosuperior" unicode="&#xb2;" horiz-adv-x="353"
                   d="M146 689h-29q10 56 51 80.5t97 24.5q46 0 80 -20t34 -67q0 -101 -149 -117q-23 -3 -33 -4t-28.5 -6.5t-27.5 -13t-18 -21.5t-13 -34l-8 -45h244l-5 -27h-272l13 73q6 31 21 52.5t40 31.5t42 13.5t45 6.5q56 6 88 25t32 64q0 60 -91 60q-99 0 -113 -76z"/>
            <glyph glyph-name="threesuperior" unicode="&#xb3;" horiz-adv-x="342"
                   d="M82 539h30q-9 -41 19 -58.5t70 -17.5q39 0 76 19.5t37 64.5q0 22 -21.5 41.5t-63.5 19.5h-54l5 26h50q37 0 69.5 18.5t32.5 55.5q0 24 -18.5 40t-60.5 16q-27 0 -45 -3t-38.5 -18.5t-26.5 -44.5h-28q20 95 143 95q46 0 74.5 -22t28.5 -59q0 -32 -21 -57t-59 -35
q31 -7 47 -27t16 -42q0 -54 -42 -85.5t-107 -31.5q-55 0 -88 26.5t-25 78.5z"/>
            <glyph glyph-name="acute" unicode="&#xb4;" horiz-adv-x="220"
                   d="M168 582h-30l1 3l82 118h38z"/>
            <glyph glyph-name="_181" unicode="&#xb5;" horiz-adv-x="614"
                   d="M512 0h-28l18 108q-31 -58 -88.5 -87t-121.5 -28q-58 0 -106 28t-61 76l-57 -326h-30l128 724h28l-51 -292q-15 -84 31.5 -132t122.5 -49q78 -1 142 49t82 148l49 276h30z"/>
            <glyph glyph-name="paragraph" unicode="&#xb6;" horiz-adv-x="765"
                   d="M662 675h-290l-157 -892h-28l73 417q-80 -2 -131 35t-66.5 93t-3.5 122q19 101 96.5 175t188.5 74h457l-4 -24h-109l-157 -892h-26z"/>
            <glyph glyph-name="periodcentered" unicode="&#xb7;" horiz-adv-x="218"
                   d="M75 289q0 16 11.5 26.5t26.5 10.5q12 0 20 -8t8 -20q0 -16 -12 -26t-26 -10q-12 0 -20 7.5t-8 19.5z"/>
            <glyph glyph-name="cedilla" unicode="&#xb8;" horiz-adv-x="275"
                   d="M77 -66l-1 1l32 87h27l-23 -61q71 2 84 -46q11 -40 -24 -78q-36 -38 -90 -38q-71 0 -89 51l20 17q22 -41 74 -41q47 0 71 39q21 36 -1 59q-23 22 -80 10z"/>
            <glyph glyph-name="onesuperior" unicode="&#xb9;" horiz-adv-x="220"
                   d="M61 441l5 27h64l49 282l-58 -12l5 27l90 20l-56 -317h68l-5 -27h-162z"/>
            <glyph glyph-name="ordmasculine" unicode="&#xba;" horiz-adv-x="489"
                   d="M259 378q-60 0 -98 35t-38 98q0 89 57 140.5t136 51.5q60 0 98.5 -35t38.5 -98q0 -88 -57.5 -140t-136.5 -52zM265 410q68 0 111.5 41.5t43.5 114.5q0 51 -29.5 79t-79.5 28q-67 0 -111 -43t-44 -115q0 -50 29.5 -77.5t79.5 -27.5zM84 276l5 30h316l-5 -30h-316z"/>
            <glyph glyph-name="guillemotright" unicode="&#xbb;" horiz-adv-x="368"
                   d="M214 516l100 -219l-177 -220h-33l173 224l-96 215h33zM228 297l-177 -220h-32l173 224l-96 215h32z"/>
            <glyph glyph-name="onequarter" unicode="&#xbc;" horiz-adv-x="711"
                   d="M116 -2h-33l492 704h33zM602 353h25l-41 -237h57l-6 -27h-57l-15 -89h-30l15 89h-190l1 21zM400 116h156l35 188zM62 359l5 27h64l49 282l-58 -12l5 27l90 20l-56 -317h68l-5 -27h-162z"/>
            <glyph glyph-name="onehalf" unicode="&#xbd;" horiz-adv-x="757"
                   d="M113 -2h-33l492 704h33zM59 359l5 27h64l49 282l-58 -12l5 27l90 20l-56 -317h68l-5 -27h-162zM469 250h-27q9 53 51 79t96 26q44 0 79.5 -22t35.5 -65q0 -101 -150 -117q-33 -4 -53.5 -9t-40.5 -22.5t-25 -47.5l-8 -45h242l-4 -27h-271l13 73q6 31 21 52.5t40 31.5
t42 13.5t45 6.5q36 4 59 11t42 26.5t19 50.5q0 30 -24.5 45.5t-66.5 15.5q-101 0 -115 -76z"/>
            <glyph glyph-name="threequarters" unicode="&#xbe;" horiz-adv-x="747"
                   d="M169 -2h-33l504 707h33zM75 462h28q-9 -40 20 -58.5t67 -18.5q25 0 47 5t43.5 25.5t21.5 54.5q0 21 -20.5 39.5t-61.5 18.5h-53l4 28h49q37 0 68 19t31 55q0 55 -73 55q-96 0 -111 -69h-28q22 96 141 96q45 0 73.5 -21.5t28.5 -58.5q0 -32 -20.5 -56t-58.5 -34
q31 -7 45.5 -27.5t14.5 -43.5q0 -55 -39.5 -84t-105.5 -29q-54 0 -86.5 26.5t-24.5 77.5zM637 353h25l-41 -237h57l-6 -27h-57l-15 -89h-30l15 89h-190l1 21zM435 116h156l35 188z"/>
            <glyph glyph-name="questiondown" unicode="&#xbf;" horiz-adv-x="580"
                   d="M463 -12h29q-12 -74 -58.5 -121.5t-102.5 -65t-123 -17.5q-45 0 -86.5 9.5t-80 38.5t-52.5 73q-14 42 -6.5 90.5t34.5 86.5q12 17 28 30.5t37 24t35 16t41 14.5t35 12q70 25 94.5 64.5t42.5 130.5h28q-8 -43 -14 -65.5t-17 -50.5t-26.5 -44t-40.5 -32t-61 -28
q-92 -31 -123 -53q-19 -13 -32 -29q-26 -32 -33.5 -76.5t6.5 -84.5q31 -97 196 -97q41 0 77.5 7.5t73.5 25t63.5 54t35.5 87.5zM387 479q0 -15 -10.5 -24t-22.5 -9q-24 0 -24 23q0 15 10.5 23.5t23.5 8.5q23 0 23 -22z"/>
            <glyph glyph-name="Agrave" unicode="&#xc0;" horiz-adv-x="732"
                   d="M-16 0l437 700h38l191 -700h-32l-51 182h-435l-112 -182h-36zM150 213h409l-123 458zM459 750h-28l-64 120h37l56 -117z"/>
            <glyph glyph-name="Aacute" unicode="&#xc1;" horiz-adv-x="732"
                   d="M-16 0l437 700h38l191 -700h-32l-51 182h-435l-112 -182h-36zM150 213h409l-123 458zM462 748h-30l1 3l82 118h38z"/>
            <glyph glyph-name="Acircumflex" unicode="&#xc2;" horiz-adv-x="732"
                   d="M-16 0l437 700h38l191 -700h-32l-51 182h-435l-112 -182h-36zM150 213h409l-123 458zM480 873l114 -126l-1 -3h-31l-94 105l-131 -105h-36l1 3l157 126h21z"/>
            <glyph glyph-name="Atilde" unicode="&#xc3;" horiz-adv-x="732"
                   d="M-16 0l437 700h38l191 -700h-32l-51 182h-435l-112 -182h-36zM150 213h409l-123 458zM437 821l43 -20q26 -15 43 -10.5t28 36.5l23 -7q-25 -86 -106 -46l-42 20q-58 31 -76 -27l-20 6q7 40 38 53.5t69 -5.5z"/>
            <glyph glyph-name="Adieresis" unicode="&#xc4;" horiz-adv-x="732"
                   d="M-16 0l437 700h38l191 -700h-32l-51 182h-435l-112 -182h-36zM150 213h409l-123 458zM324 781q0 15 10.5 24t23.5 9q10 0 16.5 -6t6.5 -17q0 -16 -10 -24.5t-23 -8.5q-10 0 -17 6t-7 17zM529 781q0 15 10.5 24t23.5 9q10 0 16.5 -6t6.5 -17q0 -16 -10 -24.5t-23 -8.5
q-10 0 -17 6t-7 17z"/>
            <glyph glyph-name="Aring" unicode="&#xc5;" horiz-adv-x="733"
                   d="M548 766q-1 -71 -83 -89l185 -677h-35l-50 182h-431l-112 -182h-38l424 679q-23 7 -37.5 28.5t-14.5 47.5q0 56 48.5 80.5t96.5 4t47 -73.5zM152 213h406l-122 457zM521 766q0 37 -34.5 50.5t-69 -3.5t-34.5 -53q0 -28 15 -43t41 -17q32 -2 57 13t25 53z"/>
            <glyph glyph-name="AE" unicode="&#xc6;" horiz-adv-x="911"
                   d="M219 302h234l67 372zM-60 0l565 700h409l-5 -29h-360l-53 -302h337l-5 -30h-337l-54 -309h376l-6 -30h-407l48 274h-248l-222 -274h-38z"/>
            <glyph glyph-name="Ccedilla" unicode="&#xc7;" horiz-adv-x="716"
                   d="M365 -6l-21 -56q57 0 77.5 -34t2.5 -72q-14 -30 -51.5 -46t-81 -7t-68.5 45l23 19q24 -38 78 -38.5t73 38.5q14 32 -9 55t-82 14l33 82q-156 8 -227.5 107.5t-46.5 244.5q24 151 137 257.5t284 106.5q149 0 233 -103l-25 -19q-77 93 -209 93q-154 0 -259 -95.5
t-129 -236.5q-13 -66 -1.5 -124.5t41.5 -103t89 -70t139 -25.5q138 0 249 93l19 -20q-122 -103 -268 -105z"/>
            <glyph glyph-name="Egrave" unicode="&#xc8;" horiz-adv-x="650"
                   d="M89 31h456l-5 -31h-488l123 700h473l-5 -31h-441l-53 -300h420l-5 -31h-420zM454 758h-28l-64 120h37l56 -117z"/>
            <glyph glyph-name="Eacute" unicode="&#xc9;" horiz-adv-x="650"
                   d="M89 31h456l-5 -31h-488l123 700h473l-5 -31h-441l-53 -300h420l-5 -31h-420zM428 754h-30l1 3l82 118h38z"/>
            <glyph glyph-name="Ecircumflex" unicode="&#xca;" horiz-adv-x="650"
                   d="M89 31h456l-5 -31h-488l123 700h473l-5 -31h-441l-53 -300h420l-5 -31h-420zM466 898l122 -134l-1 -4h-33l-101 112l-139 -112h-38l1 4l167 134h22z"/>
            <glyph glyph-name="Edieresis" unicode="&#xcb;" horiz-adv-x="650"
                   d="M89 31h456l-5 -31h-488l123 700h473l-5 -31h-441l-53 -300h420l-5 -31h-420zM305 797q0 15 10.5 24t23.5 9q10 0 16.5 -6t6.5 -17q0 -16 -10 -24.5t-23 -8.5q-10 0 -17 6t-7 17zM510 797q0 15 10.5 24t23.5 9q10 0 16.5 -6t6.5 -17q0 -16 -10 -24.5t-23 -8.5q-10 0 -17 6
t-7 17z"/>
            <glyph glyph-name="Igrave" unicode="&#xcc;" horiz-adv-x="240"
                   d="M84 0h-32l123 700h32zM215 753h-28l-64 120h37l56 -117z"/>
            <glyph glyph-name="Iacute" unicode="&#xcd;" horiz-adv-x="240"
                   d="M84 0h-32l123 700h32zM206 755h-30l1 3l82 118h38z"/>
            <glyph glyph-name="Icircumflex" unicode="&#xce;" horiz-adv-x="240"
                   d="M84 0h-32l123 700h32zM229 889l98 -137l-1 -4h-26l-81 114l-112 -114h-31l1 4l134 137h18z"/>
            <glyph glyph-name="Idieresis" unicode="&#xcf;" horiz-adv-x="240"
                   d="M114 790q0 15 10 24t23 9q24 0 24 -23q0 -15 -10.5 -24t-23.5 -9q-10 0 -16.5 6t-6.5 17zM239 790q0 15 10 24t23 9q10 0 17 -6t7 -17q0 -15 -10 -24t-23 -9q-10 0 -17 6t-7 17zM84 0h-32l123 700h32z"/>
            <glyph glyph-name="Eth" unicode="&#xd0;" horiz-adv-x="754"
                   d="M42 342l5 28h78l58 330h227q158 0 233 -88.5t67 -222.5q-11 -169 -129 -279t-294 -110h-227l60 342h-78zM97 31h195q89 0 164 32.5t122.5 85.5t74 119t26.5 136q0 55 -14 101t-44.5 84t-85 59.5t-130.5 21.5h-195l-53 -300h159l-5 -28h-159z"/>
            <glyph glyph-name="Ntilde" unicode="&#xd1;" horiz-adv-x="740"
                   d="M52 0l123 700h3l391 -618l26 164l80 454h32l-123 -700l-394 622l-26 -168l-80 -454h-32zM434 806l42 -20q25 -14 41.5 -10t27.5 35l22 -6q-24 -83 -103 -44l-41 19q-57 29 -74 -26l-20 6q7 37 37.5 50.5t67.5 -4.5z"/>
            <glyph glyph-name="Ograve" unicode="&#xd2;" horiz-adv-x="818"
                   d="M482 709q85 0 149 -30t96.5 -80t45.5 -115t-2 -134q-13 -71 -46.5 -134.5t-85.5 -114.5t-125.5 -81t-157.5 -30q-143 0 -218.5 87t-75.5 215q0 73 27 145t77 134t132.5 100t183.5 38zM739 350q16 90 -5 162.5t-87.5 119t-170.5 46.5q-87 0 -161 -33.5t-121 -88
t-73 -121.5t-26 -136q0 -75 26 -136t88 -101.5t152 -40.5q149 0 252.5 97.5t125.5 231.5zM519 765h-28l-64 120h37l56 -117z"/>
            <glyph glyph-name="Oacute" unicode="&#xd3;" horiz-adv-x="818"
                   d="M482 709q85 0 149 -30t96.5 -80t45.5 -115t-2 -134q-13 -71 -46.5 -134.5t-85.5 -114.5t-125.5 -81t-157.5 -30q-143 0 -218.5 87t-75.5 215q0 73 27 145t77 134t132.5 100t183.5 38zM739 350q16 90 -5 162.5t-87.5 119t-170.5 46.5q-87 0 -161 -33.5t-121 -88
t-73 -121.5t-26 -136q0 -75 26 -136t88 -101.5t152 -40.5q149 0 252.5 97.5t125.5 231.5zM507 764h-30l1 3l82 118h38z"/>
            <glyph glyph-name="Ocircumflex" unicode="&#xd4;" horiz-adv-x="818"
                   d="M482 709q85 0 149 -30t96.5 -80t45.5 -115t-2 -134q-13 -71 -46.5 -134.5t-85.5 -114.5t-125.5 -81t-157.5 -30q-143 0 -218.5 87t-75.5 215q0 73 27 145t77 134t132.5 100t183.5 38zM739 350q16 90 -5 162.5t-87.5 119t-170.5 46.5q-87 0 -161 -33.5t-121 -88
t-73 -121.5t-26 -136q0 -75 26 -136t88 -101.5t152 -40.5q149 0 252.5 97.5t125.5 231.5zM527 900l122 -134l-1 -4h-33l-101 112l-139 -112h-38l1 4l167 134h22z"/>
            <glyph glyph-name="Otilde" unicode="&#xd5;" horiz-adv-x="818"
                   d="M482 709q85 0 149 -30t96.5 -80t45.5 -115t-2 -134q-13 -71 -46.5 -134.5t-85.5 -114.5t-125.5 -81t-157.5 -30q-143 0 -218.5 87t-75.5 215q0 73 27 145t77 134t132.5 100t183.5 38zM739 350q16 90 -5 162.5t-87.5 119t-170.5 46.5q-87 0 -161 -33.5t-121 -88
t-73 -121.5t-26 -136q0 -75 26 -136t88 -101.5t152 -40.5q149 0 252.5 97.5t125.5 231.5zM499 844l43 -20q26 -15 43.5 -11t28.5 36l23 -6q-25 -85 -107 -45l-43 19q-59 31 -77 -27l-20 7q7 38 38.5 52t70.5 -5z"/>
            <glyph glyph-name="Odieresis" unicode="&#xd6;" horiz-adv-x="818"
                   d="M482 709q85 0 149 -30t96.5 -80t45.5 -115t-2 -134q-13 -71 -46.5 -134.5t-85.5 -114.5t-125.5 -81t-157.5 -30q-143 0 -218.5 87t-75.5 215q0 73 27 145t77 134t132.5 100t183.5 38zM739 350q16 90 -5 162.5t-87.5 119t-170.5 46.5q-87 0 -161 -33.5t-121 -88
t-73 -121.5t-26 -136q0 -75 26 -136t88 -101.5t152 -40.5q149 0 252.5 97.5t125.5 231.5zM378 800q0 15 10.5 24t23.5 9q10 0 16.5 -6t6.5 -17q0 -16 -10 -24.5t-23 -8.5q-10 0 -17 6t-7 17zM583 800q0 15 10.5 24t23.5 9q10 0 16.5 -6t6.5 -17q0 -16 -10 -24.5t-23 -8.5
q-10 0 -17 6t-7 17z"/>
            <glyph glyph-name="multiply" unicode="&#xd7;" horiz-adv-x="452"
                   d="M104 455l22 19l105 -129l155 128l17 -20l-154 -128l110 -132l-21 -18l-110 131l-156 -137l-18 21l157 136z"/>
            <glyph glyph-name="Oslash" unicode="&#xd8;" horiz-adv-x="819"
                   d="M482 709q109 0 182 -49l77 98h36l-90 -115q57 -48 78 -126t10 -167q-18 -146 -134.5 -253t-284.5 -107q-89 0 -153 33l-81 -104h-35l92 118q-57 38 -87 106.5t-30 148.5q0 73 27.5 145.5t77.5 133.5t132.5 99.5t182.5 38.5zM95 298q0 -164 104 -234l445 571
q-65 43 -167 43q-87 0 -161 -33.5t-121.5 -88t-73.5 -122t-26 -136.5zM746 406q0 143 -80 211l-442 -567q56 -29 138 -29q113 0 202.5 57t135.5 144t46 184z"/>
            <glyph glyph-name="Ugrave" unicode="&#xd9;" horiz-adv-x="707"
                   d="M651 700h32l-78 -443q-23 -129 -111 -197t-195 -68q-51 0 -93.5 16.5t-73 48t-43 83.5t-0.5 117l78 443h32l-78 -443q-21 -116 32 -175.5t147 -59.5q95 0 174 60t99 175zM451 759h-28l-64 120h37l56 -117z"/>
            <glyph glyph-name="Uacute" unicode="&#xda;" horiz-adv-x="707"
                   d="M651 700h32l-78 -443q-23 -129 -111 -197t-195 -68q-51 0 -93.5 16.5t-73 48t-43 83.5t-0.5 117l78 443h32l-78 -443q-21 -116 32 -175.5t147 -59.5q95 0 174 60t99 175zM429 754h-30l1 3l82 118h38z"/>
            <glyph glyph-name="Ucircumflex" unicode="&#xdb;" horiz-adv-x="707"
                   d="M651 700h32l-78 -443q-23 -129 -111 -197t-195 -68q-51 0 -93.5 16.5t-73 48t-43 83.5t-0.5 117l78 443h32l-78 -443q-21 -116 32 -175.5t147 -59.5q95 0 174 60t99 175zM467 881l117 -128l-1 -4h-32l-96 107l-133 -107h-36l1 4l159 128h21z"/>
            <glyph glyph-name="Udieresis" unicode="&#xdc;" horiz-adv-x="707"
                   d="M651 700h32l-78 -443q-23 -129 -111 -197t-195 -68q-51 0 -93.5 16.5t-73 48t-43 83.5t-0.5 117l78 443h32l-78 -443q-21 -116 32 -175.5t147 -59.5q95 0 174 60t99 175zM315 788q0 15 10.5 24t23.5 9q10 0 16.5 -6t6.5 -17q0 -16 -10 -24.5t-23 -8.5q-10 0 -17 6t-7 17z
M520 788q0 15 10.5 24t23.5 9q10 0 16.5 -6t6.5 -17q0 -16 -10 -24.5t-23 -8.5q-10 0 -17 6t-7 17z"/>
            <glyph glyph-name="Yacute" unicode="&#xdd;" horiz-adv-x="650"
                   d="M254 0l49 278l-201 422h37l183 -394l322 394h39l-348 -422l-49 -278h-32zM398 753h-30l1 3l82 118h38z"/>
            <glyph glyph-name="Thorn" unicode="&#xde;" horiz-adv-x="668"
                   d="M206 699l-22 -126h271q98 0 144.5 -60t39.5 -145q-8 -98 -78.5 -171.5t-184.5 -73.5h-271l-22 -123h-31l123 699h31zM110 152h271q110 0 179 90q57 77 50 164q-8 90 -84 123q-33 14 -76 14h-271z"/>
            <glyph glyph-name="germandbls" unicode="&#xdf;" horiz-adv-x="601"
                   d="M33 0l90 517q34 194 235 194q80 0 131 -40.5t51 -114.5q0 -72 -39.5 -117.5t-106.5 -59.5q67 -14 103 -57t36 -107q0 -85 -42 -142t-103.5 -76t-128 -14.5t-120.5 31.5l6 31q52 -31 115 -36t117 14t90.5 69t36.5 120q0 152 -209 152h-95l5 26h91q214 0 214 164
q0 71 -46 100.5t-110 29.5q-174 0 -202 -168l-91 -516h-28z"/>
            <glyph glyph-name="agrave" unicode="&#xe0;" horiz-adv-x="632"
                   d="M495 0h-30l11 63l17 63q-36 -67 -103.5 -100t-139.5 -32q-92 0 -151 57t-59 153q0 133 88.5 214.5t208.5 81.5q72 0 130.5 -41t64.5 -107l10 82l10 60h30zM331 471q-107 0 -184 -71t-77 -191q0 -87 50.5 -136.5t135.5 -49.5q123 0 191 80.5t68 186.5q0 80 -47 130.5
t-137 50.5zM392 582h-28l-64 120h37l56 -117z"/>
            <glyph glyph-name="aacute" unicode="&#xe1;" horiz-adv-x="632"
                   d="M495 0h-30l11 63l17 63q-36 -67 -103.5 -100t-139.5 -32q-92 0 -151 57t-59 153q0 133 88.5 214.5t208.5 81.5q72 0 130.5 -41t64.5 -107l10 82l10 60h30zM331 471q-107 0 -184 -71t-77 -191q0 -87 50.5 -136.5t135.5 -49.5q123 0 191 80.5t68 186.5q0 80 -47 130.5
t-137 50.5zM369 582h-30l1 3l82 118h38z"/>
            <glyph glyph-name="acircumflex" unicode="&#xe2;" horiz-adv-x="632"
                   d="M495 0h-30l11 63l17 63q-36 -67 -103.5 -100t-139.5 -32q-92 0 -151 57t-59 153q0 133 88.5 214.5t208.5 81.5q72 0 130.5 -41t64.5 -107l10 82l10 60h30zM331 471q-107 0 -184 -71t-77 -191q0 -87 50.5 -136.5t135.5 -49.5q123 0 191 80.5t68 186.5q0 80 -47 130.5
t-137 50.5zM396 701l118 -129l-1 -4h-32l-97 108l-134 -108h-36l1 4l160 129h21z"/>
            <glyph glyph-name="atilde" unicode="&#xe3;" horiz-adv-x="632"
                   d="M495 0h-30l11 63l17 63q-36 -67 -103.5 -100t-139.5 -32q-92 0 -151 57t-59 153q0 133 88.5 214.5t208.5 81.5q72 0 130.5 -41t64.5 -107l10 82l10 60h30zM331 471q-107 0 -184 -71t-77 -191q0 -87 50.5 -136.5t135.5 -49.5q123 0 191 80.5t68 186.5q0 80 -47 130.5
t-137 50.5zM372 675l42 -20q25 -14 41.5 -10t27.5 35l22 -6q-24 -83 -103 -44l-41 19q-57 29 -74 -26l-20 6q7 37 37.5 50.5t67.5 -4.5z"/>
            <glyph glyph-name="adieresis" unicode="&#xe4;" horiz-adv-x="632"
                   d="M495 0h-30l11 63l17 63q-36 -67 -103.5 -100t-139.5 -32q-92 0 -151 57t-59 153q0 133 88.5 214.5t208.5 81.5q72 0 130.5 -41t64.5 -107l10 82l10 60h30zM331 471q-107 0 -184 -71t-77 -191q0 -87 50.5 -136.5t135.5 -49.5q123 0 191 80.5t68 186.5q0 80 -47 130.5
t-137 50.5zM258 662q0 15 10.5 24t23.5 9q10 0 16.5 -6t6.5 -17q0 -16 -10 -24.5t-23 -8.5q-10 0 -17 6t-7 17zM463 662q0 15 10.5 24t23.5 9q10 0 16.5 -6t6.5 -17q0 -16 -10 -24.5t-23 -8.5q-10 0 -17 6t-7 17z"/>
            <glyph glyph-name="aring" unicode="&#xe5;" horiz-adv-x="632"
                   d="M495 0h-30l11 63l17 63q-36 -67 -103.5 -100t-139.5 -32q-92 0 -151 57t-59 153q0 133 88.5 214.5t208.5 81.5q72 0 130.5 -41t64.5 -107l10 82l10 60h30zM331 471q-107 0 -184 -71t-77 -191q0 -87 50.5 -136.5t135.5 -49.5q123 0 191 80.5t68 186.5q0 80 -47 130.5
t-137 50.5zM463 658q0 26 -17 40.5t-41 14.5q-32 0 -57.5 -20.5t-25.5 -55.5q0 -25 17 -39.5t41 -14.5q32 0 57.5 20.5t25.5 54.5zM491 662q0 -48 -35 -75.5t-80 -27.5q-34 0 -57 19t-23 54q0 49 34.5 76.5t78.5 27.5q35 0 58.5 -19.5t23.5 -54.5z"/>
            <glyph glyph-name="ae" unicode="&#xe6;" horiz-adv-x="1048"
                   d="M495 0h-28l11 63l16 69q-35 -68 -104.5 -103.5t-140.5 -34.5q-92 0 -151 57t-59 153q0 129 89 212.5t208 83.5q74 0 132 -39t64 -108l10 81l10 60h28l-22 -124q41 61 103 95.5t133 34.5q52 0 94.5 -15t74.5 -47.5t40 -83t-10 -122.5h-459q-10 -101 41.5 -154t136.5 -53
q55 0 112.5 23t93.5 62l20 -17q-43 -47 -106 -72t-126 -25q-69 0 -120 34t-69 93zM330 471q-106 0 -183.5 -73t-77.5 -189q0 -86 52 -136t134 -50q104 0 170.5 63t84.5 160q16 101 -30 163t-150 62zM539 260h432q21 102 -27 156.5t-155 54.5q-89 0 -157.5 -56t-92.5 -155z
"/>
            <glyph glyph-name="ccedilla" unicode="&#xe7;" horiz-adv-x="529"
                   d="M197 -79l-1 1l29 76q-83 8 -134 65t-51 144q0 126 89 208.5t213 82.5q104 0 167 -74l-24 -19q-49 64 -149 64q-108 0 -187 -70.5t-79 -189.5q0 -86 52.5 -135t135.5 -49q95 0 169 64l16 -20q-85 -73 -190 -73h-2l-21 -50q56 4 76 -27.5t3 -64.5q-27 -56 -104 -56
q-68 0 -86 49l22 16q21 -39 69 -39q55 0 73 37q14 30 -7.5 49.5t-78.5 10.5z"/>
            <glyph glyph-name="egrave" unicode="&#xe8;" horiz-adv-x="587"
                   d="M457 110l20 -17q-43 -47 -105.5 -72t-125.5 -25q-90 0 -148.5 55.5t-58.5 151.5q0 127 87.5 212t207.5 85q52 0 94.5 -15t74 -47.5t39.5 -83t-10 -122.5h-462q-10 -102 42.5 -155t138.5 -53q54 0 112 23.5t94 62.5zM73 260h438q21 102 -26.5 156.5t-156.5 54.5
q-92 0 -161 -54t-94 -157zM385 582h-28l-64 120h37l56 -117z"/>
            <glyph glyph-name="eacute" unicode="&#xe9;" horiz-adv-x="587"
                   d="M457 110l20 -17q-43 -47 -105.5 -72t-125.5 -25q-90 0 -148.5 55.5t-58.5 151.5q0 127 87.5 212t207.5 85q52 0 94.5 -15t74 -47.5t39.5 -83t-10 -122.5h-462q-10 -102 42.5 -155t138.5 -53q54 0 112 23.5t94 62.5zM73 260h438q21 102 -26.5 156.5t-156.5 54.5
q-92 0 -161 -54t-94 -157zM361 582h-30l1 3l82 118h38z"/>
            <glyph glyph-name="ecircumflex" unicode="&#xea;" horiz-adv-x="587"
                   d="M457 110l20 -17q-43 -47 -105.5 -72t-125.5 -25q-90 0 -148.5 55.5t-58.5 151.5q0 127 87.5 212t207.5 85q52 0 94.5 -15t74 -47.5t39.5 -83t-10 -122.5h-462q-10 -102 42.5 -155t138.5 -53q54 0 112 23.5t94 62.5zM73 260h438q21 102 -26.5 156.5t-156.5 54.5
q-92 0 -161 -54t-94 -157zM388 700l114 -126l-1 -3h-31l-94 105l-131 -105h-36l1 3l157 126h21z"/>
            <glyph glyph-name="edieresis" unicode="&#xeb;" horiz-adv-x="587"
                   d="M457 110l20 -17q-43 -47 -105.5 -72t-125.5 -25q-90 0 -148.5 55.5t-58.5 151.5q0 127 87.5 212t207.5 85q52 0 94.5 -15t74 -47.5t39.5 -83t-10 -122.5h-462q-10 -102 42.5 -155t138.5 -53q54 0 112 23.5t94 62.5zM73 260h438q21 102 -26.5 156.5t-156.5 54.5
q-92 0 -161 -54t-94 -157zM247 651q0 15 10 23.5t23 8.5q9 0 15.5 -6t6.5 -16q0 -15 -10 -23.5t-22 -8.5q-9 0 -16 6t-7 16zM443 651q0 15 10 23.5t23 8.5q9 0 15.5 -6t6.5 -16q0 -15 -9.5 -23.5t-22.5 -8.5q-9 0 -16 6t-7 16z"/>
            <glyph glyph-name="igrave" unicode="&#xec;" horiz-adv-x="197"
                   d="M120 501h29l-88 -501h-29zM158 582h-25l-57 118h33l50 -115z"/>
            <glyph glyph-name="iacute" unicode="&#xed;" horiz-adv-x="197"
                   d="M120 501h29l-88 -501h-29zM153 582h-26l1 3l71 116h33z"/>
            <glyph glyph-name="icircumflex" unicode="&#xee;" horiz-adv-x="197"
                   d="M183 700l74 -130l-1 -4h-28l-59 108l-100 -108h-27l1 4l118 130h22zM120 501h29l-88 -501h-29z"/>
            <glyph glyph-name="idieresis" unicode="&#xef;" horiz-adv-x="197"
                   d="M120 501h29l-88 -501h-29zM68 673q0 15 10.5 24t23.5 9q10 0 16.5 -6t6.5 -17q0 -16 -10 -24.5t-23 -8.5q-10 0 -17 6t-7 17zM197 673q0 15 10.5 24t23.5 9q10 0 16.5 -6t6.5 -17q0 -16 -10 -24.5t-23 -8.5q-10 0 -17 6t-7 17z"/>
            <glyph glyph-name="eth" unicode="&#xf0;" horiz-adv-x="615"
                   d="M400 645l55 67l19 -14l-55 -68q141 -110 141 -307q0 -149 -86.5 -240t-221.5 -91q-105 0 -159.5 60t-54.5 148q0 113 83 203t220 91q70 0 120.5 -34.5t69.5 -90.5q-17 148 -131 239l-53 -64l-19 14l53 64q-46 33 -96 50l16 25q56 -23 99 -52zM257 21q119 0 193 78t74 176
q0 79 -48.5 134.5t-140.5 55.5q-119 0 -193 -80t-74 -181q0 -80 47 -131.5t142 -51.5z"/>
            <glyph glyph-name="ntilde" unicode="&#xf1;"
                   d="M33 0l87 494h29l-21 -112q39 61 98.5 90.5t119.5 30.5q101 0 146.5 -56t28.5 -156l-51 -291h-30l51 290q16 91 -23 138t-127 46q-81 -1 -147.5 -56.5t-80.5 -136.5l-50 -281h-30zM348 691l42 -20q25 -14 41.5 -10t27.5 35l22 -6q-24 -83 -103 -44l-41 19q-57 29 -74 -26
l-20 6q7 37 37.5 50.5t67.5 -4.5z"/>
            <glyph glyph-name="ograve" unicode="&#xf2;" horiz-adv-x="605"
                   d="M39 203q0 133 89.5 216t209.5 83q91 0 151 -58.5t60 -154.5q0 -133 -90 -214t-210 -81q-91 0 -150.5 56t-59.5 153zM519 285q0 86 -51.5 137t-134.5 51q-104 0 -184 -74t-80 -191q0 -86 50.5 -135.5t134.5 -49.5q106 0 185.5 72.5t79.5 189.5zM380 582h-28l-64 120h37
l56 -117z"/>
            <glyph glyph-name="oacute" unicode="&#xf3;" horiz-adv-x="605"
                   d="M39 203q0 133 89.5 216t209.5 83q91 0 151 -58.5t60 -154.5q0 -133 -90 -214t-210 -81q-91 0 -150.5 56t-59.5 153zM519 285q0 86 -51.5 137t-134.5 51q-104 0 -184 -74t-80 -191q0 -86 50.5 -135.5t134.5 -49.5q106 0 185.5 72.5t79.5 189.5zM355 582h-30l1 3l82 118h38
z"/>
            <glyph glyph-name="ocircumflex" unicode="&#xf4;" horiz-adv-x="605"
                   d="M39 203q0 133 89.5 216t209.5 83q91 0 151 -58.5t60 -154.5q0 -133 -90 -214t-210 -81q-91 0 -150.5 56t-59.5 153zM519 285q0 86 -51.5 137t-134.5 51q-104 0 -184 -74t-80 -191q0 -86 50.5 -135.5t134.5 -49.5q106 0 185.5 72.5t79.5 189.5zM387 701l108 -128v-4h-30
l-90 107l-124 -107h-33v4l149 128h20z"/>
            <glyph glyph-name="otilde" unicode="&#xf5;" horiz-adv-x="605"
                   d="M39 203q0 133 89.5 216t209.5 83q91 0 151 -58.5t60 -154.5q0 -133 -90 -214t-210 -81q-91 0 -150.5 56t-59.5 153zM519 285q0 86 -51.5 137t-134.5 51q-104 0 -184 -74t-80 -191q0 -86 50.5 -135.5t134.5 -49.5q106 0 185.5 72.5t79.5 189.5zM359 678l42 -20
q25 -14 41.5 -10t27.5 35l22 -6q-24 -83 -103 -44l-41 19q-57 29 -74 -26l-20 6q7 37 37.5 50.5t67.5 -4.5z"/>
            <glyph glyph-name="odieresis" unicode="&#xf6;" horiz-adv-x="605"
                   d="M39 203q0 133 89.5 216t209.5 83q91 0 151 -58.5t60 -154.5q0 -133 -90 -214t-210 -81q-91 0 -150.5 56t-59.5 153zM519 285q0 86 -51.5 137t-134.5 51q-104 0 -184 -74t-80 -191q0 -86 50.5 -135.5t134.5 -49.5q106 0 185.5 72.5t79.5 189.5zM257 668q0 13 9 21t21 8
q20 0 20 -20q0 -14 -8.5 -22t-20.5 -8q-21 0 -21 21zM439 668q0 13 9 21t21 8q21 0 21 -20q0 -14 -9 -22t-21 -8q-8 0 -14.5 5.5t-6.5 15.5z"/>
            <glyph glyph-name="divide" unicode="&#xf7;" horiz-adv-x="529"
                   d="M89 351l-5 -28h369l5 28h-369zM224 177q0 13 9 21t21 8q20 0 20 -20q0 -14 -9 -22t-20 -8q-21 0 -21 21zM272 462q0 13 9 21t21 8q21 0 21 -20q0 -14 -9 -22t-21 -8q-8 0 -14.5 5.5t-6.5 15.5z"/>
            <glyph glyph-name="oslash" unicode="&#xf8;" horiz-adv-x="605"
                   d="M50 -51l66 84q-76 53 -76 170q0 133 90 216.5t210 83.5q66 0 118 -29l48 62h35l-61 -79q69 -57 69 -168q0 -133 -90 -214t-210 -81q-66 0 -110 24l-55 -69h-34zM135 57l302 392q-45 24 -103 24q-104 0 -184 -74.5t-80 -191.5q0 -102 65 -150zM461 434l-301 -389
q35 -19 95 -19q106 0 185 71t79 188q0 99 -58 149z"/>
            <glyph glyph-name="ugrave" unicode="&#xf9;"
                   d="M550 494l-87 -494h-30l21 112q-38 -61 -97.5 -90.5t-119.5 -30.5q-102 0 -147.5 56t-28.5 156l51 291h31l-51 -290q-17 -92 20.5 -138.5t129.5 -45.5q81 1 147.5 56.5t80.5 136.5l50 281h30zM372 582h-28l-64 120h37l56 -117z"/>
            <glyph glyph-name="uacute" unicode="&#xfa;"
                   d="M550 494l-87 -494h-30l21 112q-38 -61 -97.5 -90.5t-119.5 -30.5q-102 0 -147.5 56t-28.5 156l51 291h31l-51 -290q-17 -92 20.5 -138.5t129.5 -45.5q81 1 147.5 56.5t80.5 136.5l50 281h30zM340 582h-30l1 3l82 118h38z"/>
            <glyph glyph-name="ucircumflex" unicode="&#xfb;"
                   d="M550 494l-87 -494h-30l21 112q-38 -61 -97.5 -90.5t-119.5 -30.5q-102 0 -147.5 56t-28.5 156l51 291h31l-51 -290q-17 -92 20.5 -138.5t129.5 -45.5q81 1 147.5 56.5t80.5 136.5l50 281h30zM379 707l116 -129l-1 -4h-31l-96 108l-133 -108h-36l1 4l159 129h21z"/>
            <glyph glyph-name="udieresis" unicode="&#xfc;"
                   d="M550 494l-87 -494h-30l21 112q-38 -61 -97.5 -90.5t-119.5 -30.5q-102 0 -147.5 56t-28.5 156l51 291h31l-51 -290q-17 -92 20.5 -138.5t129.5 -45.5q81 1 147.5 56.5t80.5 136.5l50 281h30zM248 668q0 15 9.5 23t21.5 8q22 0 22 -22q0 -14 -9.5 -22t-21.5 -8
q-22 0 -22 21zM439 668q0 15 9.5 23t21.5 8q22 0 22 -22q0 -14 -9.5 -22t-21.5 -8q-22 0 -22 21z"/>
            <glyph glyph-name="yacute" unicode="&#xfd;" horiz-adv-x="599"
                   d="M456 112q-38 -61 -98.5 -90.5t-120.5 -30.5q-102 0 -147.5 56t-28.5 156l51 291h30l-51 -290q-16 -91 22.5 -137.5t128.5 -46.5q81 0 147.5 56t80.5 137l50 281h30l-92 -521q-18 -109 -86.5 -167.5t-169.5 -58.5q-98 0 -144 45.5t-38 119.5h28q-6 -65 32.5 -100.5
t126.5 -35.5q84 0 144.5 50t77.5 147zM350 582h-30l1 3l82 118h38z"/>
            <glyph glyph-name="thorn" unicode="&#xfe;" horiz-adv-x="633"
                   d="M25 -206h-29l160 905h29l-59 -326q40 61 105.5 94t145.5 33q88 -4 143 -59t55 -149q0 -139 -85 -219.5t-216 -80.5q-70 0 -118.5 34.5t-68.5 99.5zM282 21q110 0 186 72t76 198q0 88 -49.5 134t-133.5 46q-106 0 -182.5 -76t-76.5 -186q0 -85 47.5 -136.5t132.5 -51.5z
"/>
            <glyph glyph-name="ydieresis" unicode="&#xff;" horiz-adv-x="599"
                   d="M456 112q-38 -61 -98.5 -90.5t-120.5 -30.5q-102 0 -147.5 56t-28.5 156l51 291h30l-51 -290q-16 -91 22.5 -137.5t128.5 -46.5q81 0 147.5 56t80.5 137l50 281h30l-92 -521q-18 -109 -86.5 -167.5t-169.5 -58.5q-98 0 -144 45.5t-38 119.5h28q-6 -65 32.5 -100.5
t126.5 -35.5q84 0 144.5 50t77.5 147zM241 663q0 13 10 21t22 8q21 0 21 -20q0 -13 -9.5 -21t-21.5 -8q-22 0 -22 20zM431 663q0 13 10 21t22 8q21 0 21 -20q0 -13 -9.5 -21t-21.5 -8q-22 0 -22 20z"/>
            <glyph glyph-name="Amacron" unicode="&#x100;" horiz-adv-x="732"
                   d="M310 770l5 28h273l-5 -28h-273zM-16 0l437 700h38l191 -700h-32l-51 182h-435l-112 -182h-36zM150 213h409l-123 458z"/>
            <glyph glyph-name="amacron" unicode="&#x101;" horiz-adv-x="632"
                   d="M241 646l5 26h279l-5 -26h-279zM495 0h-30l11 63l17 63q-36 -67 -103.5 -100t-139.5 -32q-92 0 -151 57t-59 153q0 133 88.5 214.5t208.5 81.5q72 0 130.5 -41t64.5 -107l10 82l10 60h30zM331 471q-107 0 -184 -71t-77 -191q0 -87 50.5 -136.5t135.5 -49.5
q123 0 191 80.5t68 186.5q0 80 -47 130.5t-137 50.5z"/>
            <glyph glyph-name="Abreve" unicode="&#x102;" horiz-adv-x="732"
                   d="M583 860q-9 -48 -47 -74.5t-85 -26.5t-77 26.5t-24 74.5h25q-7 -37 17 -56.5t63 -19.5q36 0 65.5 20.5t37.5 55.5h25zM-16 0l437 700h38l191 -700h-32l-51 182h-435l-112 -182h-36zM150 213h409l-123 458z"/>
            <glyph glyph-name="abreve" unicode="&#x103;" horiz-adv-x="632"
                   d="M501 686q-9 -48 -47 -74.5t-85 -26.5t-77 26.5t-24 74.5h25q-7 -37 17 -56.5t63 -19.5q36 0 65.5 20.5t37.5 55.5h25zM495 0h-30l11 63l17 63q-36 -67 -103.5 -100t-139.5 -32q-92 0 -151 57t-59 153q0 133 88.5 214.5t208.5 81.5q72 0 130.5 -41t64.5 -107l10 82l10 60
h30zM331 471q-107 0 -184 -71t-77 -191q0 -87 50.5 -136.5t135.5 -49.5q123 0 191 80.5t68 186.5q0 80 -47 130.5t-137 50.5z"/>
            <glyph glyph-name="Aogonek" unicode="&#x104;" horiz-adv-x="731"
                   d="M-16 0l437 700h38l190 -700h-30h-1q-10 0 -28 -2q-46 -4 -71 -31t-19 -55q8 -31 39.5 -37t66.5 9t58 40l11 -28q-36 -36 -82 -47.5t-81 3.5t-42 49q-9 43 28 81.5t113 42.5l-44 157h-435l-112 -182h-36zM150 213h409l-123 458z"/>
            <glyph glyph-name="aogonek" unicode="&#x105;" horiz-adv-x="632"
                   d="M524 -99l14 -24q-42 -50 -107 -53q-47 -1 -70 18.5t-23 48.5q0 45 36.5 77t90.5 33l11 62l17 63q-36 -67 -103.5 -100t-139.5 -32q-92 0 -151 57t-59 153q0 133 88.5 214.5t208.5 81.5q72 0 130.5 -41t64.5 -107l10 82l10 60h30l-91 -517q-62 5 -92 -20.5t-30 -58.5
q0 -20 16.5 -33.5t46.5 -12.5q54 2 92 49zM331 471q-107 0 -184 -71t-77 -191q0 -87 50.5 -136.5t135.5 -49.5q123 0 191 80.5t68 186.5q0 80 -47 130.5t-137 50.5z"/>
            <glyph glyph-name="Cacute" unicode="&#x106;" horiz-adv-x="715"
                   d="M470 781l1 3l90 112h36l-101 -115h-26zM612 119l20 -22q-120 -104 -271 -104q-111 0 -184.5 49t-100 128t-9.5 176q24 150 137.5 256t282.5 106q148 0 233 -104l-26 -20q-75 93 -212 93q-154 0 -256.5 -94.5t-126.5 -235.5q-23 -140 44.5 -231t223.5 -91q134 0 245 94z
"/>
            <glyph glyph-name="cacute" unicode="&#x107;" horiz-adv-x="529"
                   d="M330 598l1 3l82 100h34l-91 -103h-26zM427 89l16 -20q-85 -73 -190 -73q-99 0 -156 57.5t-57 153.5q0 127 87.5 209t214.5 82q104 0 167 -74l-22 -19q-49 64 -151 64q-108 0 -187 -70.5t-79 -189.5q0 -88 49.5 -136t138.5 -48q95 0 169 64z"/>
            <glyph glyph-name="Ccircumflex" unicode="&#x108;" horiz-adv-x="715"
                   d="M612 119l20 -22q-120 -104 -271 -104q-111 0 -184.5 49t-100 128t-9.5 176q24 150 137.5 256t282.5 106q148 0 233 -104l-26 -20q-75 93 -212 93q-154 0 -256.5 -94.5t-126.5 -235.5q-23 -140 44.5 -231t223.5 -91q134 0 245 94zM524 917l122 -134l-1 -4h-33l-101 112
l-139 -112h-38l1 4l167 134h22z"/>
            <glyph glyph-name="ccircumflex" unicode="&#x109;" horiz-adv-x="529"
                   d="M216 590l148 116h26l105 -116l-1 -6h-28l-90 100l-130 -100h-31zM427 89l16 -20q-85 -73 -190 -73q-99 0 -156 57.5t-57 153.5q0 127 87.5 209t214.5 82q104 0 167 -74l-22 -19q-49 64 -151 64q-108 0 -187 -70.5t-79 -189.5q0 -88 49.5 -136t138.5 -48q95 0 169 64z"/>
            <glyph glyph-name="Cdotaccent" unicode="&#x10a;" horiz-adv-x="715"
                   d="M468 796q0 16 10.5 25.5t24.5 9.5q10 0 17 -6.5t7 -18.5q0 -15 -11 -24t-25 -9q-10 0 -16.5 6t-6.5 17zM612 119l20 -22q-120 -104 -271 -104q-111 0 -184.5 49t-100 128t-9.5 176q24 150 137.5 256t282.5 106q148 0 233 -104l-26 -20q-75 93 -212 93
q-154 0 -256.5 -94.5t-126.5 -235.5q-23 -140 44.5 -231t223.5 -91q134 0 245 94z"/>
            <glyph glyph-name="cdotaccent" unicode="&#x10b;" horiz-adv-x="529"
                   d="M325 645q0 16 10 25.5t24 9.5q25 0 25 -25q0 -15 -11 -24t-25 -9q-10 0 -16.5 6t-6.5 17zM427 89l16 -20q-85 -73 -190 -73q-99 0 -156 57.5t-57 153.5q0 127 87.5 209t214.5 82q104 0 167 -74l-22 -19q-49 64 -151 64q-108 0 -187 -70.5t-79 -189.5q0 -88 49.5 -136
t138.5 -48q95 0 169 64z"/>
            <glyph glyph-name="Ccaron" unicode="&#x10c;" horiz-adv-x="715"
                   d="M612 119l20 -22q-120 -104 -271 -104q-111 0 -184.5 49t-100 128t-9.5 176q24 150 137.5 256t282.5 106q148 0 233 -104l-26 -20q-75 93 -212 93q-154 0 -256.5 -94.5t-126.5 -235.5q-23 -140 44.5 -231t223.5 -91q134 0 245 94zM466 776l-119 131l1 4h30l104 -109
l139 109h34l-1 -4l-162 -131h-26z"/>
            <glyph glyph-name="ccaron" unicode="&#x10d;" horiz-adv-x="529"
                   d="M427 89l16 -20q-85 -73 -190 -73q-99 0 -156 57.5t-57 153.5q0 127 87.5 209t214.5 82q104 0 167 -74l-22 -19q-49 64 -151 64q-108 0 -187 -70.5t-79 -189.5q0 -88 49.5 -136t138.5 -48q95 0 169 64zM340 579l-108 119l1 4h27l95 -100l126 100h31l-1 -4l-147 -119h-24z
"/>
            <glyph glyph-name="Dcaron" unicode="&#x10e;" horiz-adv-x="746"
                   d="M52 0l123 700h227q81 0 141.5 -25t96 -68t51 -97.5t12.5 -117.5q-10 -171 -128.5 -281.5t-295.5 -110.5h-227zM89 31h195q89 0 164 32.5t123 85.5t74.5 119.5t26.5 135.5q0 55 -14.5 101t-45.5 83.5t-86 59t-129 21.5h-195zM410 760l-119 131l1 4h30l104 -109l139 109h34
l-1 -4l-162 -131h-26z"/>
            <glyph glyph-name="dcaron" unicode="&#x10f;" horiz-adv-x="630"
                   d="M645 565l62 138h31l-69 -138h-24zM494 0h-30l11 63l16 60q-37 -66 -103.5 -98t-138.5 -31q-92 0 -151 57t-59 153q0 129 89 212.5t208 83.5q72 0 127 -36.5t68 -109.5l10 80l46 265h30zM330 471q-106 0 -183.5 -73t-77.5 -189q0 -87 50.5 -136.5t135.5 -49.5
q123 0 191 80.5t68 186.5q0 78 -47 129.5t-137 51.5z"/>
            <glyph glyph-name="Dcroat" unicode="&#x110;" horiz-adv-x="754"
                   d="M60 0l60 343h-81l5 28h81l58 329h227q81 0 141.5 -25t96 -68t51 -97.5t12.5 -117.5q-10 -171 -128.5 -281.5t-295.5 -110.5h-227zM97 31h195q89 0 164 32.5t123 85.5t74.5 119.5t26.5 135.5q0 55 -14.5 101t-45.5 83.5t-86 59t-129 21.5h-195l-53 -298h149l-5 -28h-149z
"/>
            <glyph glyph-name="dcroat" unicode="&#x111;" horiz-adv-x="630"
                   d="M494 0h-30l11 63l16 60q-37 -66 -103.5 -98t-138.5 -31q-92 0 -151 57t-59 153q0 129 89 212.5t208 83.5q72 0 127 -36.5t68 -109.5l10 80l28 163h-103l5 26h103l13 76h30l-14 -76h77l-5 -26h-76zM330 471q-106 0 -183.5 -73t-77.5 -189q0 -87 50.5 -136.5t135.5 -49.5
q123 0 191 80.5t68 186.5q0 78 -47 129.5t-137 51.5z"/>
            <glyph glyph-name="Emacron" unicode="&#x112;" horiz-adv-x="650"
                   d="M574 814l-5 -27h-272l5 27h272zM89 31h456l-5 -31h-488l123 700h473l-5 -31h-441l-53 -300h420l-5 -31h-420z"/>
            <glyph glyph-name="emacron" unicode="&#x113;" horiz-adv-x="587"
                   d="M234 648l5 26h270l-5 -26h-270zM457 110l20 -17q-43 -47 -105.5 -72t-125.5 -25q-90 0 -148.5 55.5t-58.5 151.5q0 127 87.5 212t207.5 85q52 0 94.5 -15t74 -47.5t39.5 -83t-10 -122.5h-462q-10 -102 42.5 -155t138.5 -53q54 0 112 23.5t94 62.5zM73 260h438
q21 102 -26.5 156.5t-156.5 54.5q-92 0 -161 -54t-94 -157z"/>
            <glyph glyph-name="Ebreve" unicode="&#x114;" horiz-adv-x="650"
                   d="M89 31h456l-5 -31h-488l123 700h473l-5 -31h-441l-53 -300h420l-5 -31h-420zM334 879h24q-11 -76 75 -76q40 0 67.5 20t35.5 56h24q-9 -50 -45 -75.5t-86 -25.5q-49 0 -76 26.5t-19 74.5z"/>
            <glyph glyph-name="ebreve" unicode="&#x115;" horiz-adv-x="587"
                   d="M457 110l20 -17q-43 -47 -105.5 -72t-125.5 -25q-90 0 -148.5 55.5t-58.5 151.5q0 127 87.5 212t207.5 85q52 0 94.5 -15t74 -47.5t39.5 -83t-10 -122.5h-462q-10 -102 42.5 -155t138.5 -53q54 0 112 23.5t94 62.5zM73 260h438q21 102 -26.5 156.5t-156.5 54.5
q-92 0 -161 -54t-94 -157zM255 699h24q-11 -76 75 -76q40 0 67.5 20t35.5 56h24q-9 -50 -45 -75.5t-86 -25.5q-49 0 -76 26.5t-19 74.5z"/>
            <glyph glyph-name="Edotaccent" unicode="&#x116;" horiz-adv-x="650"
                   d="M465 816q0 -17 -11.5 -27t-25.5 -10q-27 0 -27 25q0 17 11 27.5t27 10.5q26 0 26 -26zM89 31h456l-5 -31h-488l123 700h473l-5 -31h-441l-53 -300h420l-5 -31h-420z"/>
            <glyph glyph-name="edotaccent" unicode="&#x117;" horiz-adv-x="587"
                   d="M331 658q0 19 11.5 28t26.5 9q11 0 18.5 -7t7.5 -19q0 -18 -11 -27.5t-26 -9.5q-27 0 -27 26zM457 110l20 -17q-43 -47 -105.5 -72t-125.5 -25q-90 0 -148.5 55.5t-58.5 151.5q0 127 87.5 212t207.5 85q52 0 94.5 -15t74 -47.5t39.5 -83t-10 -122.5h-462
q-10 -102 42.5 -155t138.5 -53q54 0 112 23.5t94 62.5zM73 260h438q21 102 -26.5 156.5t-156.5 54.5q-92 0 -161 -54t-94 -157z"/>
            <glyph glyph-name="Eogonek" unicode="&#x118;" horiz-adv-x="650"
                   d="M89 31h456v-1l-5 -30q-29 -2 -61.5 -12.5t-61 -35t-25.5 -57.5q4 -40 50 -40q66 0 102 55l23 -10q-46 -74 -132 -74q-31 0 -51 14.5t-24 43.5q-5 39 23.5 72t73.5 44h-405l123 700h473l-5 -31h-441l-53 -300h420l-5 -31h-420z"/>
            <glyph glyph-name="eogonek" unicode="&#x119;" horiz-adv-x="587"
                   d="M456 106l20 -17q-51 -58 -138 -83q-39 -32 -28 -68t63 -33q26 2 53.5 16t44.5 39l22 -11q-19 -31 -54.5 -52t-68.5 -23q-58 -6 -81.5 32.5t16.5 91.5q-29 -6 -60 -6q-90 0 -148.5 55.5t-58.5 151.5q0 127 87.5 212t207.5 85q52 0 94.5 -15t74 -47.5t39.5 -83t-10 -122.5
h-461q-10 -100 42.5 -153.5t137.5 -53.5q55 0 112.5 23t93.5 62zM75 256h434q21 101 -28.5 156t-153.5 55q-89 0 -158.5 -56t-93.5 -155z"/>
            <glyph glyph-name="Ecaron" unicode="&#x11a;" horiz-adv-x="650"
                   d="M89 31h456l-5 -31h-488l123 700h473l-5 -31h-441l-53 -300h420l-5 -31h-420zM412 767l-116 127l1 4h29l101 -106l135 106h33l-1 -4l-157 -127h-25z"/>
            <glyph glyph-name="ecaron" unicode="&#x11b;" horiz-adv-x="587"
                   d="M457 110l20 -17q-43 -47 -105.5 -72t-125.5 -25q-90 0 -148.5 55.5t-58.5 151.5q0 127 87.5 212t207.5 85q52 0 94.5 -15t74 -47.5t39.5 -83t-10 -122.5h-462q-10 -102 42.5 -155t138.5 -53q54 0 112 23.5t94 62.5zM73 260h438q21 102 -26.5 156.5t-156.5 54.5
q-92 0 -161 -54t-94 -157zM344 577l-111 121l1 4h28l97 -101l129 101h31l-1 -4l-150 -121h-24z"/>
            <glyph glyph-name="Gcircumflex" unicode="&#x11c;" horiz-adv-x="746"
                   d="M720 604l-25 -21q-76 94 -211 94q-165 0 -263 -93t-122 -233q-24 -139 46.5 -233t223.5 -94q62 0 130.5 25.5t115.5 67.5l37 210h-264l6 29h294l-45 -253q-127 -110 -279 -110q-170 0 -249 110.5t-43 278.5q33 151 146.5 238.5t271.5 87.5q144 0 230 -104zM528 904
l121 -133l-1 -4h-33l-100 111l-138 -111h-37l1 4l165 133h22z"/>
            <glyph glyph-name="gcircumflex" unicode="&#x11d;" horiz-adv-x="631"
                   d="M234 585l153 125h31l109 -125l-1 -6h-31l-95 107l-135 -107h-32zM492 -16q-20 -118 -98 -177.5t-184 -59.5q-100 0 -154 47t-46 123h29q-7 -68 41.5 -105t134.5 -37q56 0 105.5 19.5t89.5 68t52 119.5l14 81l15 59q-35 -67 -102 -97.5t-139 -29.5q-96 0 -153.5 56.5
t-57.5 153.5q0 129 89 212t209 83q71 0 125 -36t69 -101l10 71l11 60h30zM330 471q-106 0 -183 -73t-77 -189q0 -88 48.5 -136t137.5 -48q84 0 144.5 40.5t87 99t26.5 125.5q0 78 -47 129.5t-137 51.5z"/>
            <glyph glyph-name="Gbreve" unicode="&#x11e;" horiz-adv-x="746"
                   d="M720 604l-25 -21q-76 94 -211 94q-165 0 -263 -93t-122 -233q-24 -139 46.5 -233t223.5 -94q62 0 130.5 25.5t115.5 67.5l37 210h-264l6 29h294l-45 -253q-127 -110 -279 -110q-170 0 -249 110.5t-43 278.5q33 151 146.5 238.5t271.5 87.5q144 0 230 -104zM406 884h24
q-11 -76 75 -76q40 0 67.5 20t35.5 56h24q-9 -50 -45 -75.5t-86 -25.5q-49 0 -76 26.5t-19 74.5z"/>
            <glyph glyph-name="gbreve" unicode="&#x11f;" horiz-adv-x="631"
                   d="M281 704h24q-11 -76 75 -76q40 0 67.5 20t35.5 56h24q-9 -50 -45 -75.5t-86 -25.5q-49 0 -76 26.5t-19 74.5zM492 -16q-20 -118 -98 -177.5t-184 -59.5q-100 0 -154 47t-46 123h29q-7 -68 41.5 -105t134.5 -37q56 0 105.5 19.5t89.5 68t52 119.5l14 81l15 59
q-35 -67 -102 -97.5t-139 -29.5q-96 0 -153.5 56.5t-57.5 153.5q0 129 89 212t209 83q71 0 125 -36t69 -101l10 71l11 60h30zM330 471q-106 0 -183 -73t-77 -189q0 -88 48.5 -136t137.5 -48q84 0 144.5 40.5t87 99t26.5 125.5q0 78 -47 129.5t-137 51.5z"/>
            <glyph glyph-name="Gdotaccent" unicode="&#x120;" horiz-adv-x="746"
                   d="M471 805q0 16 11.5 25.5t26.5 9.5q28 0 28 -25q0 -16 -11.5 -26t-26.5 -10q-28 0 -28 26zM720 604l-25 -21q-76 94 -211 94q-165 0 -263 -93t-122 -233q-24 -139 46.5 -233t223.5 -94q62 0 130.5 25.5t115.5 67.5l37 210h-264l6 29h294l-45 -253q-127 -110 -279 -110
q-170 0 -249 110.5t-43 278.5q33 151 146.5 238.5t271.5 87.5q144 0 230 -104z"/>
            <glyph glyph-name="gdotaccent" unicode="&#x121;" horiz-adv-x="631"
                   d="M363 660q0 16 11.5 25.5t26.5 9.5q27 0 27 -25q0 -16 -11.5 -25.5t-26.5 -9.5q-27 0 -27 25zM492 -16q-20 -118 -98 -177.5t-184 -59.5q-100 0 -154 47t-46 123h29q-7 -68 41.5 -105t134.5 -37q56 0 105.5 19.5t89.5 68t52 119.5l14 81l15 59q-35 -67 -102 -97.5
t-139 -29.5q-96 0 -153.5 56.5t-57.5 153.5q0 129 89 212t209 83q71 0 125 -36t69 -101l10 71l11 60h30zM330 471q-106 0 -183 -73t-77 -189q0 -88 48.5 -136t137.5 -48q84 0 144.5 40.5t87 99t26.5 125.5q0 78 -47 129.5t-137 51.5z"/>
            <glyph glyph-name="Gcommaaccent" unicode="&#x122;" horiz-adv-x="746"
                   d="M720 604l-25 -21q-76 94 -211 94q-165 0 -263 -93t-122 -233q-24 -139 46.5 -233t223.5 -94q62 0 130.5 25.5t115.5 67.5l37 210h-264l6 29h294l-45 -253q-127 -110 -279 -110q-170 0 -249 110.5t-43 278.5q33 151 146.5 238.5t271.5 87.5q144 0 230 -104zM279 -218
l40 76q-14 3 -14 19q0 26 25 32q22 5 29 -12q2 -5 2 -10t-13 -31l-40 -74h-29z"/>
            <glyph glyph-name="gcommaaccent" unicode="&#x123;" horiz-adv-x="631"
                   d="M432 707l-43 -74q13 -5 13 -19q0 -15 -10 -24t-23 -9q-23 0 -23 23q0 9 13 31l44 72h29zM492 -16q-20 -118 -98 -177.5t-184 -59.5q-100 0 -154 47t-46 123h29q-7 -68 41.5 -105t134.5 -37q56 0 105.5 19.5t89.5 68t52 119.5l14 81l15 59q-35 -67 -102 -97.5t-139 -29.5
q-96 0 -153.5 56.5t-57.5 153.5q0 129 89 212t209 83q71 0 125 -36t69 -101l10 71l11 60h30zM330 471q-106 0 -183 -73t-77 -189q0 -88 48.5 -136t137.5 -48q84 0 144.5 40.5t87 99t26.5 125.5q0 78 -47 129.5t-137 51.5z"/>
            <glyph glyph-name="Hcircumflex" unicode="&#x124;" horiz-adv-x="749"
                   d="M593 0h-32l58 327h-477l-58 -327h-32l123 700h32l-60 -342h477l60 342h32zM497 905l121 -133l-1 -4h-33l-100 111l-138 -111h-37l1 4l165 133h22z"/>
            <glyph glyph-name="hcircumflex" unicode="&#x125;" horiz-adv-x="586"
                   d="M400 897l116 -127l-1 -4h-32l-95 106l-132 -106h-36l1 4l158 127h21zM120 494l36 206h30l-36 -206l-26 -120q40 66 99 95.5t122 30.5q197 0 161 -209l-51 -291h-30l51 290q17 94 -15 137t-121 45q-78 2 -145.5 -53t-81.5 -138l-50 -281h-30z"/>
            <glyph glyph-name="Hbar" unicode="&#x126;" horiz-adv-x="762"
                   d="M80 537l5 28h74l23 135h32l-23 -135h477l23 135h32l-23 -135h76l-5 -28h-76l-95 -537h-32l58 327h-477l-58 -327h-32l95 537h-74zM154 358h477l32 179h-477z"/>
            <glyph glyph-name="hbar" unicode="&#x127;" horiz-adv-x="586"
                   d="M69 590l4 24h68l15 86h30l-15 -86h130l-4 -24h-130l-17 -96l-26 -123q77 127 221 129q197 0 161 -209l-51 -291h-30l51 290q17 94 -15 137t-121 45q-78 2 -145.5 -54t-81.5 -137l-50 -281h-30l104 590h-68z"/>
            <glyph glyph-name="Itilde" unicode="&#x128;" horiz-adv-x="240"
                   d="M84 0h-32l123 700h32zM201 826l42 -20q25 -14 41.5 -10t27.5 35l22 -6q-24 -83 -103 -44l-41 19q-57 29 -74 -26l-20 6q7 37 37.5 50.5t67.5 -4.5z"/>
            <glyph glyph-name="itilde" unicode="&#x129;" horiz-adv-x="197"
                   d="M120 501h29l-88 -501h-29zM136 656l35 -19q20 -14 34 -10t22 34l19 -6q-21 -80 -85 -43l-34 19q-47 29 -61 -26l-16 6q5 37 30 50t56 -5z"/>
            <glyph glyph-name="Imacron" unicode="&#x12a;" horiz-adv-x="240"
                   d="M84 0h-32l123 700h32zM92 767l4 29h210l-4 -29h-210z"/>
            <glyph glyph-name="imacron" unicode="&#x12b;" horiz-adv-x="200"
                   d="M150 494h-30l-87 -494h30zM68 649l4 28h186l-4 -28h-186z"/>
            <glyph glyph-name="Ibreve" unicode="&#x12c;" horiz-adv-x="240"
                   d="M84 0h-32l123 700h32zM109 860h24q-11 -76 75 -76q40 0 67.5 20t35.5 56h24q-9 -50 -45 -75.5t-86 -25.5q-49 0 -76 26.5t-19 74.5z"/>
            <glyph glyph-name="ibreve" unicode="&#x12d;" horiz-adv-x="200"
                   d="M150 494h-30l-87 -494h30zM81 687h24q-5 -37 9 -50.5t42 -14.5q68 2 80 65h23q-10 -51 -37 -70t-68 -19q-87 0 -73 89z"/>
            <glyph glyph-name="Iogonek" unicode="&#x12e;" horiz-adv-x="242"
                   d="M134 -85l15 -18q-39 -45 -99 -48q-74 -4 -87 59q-9 40 18.5 74.5t76.5 38.5l119 679h32l-123 -700h-10q-50 0 -71 -29.5t-14 -54.5q11 -43 61 -40q50 2 82 39z"/>
            <glyph glyph-name="iogonek" unicode="&#x12f;" horiz-adv-x="202"
                   d="M141 656q0 14 10 22t22 8q22 0 22 -21q0 -14 -9.5 -22.5t-21.5 -8.5q-9 0 -16 6t-7 16zM111 -115l-9 23q-30 -27 -68 -29q-46 -2 -58 34t18 65q19 18 50 22h21l87 494h-30l-83 -473q-58 -9 -82 -52t-2 -81t78 -35q43 3 78 32z"/>
            <glyph glyph-name="Idotaccent" unicode="&#x130;" horiz-adv-x="240"
                   d="M84 0h-32l123 700h32zM177 783q0 18 11.5 27.5t26.5 9.5q26 0 26 -26q0 -17 -11.5 -26.5t-26.5 -9.5q-26 0 -26 25z"/>
            <glyph glyph-name="dotlessi" unicode="&#x131;" horiz-adv-x="200"
                   d="M120 494h30l-87 -494h-30z"/>
            <glyph glyph-name="IJ" unicode="&#x132;" horiz-adv-x="901"
                   d="M84 0h-32l123 700h32zM557 669l5 31h315l-78 -445q-22 -123 -112.5 -194t-207.5 -71q-115 0 -176 75.5t-41 191.5h29q-18 -103 35 -169.5t159 -66.5q103 0 183 61.5t99 172.5l73 414h-283z"/>
            <glyph glyph-name="ij" unicode="&#x133;" horiz-adv-x="399"
                   d="M139 659q0 14 9.5 22t21.5 8q9 0 16 -6t7 -16q0 -14 -10 -22t-22 -8q-22 0 -22 22zM150 494h-30l-87 -494h30zM350 495h-30l-102 -576q-6 -35 -10.5 -51.5t-15.5 -39.5t-31 -32.5t-50 -9.5q-42 0 -75 23l-14 -25q47 -27 82 -27q40 0 67 12.5t42 37.5t22 49.5t13 62.5z
M338 660q0 14 9.5 21.5t21.5 7.5q9 0 16 -6t7 -16q0 -14 -10 -22t-22 -8q-9 0 -15.5 6.5t-6.5 16.5z"/>
            <glyph glyph-name="Jcircumflex" unicode="&#x134;" horiz-adv-x="661"
                   d="M317 669l5 31h315l-78 -445q-22 -123 -112.5 -194t-207.5 -71q-115 0 -176 75.5t-41 191.5h29q-18 -103 35 -169.5t159 -66.5q103 0 183 61.5t99 172.5l73 414h-283zM529 907l122 -134l-1 -4h-33l-101 112l-139 -112h-38l1 4l167 134h22z"/>
            <glyph glyph-name="jcircumflex" unicode="&#x135;" horiz-adv-x="199"
                   d="M150 495h-30l-102 -576q-6 -35 -10.5 -51.5t-15.5 -39.5t-31 -32.5t-50 -9.5q-44 0 -75 22l-15 -27q42 -24 83 -24q40 0 67 12.5t42 37.5t22 49.5t13 62.5zM177 701l100 -134l-1 -4h-27l-83 112l-115 -112h-31l1 4l138 134h18z"/>
            <glyph glyph-name="Kcommaaccent" unicode="&#x136;" horiz-adv-x="567"
                   d="M82 1h-32l123 699h32l-57 -325l415 325h40l-1 -5l-424 -332l335 -360v-3h-44l-325 354zM197 -209l40 76q-14 3 -14 19q0 26 25 32q22 5 29 -12q2 -5 2 -10t-13 -31l-40 -74h-29z"/>
            <glyph glyph-name="kcommaaccent" unicode="&#x137;" horiz-adv-x="447"
                   d="M156 700h30l-75 -426l288 220h46v-1l-310 -234l252 -257v-2h-39l-241 247l-44 -247h-30zM137 -201l38 72q-13 3 -13 18q0 24 23 30q21 6 28 -11q2 -4 2 -9q0 -6 -12 -30l-38 -70h-28z"/>
            <glyph glyph-name="kgreenlandic" unicode="&#x138;" horiz-adv-x="447"
                   d="M120 495h30l-39 -221l289 220h45v-1l-308 -234l250 -257v-2h-41l-239 247l-44 -247h-30z"/>
            <glyph glyph-name="Lacute" unicode="&#x139;" horiz-adv-x="550"
                   d="M175 700h32l-118 -669h405l-5 -31h-437zM218 757h-30l1 3l82 118h38z"/>
            <glyph glyph-name="lacute" unicode="&#x13a;" horiz-adv-x="215"
                   d="M164 700h30l-123 -700h-30zM195 752h-26l1 3l71 120h33z"/>
            <glyph glyph-name="Lcommaaccent" unicode="&#x13b;" horiz-adv-x="550"
                   d="M175 700h32l-118 -669h405l-5 -31h-437zM199 -224l40 76q-14 3 -14 19q0 26 25 32q22 5 29 -12q2 -5 2 -10t-13 -31l-40 -74h-29z"/>
            <glyph glyph-name="lcommaaccent" unicode="&#x13c;" horiz-adv-x="215"
                   d="M164 700h30l-123 -700h-30zM-19 -218l40 76q-14 3 -14 19q0 26 25 32q22 5 29 -12q2 -5 2 -10t-13 -31l-40 -74h-29z"/>
            <glyph glyph-name="Lcaron" unicode="&#x13d;" horiz-adv-x="552"
                   d="M175 700h32l-118 -669h405l-5 -31h-437zM468 553h-29l70 148h35z"/>
            <glyph glyph-name="lcaron" unicode="&#x13e;" horiz-adv-x="208"
                   d="M222 558l61 143h32l-68 -143h-25zM164 700h31l-123 -700h-31z"/>
            <glyph glyph-name="Ldot" unicode="&#x13f;" horiz-adv-x="550"
                   d="M175 700h32l-118 -669h405l-5 -31h-437zM334 364q0 16 11.5 26.5t26.5 10.5q12 0 20 -8t8 -20q0 -16 -12 -26t-26 -10q-12 0 -20 7.5t-8 19.5z"/>
            <glyph glyph-name="ldot" unicode="&#x140;" horiz-adv-x="273"
                   d="M164 700h30l-123 -700h-30zM216 312q0 16 11.5 26.5t26.5 10.5q12 0 20 -8t8 -20q0 -16 -12 -26t-26 -10q-12 0 -20 7.5t-8 19.5z"/>
            <glyph glyph-name="Lslash" unicode="&#x141;" horiz-adv-x="556"
                   d="M59 0l56 318l-72 -25l5 28l73 27l62 352h30l-60 -341l126 49l-5 -31l-126 -47l-54 -302h407l-5 -28h-437z"/>
            <glyph glyph-name="lslash" unicode="&#x142;" horiz-adv-x="236"
                   d="M175 700h31l-61 -343l89 33l-6 -32l-89 -32l-57 -326h-31l56 317l-79 -27l6 29l79 29z"/>
            <glyph glyph-name="Nacute" unicode="&#x143;" horiz-adv-x="740"
                   d="M52 0l123 700h3l391 -618l26 164l80 454h32l-123 -700l-394 622l-26 -168l-80 -454h-32zM439 749h-30l1 3l82 118h38z"/>
            <glyph glyph-name="nacute" unicode="&#x144;"
                   d="M33 0l87 494h29l-21 -112q39 61 98.5 90.5t119.5 30.5q101 0 146.5 -56t28.5 -156l-51 -291h-30l51 290q16 91 -23 138t-127 46q-81 -1 -147.5 -56.5t-80.5 -136.5l-50 -281h-30zM359 595h-27l1 3l73 105h34z"/>
            <glyph glyph-name="Ncommaaccent" unicode="&#x145;" horiz-adv-x="740"
                   d="M52 0l123 700h3l391 -618l26 164l80 454h32l-123 -700l-394 622l-26 -168l-80 -454h-32zM239 -214l40 76q-14 3 -14 19q0 26 25 32q22 5 29 -12q2 -5 2 -10t-13 -31l-40 -74h-29z"/>
            <glyph glyph-name="ncommaaccent" unicode="&#x146;"
                   d="M33 0l87 494h29l-21 -112q39 61 98.5 90.5t119.5 30.5q101 0 146.5 -56t28.5 -156l-51 -291h-30l51 290q16 91 -23 138t-127 46q-81 -1 -147.5 -56.5t-80.5 -136.5l-50 -281h-30zM174 -211l40 76q-14 3 -14 19q0 26 25 32q22 5 29 -12q2 -5 2 -10t-13 -31l-40 -74h-29z
"/>
            <glyph glyph-name="Ncaron" unicode="&#x147;" horiz-adv-x="740"
                   d="M52 0l123 700h3l391 -618l26 164l80 454h32l-123 -700l-394 622l-26 -168l-80 -454h-32zM419 747l-115 126l1 4h29l100 -105l134 105h33l-1 -4l-156 -126h-25z"/>
            <glyph glyph-name="ncaron" unicode="&#x148;"
                   d="M33 0l87 494h29l-21 -112q39 61 98.5 90.5t119.5 30.5q101 0 146.5 -56t28.5 -156l-51 -291h-30l51 290q16 91 -23 138t-127 46q-81 -1 -147.5 -56.5t-80.5 -136.5l-50 -281h-30zM350 576l-111 121l1 4h28l97 -101l129 101h31l-1 -4l-150 -121h-24z"/>
            <glyph glyph-name="napostrophe" unicode="&#x149;"
                   d="M33 0l87 494h29l-21 -112q39 61 98.5 90.5t119.5 30.5q101 0 146.5 -56t28.5 -156l-51 -291h-30l51 290q16 91 -23 138t-127 46q-81 -1 -147.5 -56.5t-80.5 -136.5l-50 -281h-30z"/>
            <glyph glyph-name="Eng" unicode="&#x14a;" horiz-adv-x="740"
                   d="M52 0l123 700h3l392 -616l25 162l80 454h32l-130 -739q-12 -74 -44 -113.5t-107 -39.5q-42 0 -73 27l10 26q38 -24 69 -24q58 0 81.5 31t34.5 93l13 73l-371 585l-26 -165l-80 -454h-32z"/>
            <glyph glyph-name="eng" unicode="&#x14b;"
                   d="M33 0l87 494h30l-21 -112q39 61 98.5 90.5t118.5 30.5q101 0 146.5 -56t28.5 -156l-53 -304q-12 -75 -42.5 -120.5t-98.5 -48.5q-40 -1 -82 22l12 28q30 -22 75 -22q27 2 46 13t30.5 32.5t17.5 42.5t12 53l53 303q16 90 -23.5 137.5t-126.5 46.5q-81 -1 -147.5 -56.5
t-80.5 -136.5l-50 -281h-30z"/>
            <glyph glyph-name="Omacron" unicode="&#x14c;" horiz-adv-x="818"
                   d="M482 709q85 0 149 -30t96.5 -80t45.5 -115t-2 -134q-13 -71 -46.5 -134.5t-85.5 -114.5t-125.5 -81t-157.5 -30q-143 0 -218.5 87t-75.5 215q0 73 27 145t77 134t132.5 100t183.5 38zM739 350q16 90 -5 162.5t-87.5 119t-170.5 46.5q-87 0 -161 -33.5t-121 -88
t-73 -121.5t-26 -136q0 -75 26 -136t88 -101.5t152 -40.5q149 0 252.5 97.5t125.5 231.5zM358 806l5 29h291l-5 -29h-291z"/>
            <glyph glyph-name="omacron" unicode="&#x14d;" horiz-adv-x="605"
                   d="M39 203q0 133 89.5 216t209.5 83q91 0 151 -58.5t60 -154.5q0 -133 -90 -214t-210 -81q-91 0 -150.5 56t-59.5 153zM519 285q0 86 -51.5 137t-134.5 51q-104 0 -184 -74t-80 -191q0 -86 50.5 -135.5t134.5 -49.5q106 0 185.5 72.5t79.5 189.5zM242 640l5 26h254l-5 -26
h-254z"/>
            <glyph glyph-name="Obreve" unicode="&#x14e;" horiz-adv-x="818"
                   d="M482 709q85 0 149 -30t96.5 -80t45.5 -115t-2 -134q-13 -71 -46.5 -134.5t-85.5 -114.5t-125.5 -81t-157.5 -30q-143 0 -218.5 87t-75.5 215q0 73 27 145t77 134t132.5 100t183.5 38zM739 350q16 90 -5 162.5t-87.5 119t-170.5 46.5q-87 0 -161 -33.5t-121 -88
t-73 -121.5t-26 -136q0 -75 26 -136t88 -101.5t152 -40.5q149 0 252.5 97.5t125.5 231.5zM408 882h24q-11 -76 75 -76q40 0 67.5 20t35.5 56h24q-9 -50 -45 -75.5t-86 -25.5q-49 0 -76 26.5t-19 74.5z"/>
            <glyph glyph-name="obreve" unicode="&#x14f;" horiz-adv-x="605"
                   d="M39 203q0 133 89.5 216t209.5 83q91 0 151 -58.5t60 -154.5q0 -133 -90 -214t-210 -81q-91 0 -150.5 56t-59.5 153zM519 285q0 86 -51.5 137t-134.5 51q-104 0 -184 -74t-80 -191q0 -86 50.5 -135.5t134.5 -49.5q106 0 185.5 72.5t79.5 189.5zM263 691h24q-11 -76 75 -76
q40 0 67.5 20t35.5 56h24q-9 -50 -45 -75.5t-86 -25.5q-49 0 -76 26.5t-19 74.5z"/>
            <glyph glyph-name="Ohungarumlaut" unicode="&#x150;" horiz-adv-x="818"
                   d="M482 709q85 0 149 -30t96.5 -80t45.5 -115t-2 -134q-13 -71 -46.5 -134.5t-85.5 -114.5t-125.5 -81t-157.5 -30q-143 0 -218.5 87t-75.5 215q0 73 27 145t77 134t132.5 100t183.5 38zM739 350q16 90 -5 162.5t-87.5 119t-170.5 46.5q-87 0 -161 -33.5t-121 -88
t-73 -121.5t-26 -136q0 -75 26 -136t88 -101.5t152 -40.5q149 0 252.5 97.5t125.5 231.5zM439 774h-31l84 100h38zM562 774h-31l84 100h38z"/>
            <glyph glyph-name="ohungarumlaut" unicode="&#x151;" horiz-adv-x="605"
                   d="M39 203q0 133 89.5 216t209.5 83q91 0 151 -58.5t60 -154.5q0 -133 -90 -214t-210 -81q-91 0 -150.5 56t-59.5 153zM519 285q0 86 -51.5 137t-134.5 51q-104 0 -184 -74t-80 -191q0 -86 50.5 -135.5t134.5 -49.5q106 0 185.5 72.5t79.5 189.5zM303 591h-31l84 100h38z
M426 591h-31l84 100h38z"/>
            <glyph glyph-name="OE" unicode="&#x152;" horiz-adv-x="934"
                   d="M832 0h-414q-28 -3 -58 -3q-154 0 -233.5 90.5t-61.5 245.5q18 159 129.5 266t289.5 104q34 0 60 -3h389l-5 -26h-364l-52 -299h343l-5 -27h-343l-57 -321h387zM423 28l114 646q-40 2 -58 2q-155 0 -255 -89.5t-124 -233.5t43 -235.5t221 -91.5q19 0 59 2z"/>
            <glyph glyph-name="oe" unicode="&#x153;" horiz-adv-x="1055"
                   d="M925 110l20 -17q-43 -47 -105.5 -72t-125.5 -25q-80 0 -133.5 41t-65.5 117q-39 -76 -111.5 -118t-154.5 -42q-91 0 -150.5 56t-59.5 153q0 132 90.5 215.5t210.5 83.5q79 0 135 -46.5t67 -120.5q37 76 107 120.5t153 44.5q52 0 94.5 -15t74 -47.5t39.5 -83t-10 -122.5
h-460q-10 -104 41.5 -155.5t137.5 -51.5q55 0 112.5 23t93.5 62zM518 285q0 86 -51.5 137t-132.5 51q-104 0 -184.5 -74t-80.5 -191q0 -86 50.5 -135.5t134.5 -49.5q105 0 184.5 72.5t79.5 189.5zM545 260h433q21 101 -28.5 156t-153.5 55q-89 0 -158 -56t-93 -155z"/>
            <glyph glyph-name="Racute" unicode="&#x154;" horiz-adv-x="693"
                   d="M551 0l-204 277h-215l-48 -277h-32l123 700h302q91 0 139.5 -53t48.5 -128q0 -104 -68.5 -172.5t-209.5 -69.5l207 -277h-43zM138 307h253q117 0 179.5 58t62.5 150q0 68 -41.5 111.5t-119.5 43.5h-270zM419 769h-30l1 3l82 118h38z"/>
            <glyph glyph-name="racute" unicode="&#x155;" horiz-adv-x="391"
                   d="M120 494h29l-9 -54l-13 -62q27 56 81.5 88t116.5 32q52 0 92 -24l-17 -24q-32 20 -80 20q-73 -1 -132.5 -53.5t-71.5 -121.5l-52 -295h-31zM276 592h-27l1 3l75 108h34z"/>
            <glyph glyph-name="Rcommaaccent" unicode="&#x156;" horiz-adv-x="693"
                   d="M551 0l-204 277h-215l-48 -277h-32l123 700h302q91 0 139.5 -53t48.5 -128q0 -104 -68.5 -172.5t-209.5 -69.5l207 -277h-43zM138 307h253q117 0 179.5 58t62.5 150q0 68 -41.5 111.5t-119.5 43.5h-270zM219 -218l40 76q-14 3 -14 19q0 26 25 32q22 5 29 -12q2 -5 2 -10
t-13 -31l-40 -74h-29z"/>
            <glyph glyph-name="rcommaaccent" unicode="&#x157;" horiz-adv-x="391"
                   d="M120 494h29l-9 -54l-13 -62q27 56 81.5 88t116.5 32q52 0 92 -24l-17 -24q-32 20 -80 20q-73 -1 -132.5 -53.5t-71.5 -121.5l-52 -295h-31zM-24 -218l40 76q-14 3 -14 19q0 26 25 32q22 5 29 -12q2 -5 2 -10t-13 -31l-40 -74h-29z"/>
            <glyph glyph-name="Rcaron" unicode="&#x158;" horiz-adv-x="693"
                   d="M551 0l-204 277h-215l-48 -277h-32l123 700h302q91 0 139.5 -53t48.5 -128q0 -104 -68.5 -172.5t-209.5 -69.5l207 -277h-43zM138 307h253q117 0 179.5 58t62.5 150q0 68 -41.5 111.5t-119.5 43.5h-270zM404 766l-114 124l1 4h29l99 -104l133 104h33l-1 -4l-155 -124h-25
z"/>
            <glyph glyph-name="rcaron" unicode="&#x159;" horiz-adv-x="391"
                   d="M120 494h29l-9 -54l-13 -62q27 56 81.5 88t116.5 32q52 0 92 -24l-17 -24q-32 20 -80 20q-73 -1 -132.5 -53.5t-71.5 -121.5l-52 -295h-31zM263 574l-99 123l1 3h25l86 -101l116 101h28v-3l-135 -123h-22z"/>
            <glyph glyph-name="Sacute" unicode="&#x15a;" horiz-adv-x="652"
                   d="M630 604l-25 -19q-51 91 -217 91q-34 0 -69.5 -6t-79 -22t-72.5 -51.5t-32 -85.5q-2 -27 10 -48t25.5 -33t46.5 -24t48.5 -15.5t57.5 -12.5q15 -3 23 -5q126 -28 171 -53q83 -46 66 -143q-10 -56 -43 -95t-80.5 -57.5t-90.5 -26t-90 -7.5q-85 0 -158.5 36t-99.5 107
l31 16q22 -63 89.5 -95.5t142.5 -32.5q39 0 76 6t79.5 21.5t73 49t38.5 81.5q7 40 -4.5 67.5t-46.5 45.5t-61 25.5t-80 19.5l-27 6q-5 1 -27 5.5t-30.5 6.5t-30 8t-32 10t-28.5 12t-27 15.5t-21.5 19t-18.5 23.5t-10 28t-4 34q1 55 31 96.5t76 63t92 31.5t91 10
q171 0 237 -103zM412 771h-30l1 3l82 118h38z"/>
            <glyph glyph-name="sacute" unicode="&#x15b;" horiz-adv-x="502"
                   d="M461 436l-22 -21q-51 58 -155 58q-81 0 -132.5 -28.5t-51.5 -87.5q0 -17 8 -30.5t17.5 -21.5t28.5 -15t30.5 -9.5t35 -7t29.5 -5.5q4 -1 23 -5t25.5 -5t24 -5.5t24.5 -7.5t21.5 -9t21 -11.5t16 -14t13.5 -17.5t7.5 -20.5t3.5 -25.5q0 -74 -58 -113.5t-144 -39.5
q-156 0 -220 101l25 19q52 -90 189 -92q74 -1 126 30.5t52 92.5q0 10 -3 19t-6.5 16t-11.5 13.5t-14 11t-18 9t-19 7t-21.5 6t-21.5 4.5t-23.5 4.5t-22.5 4.5q-40 8 -63.5 14.5t-51 19.5t-40.5 33t-13 49q0 73 63 109t154 36q116 0 174 -65zM311 588h-28l1 3l77 112h36z"/>
            <glyph glyph-name="Scircumflex" unicode="&#x15c;" horiz-adv-x="652"
                   d="M630 604l-25 -19q-51 91 -217 91q-34 0 -69.5 -6t-79 -22t-72.5 -51.5t-32 -85.5q-2 -27 10 -48t25.5 -33t46.5 -24t48.5 -15.5t57.5 -12.5q15 -3 23 -5q126 -28 171 -53q83 -46 66 -143q-10 -56 -43 -95t-80.5 -57.5t-90.5 -26t-90 -7.5q-85 0 -158.5 36t-99.5 107
l31 16q22 -63 89.5 -95.5t142.5 -32.5q39 0 76 6t79.5 21.5t73 49t38.5 81.5q7 40 -4.5 67.5t-46.5 45.5t-61 25.5t-80 19.5l-27 6q-5 1 -27 5.5t-30.5 6.5t-30 8t-32 10t-28.5 12t-27 15.5t-21.5 19t-18.5 23.5t-10 28t-4 34q1 55 31 96.5t76 63t92 31.5t91 10
q171 0 237 -103zM446 907l122 -134l-1 -4h-33l-101 112l-139 -112h-38l1 4l167 134h22z"/>
            <glyph glyph-name="scircumflex" unicode="&#x15d;" horiz-adv-x="502"
                   d="M461 436l-22 -21q-51 58 -155 58q-81 0 -132.5 -28.5t-51.5 -87.5q0 -17 8 -30.5t17.5 -21.5t28.5 -15t30.5 -9.5t35 -7t29.5 -5.5q4 -1 23 -5t25.5 -5t24 -5.5t24.5 -7.5t21.5 -9t21 -11.5t16 -14t13.5 -17.5t7.5 -20.5t3.5 -25.5q0 -74 -58 -113.5t-144 -39.5
q-156 0 -220 101l25 19q52 -90 189 -92q74 -1 126 30.5t52 92.5q0 10 -3 19t-6.5 16t-11.5 13.5t-14 11t-18 9t-19 7t-21.5 6t-21.5 4.5t-23.5 4.5t-22.5 4.5q-40 8 -63.5 14.5t-51 19.5t-40.5 33t-13 49q0 73 63 109t154 36q116 0 174 -65zM339 701l112 -123l-1 -4h-30
l-93 103l-127 -103h-35l1 4l153 123h20z"/>
            <glyph glyph-name="Scedilla" unicode="&#x15e;" horiz-adv-x="653"
                   d="M630 604l-25 -19q-51 91 -217 91q-34 0 -69.5 -6t-79 -22t-72.5 -51.5t-32 -85.5q-2 -27 10 -48t25.5 -33t46.5 -24t48.5 -15.5t57.5 -12.5q15 -3 23 -5q126 -28 171 -53q83 -46 66 -143q-9 -52 -38.5 -89.5t-72.5 -57t-83.5 -28t-85.5 -10.5l-18 -47q59 4 80 -25.5
t1 -67.5q-29 -60 -109 -62q-73 0 -93 49l23 17q23 -39 75 -39q56 0 76 42q15 31 -6.5 50.5t-82.5 9.5l-1 1l28 71q-54 1 -103.5 15t-92 47t-59.5 81l31 16q22 -63 89.5 -95.5t142.5 -32.5q39 0 76 6t79.5 21.5t73 49t38.5 81.5q7 40 -4.5 67.5t-46.5 45.5t-61 25.5t-80 19.5
l-27 6q-5 1 -27 5.5t-30.5 6.5t-30 8t-32 10t-28.5 12t-27 15.5t-21.5 19t-18.5 23.5t-10 28t-4 34q1 55 31 96.5t76 63t92 31.5t91 10q171 0 237 -103z"/>
            <glyph glyph-name="scedilla" unicode="&#x15f;" horiz-adv-x="502"
                   d="M461 436l-22 -21q-51 58 -155 58q-81 0 -132.5 -28.5t-51.5 -87.5q0 -17 8 -30.5t17.5 -21.5t28.5 -15t30.5 -9.5t35 -7t29.5 -5.5q4 -1 23 -5t25.5 -5t24 -5.5t24.5 -7.5t21.5 -9t21 -11.5t16 -14t13.5 -17.5t7.5 -20.5t3.5 -25.5q0 -74 -58 -113.5t-144 -39.5h-6
l-16 -39q50 2 68 -24.5t3 -59.5q-24 -53 -97 -55q-59 0 -80 46l20 13q21 -35 64 -35q49 0 68 38q14 27 -5 44.5t-73 9.5l-1 1l23 62q-130 8 -188 100l24 18q53 -91 188 -93q74 -1 127 31.5t53 93.5q0 10 -3 19t-6.5 16t-11.5 13.5t-14 11t-18 9t-19 7t-21.5 6t-21.5 4.5
t-23.5 4.5t-22.5 4.5q-40 8 -63.5 14.5t-51 19.5t-40.5 33t-13 49q0 73 63 109t154 36q116 0 174 -65z"/>
            <glyph glyph-name="Scaron" unicode="&#x160;" horiz-adv-x="652"
                   d="M630 604l-25 -19q-51 91 -217 91q-34 0 -69.5 -6t-79 -22t-72.5 -51.5t-32 -85.5q-2 -27 10 -48t25.5 -33t46.5 -24t48.5 -15.5t57.5 -12.5q15 -3 23 -5q126 -28 171 -53q83 -46 66 -143q-10 -56 -43 -95t-80.5 -57.5t-90.5 -26t-90 -7.5q-85 0 -158.5 36t-99.5 107
l31 16q22 -63 89.5 -95.5t142.5 -32.5q39 0 76 6t79.5 21.5t73 49t38.5 81.5q7 40 -4.5 67.5t-46.5 45.5t-61 25.5t-80 19.5l-27 6q-5 1 -27 5.5t-30.5 6.5t-30 8t-32 10t-28.5 12t-27 15.5t-21.5 19t-18.5 23.5t-10 28t-4 34q1 55 31 96.5t76 63t92 31.5t91 10
q171 0 237 -103zM400 772l-119 131l1 4h30l104 -109l139 109h34l-1 -4l-162 -131h-26z"/>
            <glyph glyph-name="scaron" unicode="&#x161;" horiz-adv-x="502"
                   d="M461 436l-22 -21q-51 58 -155 58q-81 0 -132.5 -28.5t-51.5 -87.5q0 -17 8 -30.5t17.5 -21.5t28.5 -15t30.5 -9.5t35 -7t29.5 -5.5q4 -1 23 -5t25.5 -5t24 -5.5t24.5 -7.5t21.5 -9t21 -11.5t16 -14t13.5 -17.5t7.5 -20.5t3.5 -25.5q0 -74 -58 -113.5t-144 -39.5
q-156 0 -220 101l25 19q52 -90 189 -92q74 -1 126 30.5t52 92.5q0 10 -3 19t-6.5 16t-11.5 13.5t-14 11t-18 9t-19 7t-21.5 6t-21.5 4.5t-23.5 4.5t-22.5 4.5q-40 8 -63.5 14.5t-51 19.5t-40.5 33t-13 49q0 73 63 109t154 36q116 0 174 -65zM289 580l-110 120l1 4h28
l95 -100l128 100h31l-1 -4l-148 -120h-24z"/>
            <glyph glyph-name="Tcommaaccent" unicode="&#x162;" horiz-adv-x="583"
                   d="M195 -73l-1 1l28 73l118 668h-262l5 31h557l-5 -31h-263l-118 -669h-7l-20 -49q67 -1 81 -45q12 -38 -24 -71q-31 -29 -83 -29q-29 0 -52 12t-32 34l21 15q21 -36 67 -36q52 0 71 34q16 29 -10 50q-24 17 -71 12z"/>
            <glyph glyph-name="tcommaaccent" unicode="&#x163;" horiz-adv-x="368"
                   d="M200 643l30 3l-26 -152h176l-5 -26h-176l-57 -321q-11 -63 2.5 -94.5t73.5 -31.5q38 0 94 25l8 -25q-58 -28 -105 -28q-11 0 -16 1l-19 -48q52 4 70.5 -23t1.5 -61q-27 -54 -98 -56q-64 0 -82 44l21 15q22 -35 66 -35q49 0 68 39q13 27 -6 44.5t-72 9.5l-1 1l27 73
q-49 10 -62 47t-1 103l57 321h-108l5 26h108z"/>
            <glyph glyph-name="Tcaron" unicode="&#x164;" horiz-adv-x="583"
                   d="M78 669l5 31h557l-5 -31h-263l-118 -669h-32l118 669h-262zM354 757l-119 131l1 4h30l104 -109l139 109h34l-1 -4l-162 -131h-26z"/>
            <glyph glyph-name="tcaron" unicode="&#x165;" horiz-adv-x="381"
                   d="M200 643l30 3l-26 -152h120l-5 -26h-120l-57 -321q-11 -63 2.5 -94.5t73.5 -31.5q38 0 94 25l8 -25q-58 -28 -105 -28q-74 1 -95.5 38.5t-7.5 115.5l57 321h-108l5 26h108zM398 506h-27l66 146h33z"/>
            <glyph glyph-name="Tbar" unicode="&#x166;" horiz-adv-x="594"
                   d="M155 344l5 28h133l52 297h-262l5 31h557l-5 -31h-263l-52 -297h138l-5 -28h-138l-61 -344h-32l61 344h-133z"/>
            <glyph glyph-name="tbar" unicode="&#x167;" horiz-adv-x="368"
                   d="M200 643l30 3l-27 -152h176l-4 -26h-176l-32 -183h128l-5 -26h-128l-20 -112q-11 -63 2.5 -94.5t73.5 -31.5q39 0 93 25l9 -25q-58 -28 -105 -28q-74 1 -95.5 38.5t-7.5 115.5l20 112h-81l5 26h81l32 183h-108l4 26h108z"/>
            <glyph glyph-name="Utilde" unicode="&#x168;" horiz-adv-x="707"
                   d="M651 700h32l-78 -443q-23 -129 -111 -197t-195 -68q-51 0 -93.5 16.5t-73 48t-43 83.5t-0.5 117l78 443h32l-78 -443q-21 -116 32 -175.5t147 -59.5q95 0 174 60t99 175zM428 825l42 -20q25 -14 41.5 -10t27.5 35l22 -6q-24 -83 -103 -44l-41 19q-57 29 -74 -26l-20 6
q7 37 37.5 50.5t67.5 -4.5z"/>
            <glyph glyph-name="utilde" unicode="&#x169;"
                   d="M550 494l-87 -494h-30l21 112q-38 -61 -97.5 -90.5t-119.5 -30.5q-102 0 -147.5 56t-28.5 156l51 291h31l-51 -290q-17 -92 20.5 -138.5t129.5 -45.5q81 1 147.5 56.5t80.5 136.5l50 281h30zM347 690l42 -20q25 -14 41.5 -10t27.5 35l22 -6q-24 -83 -103 -44l-41 19
q-57 29 -74 -26l-20 6q7 37 37.5 50.5t67.5 -4.5z"/>
            <glyph glyph-name="Umacron" unicode="&#x16a;" horiz-adv-x="707"
                   d="M651 700h32l-78 -443q-23 -129 -111 -197t-195 -68q-51 0 -93.5 16.5t-73 48t-43 83.5t-0.5 117l78 443h32l-78 -443q-21 -116 32 -175.5t147 -59.5q95 0 174 60t99 175zM319 773l4 27h245l-4 -27h-245z"/>
            <glyph glyph-name="umacron" unicode="&#x16b;"
                   d="M550 494l-87 -494h-30l21 112q-38 -61 -97.5 -90.5t-119.5 -30.5q-102 0 -147.5 56t-28.5 156l51 291h31l-51 -290q-17 -92 20.5 -138.5t129.5 -45.5q81 1 147.5 56.5t80.5 136.5l50 281h30zM233 660l5 27h250l-5 -27h-250z"/>
            <glyph glyph-name="Ubreve" unicode="&#x16c;" horiz-adv-x="707"
                   d="M651 700h32l-78 -443q-23 -129 -111 -197t-195 -68q-51 0 -93.5 16.5t-73 48t-43 83.5t-0.5 117l78 443h32l-78 -443q-21 -116 32 -175.5t147 -59.5q95 0 174 60t99 175zM344 860h24q-11 -76 75 -76q40 0 67.5 20t35.5 56h24q-9 -50 -45 -75.5t-86 -25.5q-49 0 -76 26.5
t-19 74.5z"/>
            <glyph glyph-name="ubreve" unicode="&#x16d;"
                   d="M550 494l-87 -494h-30l21 112q-38 -61 -97.5 -90.5t-119.5 -30.5q-102 0 -147.5 56t-28.5 156l51 291h31l-51 -290q-17 -92 20.5 -138.5t129.5 -45.5q81 1 147.5 56.5t80.5 136.5l50 281h30zM267 700h24q-11 -76 75 -76q40 0 67.5 20t35.5 56h24q-9 -50 -45 -75.5
t-86 -25.5q-49 0 -76 26.5t-19 74.5z"/>
            <glyph glyph-name="Uring" unicode="&#x16e;" horiz-adv-x="707"
                   d="M651 700h32l-78 -443q-23 -129 -111 -197t-195 -68q-51 0 -93.5 16.5t-73 48t-43 83.5t-0.5 117l78 443h32l-78 -443q-21 -116 32 -175.5t147 -59.5q95 0 174 60t99 175zM509 834q0 23 -16.5 36.5t-39.5 13.5q-30 0 -55 -19t-25 -51q0 -24 16.5 -37t40.5 -13q31 0 55 19
t24 51zM535 837q0 -44 -33 -70t-76 -26q-33 0 -55.5 18t-22.5 50q0 45 33 71t76 26q33 0 55.5 -18.5t22.5 -50.5z"/>
            <glyph glyph-name="uring" unicode="&#x16f;"
                   d="M550 494l-87 -494h-30l21 112q-38 -61 -97.5 -90.5t-119.5 -30.5q-102 0 -147.5 56t-28.5 156l51 291h31l-51 -290q-17 -92 20.5 -138.5t129.5 -45.5q81 1 147.5 56.5t80.5 136.5l50 281h30zM424 644q0 23 -17 36.5t-40 13.5q-31 0 -56 -19t-25 -51q0 -24 16.5 -37
t40.5 -13q32 0 56.5 19t24.5 51zM451 647q0 -44 -34 -70t-78 -26q-33 0 -55.5 18t-22.5 50q0 45 33.5 71t76.5 26q34 0 57 -18.5t23 -50.5z"/>
            <glyph glyph-name="Uhungarumlaut" unicode="&#x170;" horiz-adv-x="707"
                   d="M651 700h32l-78 -443q-23 -129 -111 -197t-195 -68q-51 0 -93.5 16.5t-73 48t-43 83.5t-0.5 117l78 443h32l-78 -443q-21 -116 32 -175.5t147 -59.5q95 0 174 60t99 175zM372 767h-31l84 100h38zM495 767h-31l84 100h38z"/>
            <glyph glyph-name="uhungarumlaut" unicode="&#x171;"
                   d="M550 494l-87 -494h-30l21 112q-38 -61 -97.5 -90.5t-119.5 -30.5q-102 0 -147.5 56t-28.5 156l51 291h31l-51 -290q-17 -92 20.5 -138.5t129.5 -45.5q81 1 147.5 56.5t80.5 136.5l50 281h30zM295 601h-31l84 100h38zM418 601h-31l84 100h38z"/>
            <glyph glyph-name="Uogonek" unicode="&#x172;" horiz-adv-x="708"
                   d="M653 700h32l-78 -443q-18 -98 -79.5 -163t-142.5 -90q-32 -13 -44 -39t-3 -49q16 -40 69 -37q28 1 60 17t53 45l23 -13q-21 -35 -59.5 -55.5t-78.5 -22.5q-76 -1 -98 50q-8 20 -1 47t26 46q-112 -13 -188 58.5t-53 205.5l78 443h32l-78 -443q-20 -111 34.5 -173.5
t142.5 -62.5q89 0 172 63t103 173z"/>
            <glyph glyph-name="uogonek" unicode="&#x173;" horiz-adv-x="599"
                   d="M487 -107l11 -21q-44 -47 -106 -50q-80 -3 -90 52q-7 41 27.5 74t99.5 34l25 128q-33 -52 -91.5 -84.5t-112.5 -33.5q-103 0 -155 56.5t-35 155.5l51 290h31l-51 -289q-15 -89 28.5 -137t131.5 -47q81 1 142 56.5t75 137.5l49 279h32l-94 -533q-71 3 -103 -23.5
t-25 -55.5q8 -37 66 -34q54 2 94 45z"/>
            <glyph glyph-name="Wcircumflex" unicode="&#x174;" horiz-adv-x="1080"
                   d="M237 -2l-127 702h34l114 -662l339 662h20l113 -653l341 653h35l-370 -702h-26l-114 636l-329 -636h-30zM652 895l122 -134l-1 -4h-33l-101 112l-139 -112h-38l1 4l167 134h22z"/>
            <glyph glyph-name="wcircumflex" unicode="&#x175;" horiz-adv-x="811"
                   d="M166 0l-90 494h34l77 -454l243 454h17l79 -454l238 454h34l-263 -494h-32l-75 433l-230 -433h-32zM486 701l119 -131l-1 -4h-32l-99 110l-136 -110h-37l1 4l163 131h22z"/>
            <glyph glyph-name="Ycircumflex" unicode="&#x176;" horiz-adv-x="650"
                   d="M254 0l49 278l-201 422h37l183 -394l322 394h39l-348 -422l-49 -278h-32zM441 907l122 -134l-1 -4h-33l-101 112l-139 -112h-38l1 4l167 134h22z"/>
            <glyph glyph-name="ycircumflex" unicode="&#x177;" horiz-adv-x="599"
                   d="M456 112q-38 -61 -98.5 -90.5t-120.5 -30.5q-102 0 -147.5 56t-28.5 156l51 291h30l-51 -290q-16 -91 22.5 -137.5t128.5 -46.5q81 0 147.5 56t80.5 137l50 281h30l-92 -521q-18 -109 -86.5 -167.5t-169.5 -58.5q-98 0 -144 45.5t-38 119.5h28q-6 -65 32.5 -100.5
t126.5 -35.5q84 0 144.5 50t77.5 147zM387 707l116 -127l-1 -4h-32l-95 106l-132 -106h-36l1 4l158 127h21z"/>
            <glyph glyph-name="Ydieresis" unicode="&#x178;" horiz-adv-x="650"
                   d="M254 0l49 278l-201 422h37l183 -394l322 394h39l-348 -422l-49 -278h-32zM273 781q0 15 10.5 24t23.5 9q10 0 16.5 -6t6.5 -17q0 -16 -10 -24.5t-23 -8.5q-10 0 -17 6t-7 17zM478 781q0 15 10.5 24t23.5 9q10 0 16.5 -6t6.5 -17q0 -16 -10 -24.5t-23 -8.5q-10 0 -17 6
t-7 17z"/>
            <glyph glyph-name="Zacute" unicode="&#x179;" horiz-adv-x="577"
                   d="M121 672l5 28h490l-1 -8l-594 -663h477l-5 -29h-527l1 10l593 662h-439zM378 760h-30l1 3l82 118h38z"/>
            <glyph glyph-name="zacute" unicode="&#x17a;" horiz-adv-x="450"
                   d="M73 466l5 28h367l-1 -10l-417 -457h345l-5 -27h-391l2 9l411 457h-316zM278 584h-28l1 3l76 116h35z"/>
            <glyph glyph-name="Zdotaccent" unicode="&#x17b;" horiz-adv-x="577"
                   d="M121 672l5 28h490l-1 -8l-594 -663h477l-5 -29h-527l1 10l593 662h-439zM359 821q0 18 11.5 27.5t26.5 9.5q26 0 26 -26q0 -17 -11.5 -26.5t-26.5 -9.5q-26 0 -26 25z"/>
            <glyph glyph-name="zdotaccent" unicode="&#x17c;" horiz-adv-x="450"
                   d="M73 466l5 28h367l-1 -10l-417 -457h345l-5 -27h-391l2 9l411 457h-316zM272 646q0 18 11.5 27.5t26.5 9.5q26 0 26 -26q0 -17 -11.5 -26.5t-26.5 -9.5q-26 0 -26 25z"/>
            <glyph glyph-name="Zcaron" unicode="&#x17d;" horiz-adv-x="577"
                   d="M121 672l5 28h490l-1 -8l-594 -663h477l-5 -29h-527l1 10l593 662h-439zM387 769l-119 131l1 4h30l104 -109l139 109h34l-1 -4l-162 -131h-26z"/>
            <glyph glyph-name="zcaron" unicode="&#x17e;" horiz-adv-x="450"
                   d="M73 466l5 28h367l-1 -10l-417 -457h345l-5 -27h-391l2 9l411 457h-316zM275 578l-106 118l1 3h27l93 -97l125 97h30l-1 -3l-145 -118h-24z"/>
            <glyph glyph-name="longs" unicode="&#x17f;" horiz-adv-x="268"
                   d="M111 0h-30l82 464h-103l5 27h103l8 47q27 163 168 163q48 0 84 -33l-23 -22q-37 25 -72 25q-104 0 -127 -133z"/>
            <glyph glyph-name="florin" unicode="&#x192;" horiz-adv-x="422"
                   d="M148 0q-13 -75 -42.5 -114.5t-100.5 -42.5q-49 0 -85 33l21 21q12 -11 19 -15.5t19.5 -7.5t30.5 -3q46 2 70.5 30.5t37.5 98.5l82 464h-116l5 29h116l9 53q13 74 50 115t113 41q56 0 88 -32l-22 -21q-29 25 -72 25q-53 0 -84 -28.5t-43 -99.5l-9 -53h168l-5 -29h-168z
"/>
            <glyph glyph-name="Aringacute" unicode="&#x1fa;" horiz-adv-x="733"
                   d="M444 870l1 3l83 79h36v-1l-92 -81h-28zM548 762q-1 -67 -83 -85l185 -677h-35l-50 182h-431l-112 -182h-38l426 681q-23 7 -38.5 26t-15.5 44q0 52 48.5 75t96.5 4t47 -68zM152 213h406l-122 457zM521 762q0 21 -14 34.5t-34.5 15.5t-41 -2t-34.5 -19t-14 -35
q0 -24 15.5 -39t40.5 -17q32 -2 57 13t25 49z"/>
            <glyph glyph-name="aringacute" unicode="&#x1fb;" horiz-adv-x="632"
                   d="M392 742l1 3l86 87h35l-96 -90h-26zM495 0h-30l11 63l17 63q-36 -67 -103.5 -100t-139.5 -32q-92 0 -151 57t-59 153q0 133 88.5 214.5t208.5 81.5q72 0 130.5 -41t64.5 -107l10 82l10 60h30zM331 471q-107 0 -184 -71t-77 -191q0 -87 50.5 -136.5t135.5 -49.5
q123 0 191 80.5t68 186.5q0 80 -47 130.5t-137 50.5zM452 637q0 24 -16.5 37.5t-39.5 13.5q-29 0 -53.5 -19.5t-24.5 -51.5q0 -24 15.5 -37t39.5 -13q31 0 55 19t24 51zM478 640q0 -44 -33 -70t-76 -26q-32 0 -54 18t-22 50q0 46 32.5 72t74.5 26q34 0 56 -18.5t22 -51.5z
"/>
            <glyph glyph-name="AEacute" unicode="&#x1fc;" horiz-adv-x="911"
                   d="M219 302h234l67 372zM-60 0l565 700h409l-5 -29h-360l-53 -302h337l-5 -30h-337l-54 -309h376l-6 -30h-407l48 274h-248l-222 -274h-38zM570 758h-30l1 3l82 118h38z"/>
            <glyph glyph-name="aeacute" unicode="&#x1fd;" horiz-adv-x="1048"
                   d="M689 702l-1 -1zM689 696l-98 -109h-26v4l88 105h36zM495 0h-28l11 63l16 69q-35 -68 -104.5 -103.5t-140.5 -34.5q-92 0 -151 57t-59 153q0 129 89 212.5t208 83.5q74 0 132 -39t64 -108l10 81l10 60h28l-22 -124q41 61 103 95.5t133 34.5q52 0 94.5 -15t74.5 -47.5
t40 -83t-10 -122.5h-459q-10 -101 41.5 -154t136.5 -53q55 0 112.5 23t93.5 62l20 -17q-43 -47 -106 -72t-126 -25q-69 0 -120 34t-69 93zM330 471q-106 0 -183.5 -73t-77.5 -189q0 -86 52 -136t134 -50q104 0 170.5 63t84.5 160q16 101 -30 163t-150 62zM539 260h432
q21 102 -27 156.5t-155 54.5q-89 0 -157.5 -56t-92.5 -155z"/>
            <glyph glyph-name="Oslashacute" unicode="&#x1fe;" horiz-adv-x="819"
                   d="M510 788h-30l1 3l82 118h38zM482 709q109 0 182 -49l77 98h36l-90 -115q57 -48 78 -126t10 -167q-18 -146 -134.5 -253t-284.5 -107q-89 0 -153 33l-81 -104h-35l92 118q-57 38 -87 106.5t-30 148.5q0 73 27.5 145.5t77.5 133.5t132.5 99.5t182.5 38.5zM95 298
q0 -164 104 -234l445 571q-65 43 -167 43q-87 0 -161 -33.5t-121.5 -88t-73.5 -122t-26 -136.5zM746 406q0 143 -80 211l-442 -567q56 -29 138 -29q113 0 202.5 57t135.5 144t46 184z"/>
            <glyph glyph-name="oslashacute" unicode="&#x1ff;" horiz-adv-x="605"
                   d="M361 590h-28l1 3l77 110h35zM50 -51l66 84q-76 53 -76 170q0 133 90 216.5t210 83.5q66 0 118 -29l48 62h35l-61 -79q69 -57 69 -168q0 -133 -90 -214t-210 -81q-66 0 -110 24l-55 -69h-34zM135 57l302 392q-45 24 -103 24q-104 0 -184 -74.5t-80 -191.5q0 -102 65 -150z
M461 434l-301 -389q35 -19 95 -19q106 0 185 71t79 188q0 99 -58 149z"/>
            <glyph glyph-name="Scommaaccent" unicode="&#x218;" horiz-adv-x="652"
                   d="M630 604l-25 -19q-51 91 -217 91q-34 0 -69.5 -6t-79 -22t-72.5 -51.5t-32 -85.5q-2 -27 10 -48t25.5 -33t46.5 -24t48.5 -15.5t57.5 -12.5q15 -3 23 -5q126 -28 171 -53q83 -46 66 -143q-10 -56 -43 -95t-80.5 -57.5t-90.5 -26t-90 -7.5q-85 0 -158.5 36t-99.5 107
l31 16q22 -63 89.5 -95.5t142.5 -32.5q39 0 76 6t79.5 21.5t73 49t38.5 81.5q7 40 -4.5 67.5t-46.5 45.5t-61 25.5t-80 19.5l-27 6q-5 1 -27 5.5t-30.5 6.5t-30 8t-32 10t-28.5 12t-27 15.5t-21.5 19t-18.5 23.5t-10 28t-4 34q1 55 31 96.5t76 63t92 31.5t91 10
q171 0 237 -103zM216 -233l40 76q-14 3 -14 19q0 26 25 32q22 5 29 -12q2 -5 2 -10t-13 -31l-40 -74h-29z"/>
            <glyph glyph-name="scommaaccent" unicode="&#x219;" horiz-adv-x="502"
                   d="M126 -233l40 76q-14 3 -14 19q0 26 25 32q22 5 29 -12q2 -5 2 -10t-13 -31l-40 -74h-29zM461 436l-22 -21q-51 58 -155 58q-81 0 -132.5 -28.5t-51.5 -87.5q0 -17 8 -30.5t17.5 -21.5t28.5 -15t30.5 -9.5t35 -7t29.5 -5.5q4 -1 23 -5t25.5 -5t24 -5.5t24.5 -7.5t21.5 -9
t21 -11.5t16 -14t13.5 -17.5t7.5 -20.5t3.5 -25.5q0 -74 -58 -113.5t-144 -39.5q-156 0 -220 101l25 19q52 -90 189 -92q74 -1 126 30.5t52 92.5q0 10 -3 19t-6.5 16t-11.5 13.5t-14 11t-18 9t-19 7t-21.5 6t-21.5 4.5t-23.5 4.5t-22.5 4.5q-40 8 -63.5 14.5t-51 19.5
t-40.5 33t-13 49q0 73 63 109t154 36q116 0 174 -65z"/>
            <glyph glyph-name="uni021A" unicode="&#x21a;" horiz-adv-x="583"
                   d="M160 -233l40 76q-14 3 -14 19q0 26 25 32q22 5 29 -12q2 -5 2 -10t-13 -31l-40 -74h-29zM78 669l5 31h557l-5 -31h-263l-118 -669h-32l118 669h-262z"/>
            <glyph glyph-name="uni021B" unicode="&#x21b;" horiz-adv-x="368"
                   d="M109 -235l40 76q-14 3 -14 19q0 26 25 32q22 5 29 -12q2 -5 2 -10t-13 -31l-40 -74h-29zM200 643l30 3l-26 -152h176l-5 -26h-176l-57 -321q-6 -37 -7 -65t18.5 -44.5t64.5 -16.5q38 0 94 25l8 -25q-58 -28 -105 -28q-74 1 -95.5 38.5t-7.5 115.5l57 321h-108l5 26h108z
"/>
            <glyph glyph-name="dotlessj" unicode="&#x237;" horiz-adv-x="199"
                   d="M120 495h30l-102 -576q-6 -38 -13 -62.5t-22 -49.5t-42 -37.5t-67 -12.5q-41 0 -83 24l15 27q31 -22 75 -22q30 0 50 9.5t31 32.5t15.5 39.5t10.5 51.5z"/>
            <glyph glyph-name="circumflex" unicode="&#x2c6;" horiz-adv-x="420"
                   d="M331 701l122 -134l-1 -4h-33l-101 112l-139 -112h-38l1 4l167 134h22z"/>
            <glyph glyph-name="caron" unicode="&#x2c7;" horiz-adv-x="404"
                   d="M287 566l-119 131l1 4h30l104 -109l139 109h34l-1 -4l-162 -131h-26z"/>
            <glyph glyph-name="breve" unicode="&#x2d8;" horiz-adv-x="324"
                   d="M169 700h24q-11 -76 75 -76q40 0 67.5 20t35.5 56h24q-9 -50 -45 -75.5t-86 -25.5q-49 0 -76 26.5t-19 74.5z"/>
            <glyph glyph-name="dotaccent" unicode="&#x2d9;" horiz-adv-x="208"
                   d="M185 668q0 18 11.5 27.5t26.5 9.5q26 0 26 -26q0 -17 -11.5 -26.5t-26.5 -9.5q-26 0 -26 25z"/>
            <glyph glyph-name="ring" unicode="&#x2da;" horiz-adv-x="283"
                   d="M315 643q0 26 -17 41t-41 15q-31 0 -56.5 -21.5t-25.5 -56.5q0 -26 16.5 -40.5t41.5 -14.5q32 0 57 21t25 56zM342 647q0 -49 -34.5 -77.5t-78.5 -28.5q-34 0 -57 20t-23 55q0 50 34 78.5t78 28.5q35 0 58 -20t23 -56z"/>
            <glyph glyph-name="ogonek" unicode="&#x2db;" horiz-adv-x="414"
                   d="M254 -101l16 -22q-45 -51 -115 -55q-77 -4 -91 53q-12 52 34.5 90.5t116.5 27.5l11 -23q-40 7 -70 -0.5t-43 -23t-18.5 -31t-2.5 -27.5q11 -43 63 -40q24 1 52 14.5t47 36.5z"/>
            <glyph glyph-name="tilde" unicode="&#x2dc;" horiz-adv-x="307"
                   d="M255 690l42 -20q25 -14 41.5 -10t27.5 35l22 -6q-24 -83 -103 -44l-41 19q-57 29 -74 -26l-20 6q7 37 37.5 50.5t67.5 -4.5z"/>
            <glyph glyph-name="hungarumlaut" unicode="&#x2dd;" horiz-adv-x="331"
                   d="M175 601h-31l84 100h38zM298 601h-31l84 100h38z"/>
            <glyph glyph-name="commaaccentcomb" unicode="&#x326;" horiz-adv-x="265"
                   d="M24 -242l40 76q-14 3 -14 19q0 26 25 32q22 5 29 -12l2 -10q0 -5 -13 -31l-40 -74h-29z"/>
            <glyph glyph-name="_375" unicode="&#x394;" horiz-adv-x="693"
                   d="M474 700l205 -700h-687l449 700h33zM454 666l-410 -636h592z"/>
            <glyph glyph-name="Omega" unicode="&#x3a9;" horiz-adv-x="824"
                   d="M39 0l5 27h160q-68 29 -103.5 99.5t-35.5 159.5q0 78 27 152.5t77.5 135.5t132.5 98.5t183 37.5q147 0 221 -84.5t74 -212.5q0 -124 -70.5 -234.5t-183.5 -151.5h161l-5 -27h-243l5 27q119 22 197.5 113t100.5 208q26 140 -42 236t-220 96t-253 -91.5t-125 -230.5
q-12 -78 1 -144.5t60.5 -118.5t125.5 -68l-5 -27h-245z"/>
            <glyph glyph-name="mu" unicode="&#x3bc;" horiz-adv-x="590"
                   d="M477 0h-28l20 112q-67 -121 -212 -119q-58 0 -108 31.5t-60 83.5l-59 -337h-30l128 724h31l-51 -292q-15 -84 31.5 -132t122.5 -49q78 -1 142 49t82 148l49 276h30z"/>
            <glyph glyph-name="pi" unicode="&#x3c0;" horiz-adv-x="644"
                   d="M114 0h-30l83 466h-118l4 28h593l-4 -28h-119l-59 -334q-11 -64 7 -90.5t86 -17.5l-8 -26q-79 -14 -103.5 24t-11.5 111l59 333h-296z"/>
            <glyph glyph-name="Wgrave" unicode="&#x1e80;" horiz-adv-x="1080"
                   d="M639 767h-28l-64 120h37l56 -117zM237 -2l-127 702h34l114 -662l339 662h20l113 -653l341 653h35l-370 -702h-26l-114 636l-329 -636h-30z"/>
            <glyph glyph-name="wgrave" unicode="&#x1e81;" horiz-adv-x="811"
                   d="M471 581h-26l-60 113h35l52 -110zM166 0l-90 494h34l77 -454l243 454h17l79 -454l238 454h34l-263 -494h-32l-75 433l-230 -433h-32z"/>
            <glyph glyph-name="Wacute" unicode="&#x1e82;" horiz-adv-x="1080"
                   d="M630 782h-30l1 3l82 118h38zM237 -2l-127 702h34l114 -662l339 662h20l113 -653l341 653h35l-370 -702h-26l-114 636l-329 -636h-30z"/>
            <glyph glyph-name="wacute" unicode="&#x1e83;" horiz-adv-x="811"
                   d="M457 585h-28l1 3l77 110h35zM166 0l-90 494h34l77 -454l243 454h17l79 -454l238 454h34l-263 -494h-32l-75 433l-230 -433h-32z"/>
            <glyph glyph-name="Wdieresis" unicode="&#x1e84;" horiz-adv-x="1080"
                   d="M497 824q0 15 10.5 24t23.5 9q10 0 16.5 -6t6.5 -17q0 -16 -10 -24.5t-23 -8.5q-10 0 -17 6t-7 17zM702 824q0 15 10.5 24t23.5 9q10 0 16.5 -6t6.5 -17q0 -16 -10 -24.5t-23 -8.5q-10 0 -17 6t-7 17zM237 -2l-127 702h34l114 -662l339 662h20l113 -653l341 653h35
l-370 -702h-26l-114 636l-329 -636h-30z"/>
            <glyph glyph-name="wdieresis" unicode="&#x1e85;" horiz-adv-x="811"
                   d="M339 652q0 15 10.5 24t23.5 9q10 0 16.5 -6t6.5 -17q0 -16 -10 -24.5t-23 -8.5q-10 0 -17 6t-7 17zM544 652q0 15 10.5 24t23.5 9q10 0 16.5 -6t6.5 -17q0 -16 -10 -24.5t-23 -8.5q-10 0 -17 6t-7 17zM166 0l-90 494h34l77 -454l243 454h17l79 -454l238 454h34l-263 -494
h-32l-75 433l-230 -433h-32z"/>
            <glyph glyph-name="Ygrave" unicode="&#x1ef2;" horiz-adv-x="650"
                   d="M254 0l49 278l-201 422h37l183 -394l322 394h39l-348 -422l-49 -278h-32zM426 761h-28l-64 120h37l56 -117z"/>
            <glyph glyph-name="ygrave" unicode="&#x1ef3;" horiz-adv-x="599"
                   d="M456 112q-38 -61 -98.5 -90.5t-120.5 -30.5q-102 0 -147.5 56t-28.5 156l51 291h30l-51 -290q-16 -91 22.5 -137.5t128.5 -46.5q81 0 147.5 56t80.5 137l50 281h30l-92 -521q-18 -109 -86.5 -167.5t-169.5 -58.5q-98 0 -144 45.5t-38 119.5h28q-6 -65 32.5 -100.5
t126.5 -35.5q84 0 144.5 50t77.5 147zM384 577h-29l-65 122h37l58 -119z"/>
            <glyph glyph-name="endash" unicode="&#x2013;" horiz-adv-x="591"
                   d="M71 273l5 30h440l-5 -30h-440z"/>
            <glyph glyph-name="emdash" unicode="&#x2014;" horiz-adv-x="701"
                   d="M71 273l5 30h550l-5 -30h-550z"/>
            <glyph glyph-name="quoteleft" unicode="&#x2018;" horiz-adv-x="194"
                   d="M182 701h29l-70 -148h-35z"/>
            <glyph glyph-name="quoteright" unicode="&#x2019;" horiz-adv-x="192"
                   d="M136 553h-29l70 148h35z"/>
            <glyph glyph-name="quotesinglbase" unicode="&#x201a;" horiz-adv-x="188"
                   d="M-3 -105h-27l69 147h35z"/>
            <glyph glyph-name="quotedblleft" unicode="&#x201c;" horiz-adv-x="300"
                   d="M288 701h29l-70 -148h-35zM182 701h29l-70 -148h-35z"/>
            <glyph glyph-name="quotedblright" unicode="&#x201d;" horiz-adv-x="298"
                   d="M136 553h-29l70 148h35zM242 553h-29l70 148h35z"/>
            <glyph glyph-name="quotedblbase" unicode="&#x201e;" horiz-adv-x="302"
                   d="M2 -105h-26l71 155h35zM103 -105h-26l71 155h35z"/>
            <glyph glyph-name="dagger" unicode="&#x2020;" horiz-adv-x="543"
                   d="M543 501l-5 -26h-221l-108 -611h-28l108 611h-221l5 26h221l36 205h28l-36 -205h221z"/>
            <glyph glyph-name="daggerdbl" unicode="&#x2021;" horiz-adv-x="589"
                   d="M565 500l-5 -27h-221l-53 -301h221l-5 -27h-221l-49 -279h-28l49 279h-221l5 27h221l53 301h-221l5 27h221l35 200h28l-35 -200h221z"/>
            <glyph glyph-name="bullet" unicode="&#x2022;" horiz-adv-x="366"
                   d="M168 204q-33 0 -53 19t-20 51q0 42 30 69.5t72 27.5q31 0 50.5 -19.5t19.5 -50.5q0 -42 -29.5 -69.5t-69.5 -27.5z"/>
            <glyph glyph-name="ellipsis" unicode="&#x2026;" horiz-adv-x="558"
                   d="M29 19q0 15 10 23.5t23 8.5q9 0 16 -6t7 -16q0 -33 -34 -33q-22 0 -22 23zM207 19q0 15 10 23.5t23 8.5q9 0 16 -6t7 -16q0 -33 -34 -33q-22 0 -22 23zM385 19q0 15 10 23.5t23 8.5q9 0 16 -6t7 -16q0 -33 -34 -33q-22 0 -22 23z"/>
            <glyph glyph-name="perthousand" unicode="&#x2030;" horiz-adv-x="1097"
                   d="M67 0l566 702h34l-566 -702h-34zM531 289q73 0 105.5 -44.5t20.5 -105.5q-13 -62 -59.5 -103t-118.5 -41q-62 0 -94.5 35.5t-32.5 86.5q0 65 49.5 118.5t129.5 53.5zM529 263q-66 0 -106.5 -44.5t-40.5 -97.5q0 -43 24 -70.5t79 -27.5q56 0 94.5 34t48.5 82q10 52 -13 88
t-86 36zM265 708q73 0 105.5 -44.5t20.5 -105.5q-13 -62 -59.5 -103t-118.5 -41q-62 0 -94.5 35.5t-32.5 86.5q0 65 49.5 118.5t129.5 53.5zM263 682q-66 0 -106.5 -44.5t-40.5 -97.5q0 -98 102 -98q56 0 95 34.5t49 81.5q10 52 -13 88t-86 36zM908 289q72 0 105 -44.5
t21 -105.5q-13 -62 -59.5 -103t-118.5 -41q-62 0 -94.5 35.5t-32.5 86.5q0 65 49.5 118.5t129.5 53.5zM906 263q-66 0 -106.5 -44.5t-40.5 -97.5q0 -43 24 -70.5t79 -27.5q56 0 94.5 34t48.5 82q10 52 -13 88t-86 36z"/>
            <glyph glyph-name="guilsinglleft" unicode="&#x2039;" horiz-adv-x="282"
                   d="M154 80l-99 220l176 218h33l-172 -221l95 -217h-33z"/>
            <glyph glyph-name="guilsinglright" unicode="&#x203a;" horiz-adv-x="282"
                   d="M19 75l174 225l-97 213h33l99 -219l-176 -219h-33z"/>
            <glyph glyph-name="fraction" unicode="&#x2044;" horiz-adv-x="140"
                   d="M-150 -2h-32l491 704h33z"/>
            <glyph glyph-name="zerosuperior" unicode="&#x2070;" horiz-adv-x="369"
                   d="M97 597l9 51q13 75 58 116t108 41q64 0 96.5 -40t18.5 -117l-9 -51q-13 -73 -60 -114t-106 -41q-60 0 -94.5 40t-20.5 115zM136 649l-9 -52q-11 -60 16 -93t74 -33q46 0 83 33t48 93l9 52q11 63 -14.5 95t-76.5 32q-49 0 -84 -32.5t-46 -94.5z"/>
            <glyph glyph-name="foursuperior" unicode="&#x2074;" horiz-adv-x="334"
                   d="M305 802h37l-42 -235h48l-5 -29h-48l-15 -89h-30l15 89h-193l-2 21zM113 567h157l35 199z"/>
            <glyph glyph-name="fivesuperior" unicode="&#x2075;" horiz-adv-x="348"
                   d="M145 665h90q64 0 94 -24.5t30 -65.5q0 -53 -40.5 -91.5t-121.5 -38.5q-24 0 -44.5 4.5t-38.5 14.5t-26 30.5t-3 48.5h29q-8 -38 18.5 -54t70.5 -16q69 0 97 30t28 66q0 28 -22.5 48t-74.5 20h-119l29 165h241l-6 -29h-212z"/>
            <glyph glyph-name="sixsuperior" unicode="&#x2076;" horiz-adv-x="361"
                   d="M151 694l-15 -83q21 23 53.5 36t63.5 13q49 0 82.5 -24t33.5 -69q0 -62 -46 -93.5t-107 -31.5q-58 0 -93.5 27t-25.5 82l25 143q10 57 53 85t99 28q55 0 87 -22t29 -65h-29q2 27 -21 43t-71 16q-47 0 -79 -22t-39 -63zM221 471q43 0 80.5 23t37.5 69q0 36 -27.5 52.5
t-63.5 16.5q-37 0 -74.5 -22t-44.5 -59q-7 -41 22 -60.5t70 -19.5z"/>
            <glyph glyph-name="sevensuperior" unicode="&#x2077;" horiz-adv-x="301"
                   d="M109 773l5 29h255l1 -18l-249 -335h-34l243 324h-221z"/>
            <glyph glyph-name="eightsuperior" unicode="&#x2078;" horiz-adv-x="373"
                   d="M84 524q0 43 30 70.5t72 34.5q-28 6 -46 23.5t-18 46.5q0 53 46.5 80t108.5 27q52 0 87 -19.5t35 -61.5t-24 -63t-69 -33q29 -6 48.5 -26t19.5 -51q0 -41 -27.5 -68.5t-62 -37t-72.5 -9.5q-51 0 -89.5 20.5t-38.5 66.5zM367 721q0 57 -95 57q-106 0 -118 -67
q-6 -34 23.5 -50.5t71.5 -16.5q45 0 81.5 19t36.5 58zM342 539q7 39 -24.5 57t-75.5 18q-42 0 -80 -19t-45 -57q-5 -28 15 -45.5t41.5 -22t43.5 -4.5t45 4.5t49 22t31 46.5z"/>
            <glyph glyph-name="ninesuperior" unicode="&#x2079;" horiz-adv-x="362"
                   d="M327 555l15 83q-21 -23 -53.5 -36t-63.5 -13q-49 0 -82.5 23t-33.5 69q0 58 47 92t106 34q58 0 93.5 -27t25.5 -82l-25 -143q-10 -57 -54.5 -85t-100.5 -28q-55 0 -86.5 22t-28.5 65h29q-2 -27 20.5 -43t70.5 -16q47 0 80.5 22t40.5 63zM257 778q-44 0 -80.5 -22.5
t-36.5 -70.5q0 -37 26.5 -52.5t63.5 -15.5t74.5 22t44.5 59q7 43 -21.5 61.5t-70.5 18.5z"/>
            <glyph glyph-name="zeroinferior" unicode="&#x2080;" horiz-adv-x="369"
                   d="M3 64l9 51q13 75 58.5 116t108.5 41q64 0 96 -40t18 -117l-9 -51q-13 -74 -60.5 -114.5t-105.5 -40.5q-59 0 -93.5 40.5t-21.5 114.5zM43 116l-10 -52q-11 -59 16 -92.5t74 -33.5q46 0 83 33t48 93l10 52q11 62 -14.5 94.5t-76.5 32.5q-49 0 -83.5 -32.5t-46.5 -94.5z
"/>
            <glyph glyph-name="oneinferior" unicode="&#x2081;" horiz-adv-x="216"
                   d="M-32 -88l5 28h63l51 287l-59 -12l5 28l90 20l-57 -323h65l-5 -28h-158z"/>
            <glyph glyph-name="twoinferior" unicode="&#x2082;" horiz-adv-x="348"
                   d="M237 -88h-261l13 76q9 51 50 79.5t105 28.5q58 0 84 17t26 67q0 62 -87 62q-99 0 -111 -76h-30q18 105 146 105q46 0 79.5 -20.5t33.5 -66.5q0 -115 -145 -115q-106 0 -120 -80l-8 -48h230z"/>
            <glyph glyph-name="threeinferior" unicode="&#x2083;" horiz-adv-x="344"
                   d="M54 174l-29 1q22 94 138 94q49 0 80 -20.5t31 -59.5q0 -33 -22.5 -58.5t-54.5 -33.5q24 -9 39.5 -28.5t15.5 -46.5q0 -60 -44 -87t-108 -27q-56 0 -88.5 24.5t-24.5 78.5h30q-4 -23 4 -39t25 -23.5t31 -10t28 -2.5q116 0 116 84q0 29 -26 45.5t-61 16.5h-55l5 29h53
q37 0 72 19t35 54q0 26 -23 41t-63 15q-89 0 -104 -66z"/>
            <glyph glyph-name="fourinferior" unicode="&#x2084;" horiz-adv-x="334"
                   d="M210 265h37l-42 -235h49l-5 -29h-49l-15 -89h-30l15 89h-193l-2 21zM16 30h159l35 197z"/>
            <glyph glyph-name="fiveinferior" unicode="&#x2085;" horiz-adv-x="349"
                   d="M51 128h90q64 0 94 -24.5t30 -65.5q0 -53 -40.5 -91.5t-121.5 -38.5q-24 0 -44.5 4.5t-38.5 14.5t-26 30.5t-3 48.5h29q-8 -38 18.5 -54t70.5 -16q69 0 97 30t28 66q0 28 -22.5 48t-74.5 20h-119l29 165h241l-6 -29h-212z"/>
            <glyph glyph-name="sixinferior" unicode="&#x2086;" horiz-adv-x="362"
                   d="M57 160l-15 -83q21 23 53.5 36t63.5 13q49 0 82.5 -24t33.5 -69q0 -62 -46 -93.5t-107 -31.5q-58 0 -93.5 27t-25.5 82l25 143q10 57 53 85t99 28q55 0 87 -22t29 -65h-29q2 27 -21 43t-71 16q-47 0 -79 -22t-39 -63zM127 -63q43 0 80.5 23t37.5 69q0 36 -27.5 52.5
t-63.5 16.5q-37 0 -74.5 -22t-44.5 -59q-7 -41 22 -60.5t70 -19.5z"/>
            <glyph glyph-name="seveninferior" unicode="&#x2087;" horiz-adv-x="303"
                   d="M15 236l5 29h255l1 -18l-249 -335h-34l243 324h-221z"/>
            <glyph glyph-name="eightinferior" unicode="&#x2088;" horiz-adv-x="372"
                   d="M-10 -6q0 43 29.5 70.5t71.5 34.5q-27 6 -45 23.5t-18 46.5q0 53 48.5 80t106.5 27q48 0 84.5 -20t36.5 -62q0 -41 -24 -62t-69 -33q30 -6 49.5 -26t19.5 -51q0 -41 -27.5 -68.5t-62 -37t-72.5 -9.5q-51 0 -89.5 20.5t-38.5 66.5zM273 190q0 32 -29.5 44.5t-65.5 12.5
q-39 0 -75 -14.5t-43 -51.5q-7 -34 22.5 -50.5t71.5 -16.5q46 0 82.5 19t36.5 57zM248 9q7 39 -24.5 57t-75.5 18q-42 0 -80.5 -19t-45.5 -57q-4 -22 6.5 -37.5t29 -22t34.5 -9.5t31 -3t31.5 3t37.5 10t36 22.5t20 37.5z"/>
            <glyph glyph-name="nineinferior" unicode="&#x2089;" horiz-adv-x="362"
                   d="M233 23l15 83q-21 -23 -53.5 -36t-63.5 -13q-49 0 -82.5 23t-33.5 69q0 58 47 92t106 34q58 0 93.5 -27t25.5 -82l-25 -143q-10 -57 -53 -85t-99 -28q-55 0 -87 22t-29 65h29q-2 -27 21 -43t71 -16q47 0 79 22t39 63zM163 246q-44 0 -80.5 -22.5t-36.5 -70.5
q0 -37 26.5 -52.5t63.5 -15.5t74.5 22t44.5 59q7 43 -21.5 61.5t-70.5 18.5z"/>
            <glyph glyph-name="Euro" unicode="&#x20ac;" horiz-adv-x="622"
                   d="M60 394l5 28h72q42 127 145 206.5t257 79.5q45 0 82 -10l-10 -28q-37 9 -77 9q-138 0 -231.5 -71t-132.5 -186h291l-13 -28h-287q-1 -5 -10 -47q-4 -24 -6 -47h279l-11 -28h-269q2 -112 69 -180t202 -68q53 0 111 20l2 -29q-62 -21 -119 -21q-149 0 -223.5 77t-74.5 201
h-73l5 28h69q0 2 2 19t4 27q8 37 11 48h-69z"/>
            <glyph glyph-name="afii61289" unicode="&#x2113;" horiz-adv-x="370"
                   d="M156 242l-17 -95q-10 -56 14 -86.5t103 -10.5l-7 -38q-91 -29 -137.5 5t-29.5 128l11 65l-53 -24l-7 39q32 13 67 30l54 307q13 75 51.5 114t98.5 39q41 0 61.5 -25t20 -63t-9.5 -83q-21 -90 -73 -158.5t-147 -143.5zM208 562q-5 -29 -22.5 -130t-23.5 -135
q144 109 170 252q22 123 -35 123q-71 0 -89 -110z"/>
            <glyph glyph-name="uni2117" unicode="&#x2117;" horiz-adv-x="845"
                   d="M497 712q145 0 224 -85t79 -217q0 -113 -52 -210t-152 -157.5t-228 -60.5q-145 0 -224.5 86t-79.5 218q0 174 121 300t312 126zM100 289q0 -121 71 -198.5t202 -77.5q173 0 283 115.5t110 277.5q0 122 -72 199.5t-203 77.5q-173 0 -282 -115.5t-109 -278.5zM336 292h131
q86 0 128 69q35 56 15 112q-25 59 -96 61h-169l-68 -385h34zM342 323l31 177h135q59 0 72 -49q13 -45 -21 -87q-32 -41 -86 -41h-131z"/>
            <glyph glyph-name="trademark" unicode="&#x2122;" horiz-adv-x="778"
                   d="M197 423l44 251h-117l5 26h265l-5 -26h-120l-44 -251h-28zM414 423l49 277h22l96 -163l159 163h20l-49 -277h-30l39 219l-142 -144h-6l-90 149l-39 -224h-29z"/>
            <glyph glyph-name="estimated" unicode="&#x212e;" horiz-adv-x="655"
                   d="M499 133l32 -29q-54 -61 -113.5 -86t-133.5 -25q-99 0 -160.5 62.5t-61.5 174.5q0 165 95.5 260.5t230.5 95.5q58 0 103 -16.5t78.5 -54t39 -99.5t-15.5 -153h-402l-30 -170q48 -53 132 -53q125 0 206 93zM486 307l33 191q-47 44 -139 44q-90 0 -152 -47l-33 -188h291z
"/>
            <glyph glyph-name="uni2153" unicode="&#x2153;" horiz-adv-x="714"
                   d="M106 -2h-33l492 704h33zM60 359l5 27h64l49 282l-58 -12l5 27l90 20l-56 -317h68l-5 -27h-162zM442 264l-30 1q12 49 49.5 71.5t89.5 22.5q49 0 80 -20.5t31 -59.5q0 -33 -23 -58.5t-54 -33.5q24 -9 39.5 -28.5t15.5 -46.5q0 -60 -44.5 -87t-108.5 -27q-56 0 -88 24
t-24 79h30q-4 -23 4 -39t24.5 -23.5t30.5 -10t28 -2.5q116 0 116 84q0 29 -26 45.5t-60 16.5h-55l5 29h53q37 0 72 19t35 54q0 26 -23 41t-63 15q-89 0 -104 -66z"/>
            <glyph glyph-name="uni2154" unicode="&#x2154;" horiz-adv-x="797"
                   d="M189 -2h-33l492 704h33zM525 264l-30 1q11 49 49 71.5t90 22.5q48 0 79.5 -20.5t31.5 -59.5q0 -33 -23 -58.5t-55 -33.5q24 -9 39.5 -28.5t15.5 -46.5q0 -60 -44 -87t-108 -27q-56 0 -88.5 24.5t-24.5 78.5h30q-4 -23 4 -39t25 -23.5t31 -10t28 -2.5q116 0 116 84
q0 29 -26 45.5t-60 16.5h-55l5 29h53q37 0 71.5 19t34.5 54q0 26 -23 41t-63 15q-90 0 -103 -66zM314 350h-252l13 76q9 51 50 79.5t105 28.5q58 0 84 17t26 67q0 62 -87 62q-99 0 -111 -76h-30q18 105 146 105q46 0 79.5 -20.5t33.5 -66.5q0 -115 -145 -115
q-106 0 -120 -80l-8 -48h221z"/>
            <glyph glyph-name="oneeighth" unicode="&#x215b;" horiz-adv-x="751"
                   d="M106 -2h-33l492 704h33zM60 359l5 27h64l49 282l-58 -12l5 27l90 20l-56 -317h68l-5 -27h-162zM386 84q0 43 29.5 70.5t71.5 34.5q-28 6 -46 23.5t-18 46.5q0 53 48.5 80t106.5 27q48 0 85 -20t37 -62q0 -41 -24 -62t-69 -33q30 -6 49.5 -26t19.5 -51q0 -41 -27.5 -68.5
t-62.5 -37t-73 -9.5q-51 0 -89 20.5t-38 66.5zM668 280q0 32 -29 44.5t-66 12.5q-39 0 -75 -14.5t-43 -51.5q-6 -34 23.5 -50.5t71.5 -16.5q45 0 81.5 19t36.5 57zM644 109q0 33 -31 49t-70 16q-46 0 -86 -21.5t-40 -63.5q0 -35 33 -49t68 -14q17 0 35 3t40.5 11t36.5 26
t14 43z"/>
            <glyph glyph-name="threeeighths" unicode="&#x215c;" horiz-adv-x="816"
                   d="M172 -2h-33l492 704h33zM451 84q0 43 29.5 70.5t71.5 34.5q-27 6 -45 23.5t-18 46.5q0 53 48.5 80t106.5 27q48 0 84.5 -20t36.5 -62q0 -41 -24 -62t-69 -33q30 -6 49.5 -26t19.5 -51q0 -41 -27.5 -68.5t-62 -37t-72.5 -9.5q-51 0 -89.5 20.5t-38.5 66.5zM734 280
q0 32 -29 44.5t-66 12.5q-39 0 -75 -14.5t-43 -51.5q-7 -34 22.5 -50.5t71.5 -16.5q46 0 82.5 19t36.5 57zM710 109q0 33 -31 49t-70 16q-46 0 -86 -21.5t-40 -63.5q0 -35 33 -49t68 -14q17 0 35 3t40.5 11t36.5 26t14 43zM137 609l-29 1q22 94 138 94q49 0 80 -20.5
t31 -59.5q0 -33 -22.5 -58.5t-54.5 -33.5q24 -9 39.5 -28.5t15.5 -46.5q0 -60 -44 -87t-108 -27q-56 0 -88.5 24.5t-24.5 78.5h30q-4 -23 4 -39t25 -23.5t31 -10t28 -2.5q116 0 116 84q0 29 -26 45.5t-61 16.5h-55l5 29h53q37 0 72 19t35 54q0 26 -23 41t-63 15
q-89 0 -104 -66z"/>
            <glyph glyph-name="fiveeighths" unicode="&#x215d;" horiz-adv-x="821"
                   d="M177 -2h-33l492 704h33zM456 84q0 43 29.5 70.5t71.5 34.5q-64 14 -64 70q0 53 49 80t107 27q48 0 84.5 -20t36.5 -62q0 -41 -24 -62t-69 -33q30 -6 49.5 -26t19.5 -51q0 -41 -27.5 -68.5t-62.5 -37t-73 -9.5q-51 0 -89 20.5t-38 66.5zM739 280q0 57 -96 57
q-39 0 -74.5 -14.5t-42.5 -51.5q-7 -34 22.5 -50.5t71.5 -16.5q46 0 82.5 19t36.5 57zM715 109q0 33 -31 49t-70 16q-46 0 -86.5 -21.5t-40.5 -63.5q0 -35 33.5 -49t68.5 -14q17 0 35 3t40.5 11t36.5 26t14 43zM132 564h90q64 0 94 -24.5t30 -65.5q0 -53 -40.5 -91.5
t-121.5 -38.5q-24 0 -44.5 4.5t-38.5 14.5t-26 30.5t-3 48.5h29q-8 -38 18.5 -54t70.5 -16q69 0 97 30t28 66q0 28 -22.5 48t-74.5 20h-119l29 165h241l-6 -29h-212z"/>
            <glyph glyph-name="seveneighths" unicode="&#x215e;" horiz-adv-x="748"
                   d="M91 -2h-33l492 704h33zM382 84q0 43 30 70.5t72 34.5q-28 6 -46 23.5t-18 46.5q0 53 48.5 80t106.5 27q48 0 85 -20t37 -62q0 -41 -24 -62t-69 -33q29 -6 48.5 -26t19.5 -51q0 -41 -27.5 -68.5t-62 -37t-72.5 -9.5q-51 0 -89.5 20.5t-38.5 66.5zM665 280q0 32 -29.5 44.5
t-65.5 12.5q-39 0 -75 -14.5t-43 -51.5q-7 -34 22.5 -50.5t71.5 -16.5q46 0 82.5 19t36.5 57zM641 109q0 33 -31 49t-70 16q-46 0 -86 -21.5t-40 -63.5q0 -35 33 -49t68 -14q17 0 35 3t40.5 11t36.5 26t14 43zM104 672l5 29h255l1 -18l-249 -335h-34l243 324h-221z"/>
            <glyph glyph-name="arrowleft" unicode="&#x2190;" horiz-adv-x="660"
                   d="M240 146l-169 205l241 205l17 -20l-195 -168h463l-6 -34h-462l136 -167z"/>
            <glyph glyph-name="arrowup" unicode="&#x2191;" horiz-adv-x="481"
                   d="M55 406l241 205l169 -205l-23 -20l-139 165l-82 -463h-34l81 462l-196 -165z"/>
            <glyph glyph-name="arrowright" unicode="&#x2192;" horiz-adv-x="660"
                   d="M440 556l169 -205l-241 -205l-17 20l195 168h-463l6 35h461l-135 166z"/>
            <glyph glyph-name="arrowdown" unicode="&#x2193;" horiz-adv-x="482"
                   d="M444 283l-241 -205l-169 205l24 20l138 -165l82 463h35l-81 -461l195 164z"/>
            <glyph glyph-name="uni2196" unicode="&#x2196;" horiz-adv-x="495"
                   d="M60 247l51 291h289l-5 -32h-234l269 -327l-29 -25l-270 327l-41 -234h-30z"/>
            <glyph glyph-name="uni2197" unicode="&#x2197;" horiz-adv-x="500"
                   d="M472 538l-51 -291h-32l41 234l-383 -327l-20 25l384 328h-235l5 31h291z"/>
            <glyph glyph-name="uni2198" unicode="&#x2198;" horiz-adv-x="501"
                   d="M439 456l-51 -291h-290l5 32h235l-269 327l29 24l270 -327l41 235h30z"/>
            <glyph glyph-name="uni2199" unicode="&#x2199;" horiz-adv-x="499"
                   d="M64 165l51 291h31l-41 -235l384 327l20 -24l-385 -328h236l-5 -31h-291z"/>
            <glyph glyph-name="partialdiff" unicode="&#x2202;" horiz-adv-x="615"
                   d="M554 255q-18 -117 -101 -190t-201 -73q-105 0 -159.5 60t-54.5 148q0 113 83 203t220 91q71 0 123 -33.5t70 -88.5q-19 108 -84.5 185.5t-164.5 112.5l17 29q142 -62 209.5 -173.5t42.5 -270.5zM256 23q119 0 192.5 77.5t73.5 175.5q0 79 -47.5 133.5t-139.5 54.5
q-119 0 -192 -79.5t-73 -180.5q0 -79 47 -130t139 -51z"/>
            <glyph glyph-name="increment" unicode="&#x2206;" horiz-adv-x="727"
                   d="M454 700l191 -700h-666l437 700h38zM431 669l-397 -640h566z"/>
            <glyph glyph-name="product" unicode="&#x220f;" horiz-adv-x="680"
                   d="M494 -187h-34l151 856h-410l-151 -856h-33l156 887h476z"/>
            <glyph glyph-name="summation" unicode="&#x2211;" horiz-adv-x="572"
                   d="M335 368l-295 -337h430l-5 -31h-481l2 10l313 359l-173 323l1 8h455l-5 -30h-403z"/>
            <glyph glyph-name="minus" unicode="&#x2212;" horiz-adv-x="533"
                   d="M87 338l5 30h371l-5 -30h-371z"/>
            <glyph glyph-name="uni2215" unicode="&#x2215;" horiz-adv-x="406"
                   d="M-16 -2h-32l491 704h33z"/>
            <glyph glyph-name="uni2219" unicode="&#x2219;" horiz-adv-x="208"
                   d="M78 308q0 15 10 23.5t23 8.5q9 0 16 -6t7 -16q0 -33 -34 -33q-22 0 -22 23z"/>
            <glyph glyph-name="radical" unicode="&#x221a;" horiz-adv-x="607"
                   d="M659 701l-366 -701h-33l-109 382l-109 -45l-5 27l136 56l106 -388l355 677z"/>
            <glyph glyph-name="infinity" unicode="&#x221e;" horiz-adv-x="814"
                   d="M201 173q-78 0 -112.5 45t-22.5 108t64 110t129 47q28 0 51.5 -10.5t44.5 -33.5t32.5 -39.5t30.5 -47.5q38 39 64 62t65 44.5t73 21.5q67 0 102.5 -35.5t35.5 -89.5q0 -70 -52.5 -126t-139.5 -56q-27 0 -50 10.5t-44 33.5t-32 38.5t-31 47.5q-59 -60 -108.5 -95
t-99.5 -35zM205 202q12 0 24 2.5t21.5 6t22.5 12t21 14t24 19t23.5 20.5t27 25t28.5 26q-42 68 -71.5 96t-73.5 28q-71 0 -113.5 -44t-42.5 -105q0 -94 109 -100zM570 202q73 2 116 45.5t43 102.5q0 45 -29.5 72.5t-84.5 27.5q-37 0 -68 -18t-70.5 -58t-46.5 -46
q12 -15 34 -47t32 -43.5t30 -23.5t44 -12z"/>
            <glyph glyph-name="integral" unicode="&#x222b;" horiz-adv-x="438"
                   d="M142 -1l95 539q14 76 52 119.5t116 43.5q48 0 84 -33l-23 -22q-38 25 -72 25q-104 0 -127 -133l-95 -539q-7 -39 -15 -64t-24 -50.5t-44 -37.5t-68 -12q-46 0 -83 35l22 20q25 -26 71 -26q49 0 74 32t37 103z"/>
            <glyph glyph-name="approxequal" unicode="&#x2248;" horiz-adv-x="609"
                   d="M528 423l24 -12q-68 -110 -193 -50l-74 46q-48 28 -96 12.5t-77 -63.5l-21 10q29 58 89 79.5t125 -14.5l72 -44q41 -26 80 -19.5t71 55.5zM498 255l24 -12q-68 -110 -193 -50l-74 46q-48 28 -96 12.5t-77 -63.5l-21 10q29 58 89 79.5t125 -14.5l71 -44q23 -12 42 -17
t38.5 -2.5t37.5 16.5t34 39z"/>
            <glyph glyph-name="notequal" unicode="&#x2260;" horiz-adv-x="551"
                   d="M61 205l5 27h122l141 170h-233l5 28h249l54 64l20 -14l-40 -50h108l-5 -28h-125l-140 -170h235l-5 -27h-254l-57 -70l-23 14l46 56h-103z"/>
            <glyph glyph-name="lessequal" unicode="&#x2264;" horiz-adv-x="452"
                   d="M112 412l270 156l11 -20l-251 -144l199 -155l-18 -22l-214 169zM54 106l5 26h280l-5 -26h-280z"/>
            <glyph glyph-name="greaterequal" unicode="&#x2265;" horiz-adv-x="450"
                   d="M169 568l216 -156l-3 -16l-273 -166l-11 19l253 154l-199 146zM340 132l-5 -26h-280l5 26h280z"/>
            <glyph glyph-name="lozenge" unicode="&#x25ca;" horiz-adv-x="547"
                   d="M516 352l-284 -345h-25l-156 345l278 344h25zM335 662l-247 -310l136 -312l257 311z"/>
            <glyph glyph-name="fi" unicode="&#xfb01;" horiz-adv-x="518"
                   d="M407 683l-17 -27q-25 15 -61 15q-100 0 -123 -133l-8 -47h154l-5 -27h-154l-82 -464h-30l82 464h-103l5 27h103l8 47q13 76 49.5 119.5t114.5 43.5q38 0 67 -18zM460 659q0 14 9.5 22t21.5 8q9 0 16 -6t7 -16q0 -14 -10 -22t-22 -8q-22 0 -22 22zM441 494h30l-87 -494
h-30z"/>
            <glyph glyph-name="fl" unicode="&#xfb02;" horiz-adv-x="525"
                   d="M408 681l-18 -24q-25 15 -56 15q-105 0 -128 -134l-8 -47h156l-5 -27h-156l-82 -464h-30l82 464h-103l5 27h103l8 47q27 163 168 163q36 0 64 -20zM473 700h31l-124 -700h-31z"/>
            <glyph glyph-name="a.alt" horiz-adv-x="550"
                   d="M121 437v28q91 34 165 34q99 0 152 -45t36 -140l-55 -314h-30l21 118q-78 -107 -190 -123q-48 -9 -94.5 0t-81 42t-33.5 86q1 46 21.5 82t54.5 56.5t73.5 31t82.5 10.5q104 0 192 -47l10 58q15 85 -29 120.5t-135 35.5q-77 0 -160 -33zM430 228q-34 19 -87 33t-106 14
q-72 0 -128 -31.5t-67 -95.5q-11 -73 47 -106t134 -18q73 11 130.5 68.5t76.5 135.5z"/>
            <glyph glyph-name="aacute.alt" horiz-adv-x="550"
                   d="M338 588h-29l1 4l88 108h39zM121 437v28q91 34 165 34q99 0 152 -45t36 -140l-55 -314h-30l21 118q-78 -107 -190 -123q-48 -9 -94.5 0t-81 42t-33.5 86q1 46 21.5 82t54.5 56.5t73.5 31t82.5 10.5q104 0 192 -47l10 58q15 85 -29 120.5t-135 35.5q-77 0 -160 -33z
M430 228q-34 19 -87 33t-106 14q-72 0 -128 -31.5t-67 -95.5q-11 -73 47 -106t134 -18q73 11 130.5 68.5t76.5 135.5z"/>
            <glyph glyph-name="abreve.alt" horiz-adv-x="550"
                   d="M433 703h28q-11 -53 -46.5 -83.5t-90.5 -30.5q-58 0 -82 30t-15 84h25q-17 -89 75 -89q89 1 106 89zM121 437v28q91 34 165 34q99 0 152 -45t36 -140l-55 -314h-30l21 118q-78 -107 -190 -123q-48 -9 -94.5 0t-81 42t-33.5 86q1 46 21.5 82t54.5 56.5t73.5 31t82.5 10.5
q104 0 192 -47l10 58q15 85 -29 120.5t-135 35.5q-77 0 -160 -33zM430 228q-34 19 -87 33t-106 14q-72 0 -128 -31.5t-67 -95.5q-11 -73 47 -106t134 -18q73 11 130.5 68.5t76.5 135.5z"/>
            <glyph glyph-name="acircumflex.alt" horiz-adv-x="550"
                   d="M167 577l1 3l152 121h24l110 -121l-1 -3h-30l-94 103l-125 -103h-37zM121 437v28q91 34 165 34q99 0 152 -45t36 -140l-55 -314h-30l21 118q-78 -107 -190 -123q-48 -9 -94.5 0t-81 42t-33.5 86q1 46 21.5 82t54.5 56.5t73.5 31t82.5 10.5q104 0 192 -47l10 58
q15 85 -29 120.5t-135 35.5q-77 0 -160 -33zM430 228q-34 19 -87 33t-106 14q-72 0 -128 -31.5t-67 -95.5q-11 -73 47 -106t134 -18q73 11 130.5 68.5t76.5 135.5z"/>
            <glyph glyph-name="adieresis.alt" horiz-adv-x="550"
                   d="M220 661q0 16 10 24.5t23 8.5q24 0 24 -23q0 -15 -10.5 -24t-23.5 -9q-10 0 -16.5 6t-6.5 17zM410 661q0 16 10 24.5t23 8.5q24 0 24 -23q0 -15 -10.5 -24t-23.5 -9q-10 0 -16.5 6t-6.5 17zM121 437v28q91 34 165 34q99 0 152 -45t36 -140l-55 -314h-30l21 118
q-78 -107 -190 -123q-48 -9 -94.5 0t-81 42t-33.5 86q1 46 21.5 82t54.5 56.5t73.5 31t82.5 10.5q104 0 192 -47l10 58q15 85 -29 120.5t-135 35.5q-77 0 -160 -33zM430 228q-34 19 -87 33t-106 14q-72 0 -128 -31.5t-67 -95.5q-11 -73 47 -106t134 -18q73 11 130.5 68.5
t76.5 135.5z"/>
            <glyph glyph-name="agrave.alt" horiz-adv-x="550"
                   d="M320 587l-54 112h36l45 -108l-1 -4h-26zM121 437v28q91 34 165 34q99 0 152 -45t36 -140l-55 -314h-30l21 118q-78 -107 -190 -123q-48 -9 -94.5 0t-81 42t-33.5 86q1 46 21.5 82t54.5 56.5t73.5 31t82.5 10.5q104 0 192 -47l10 58q15 85 -29 120.5t-135 35.5
q-77 0 -160 -33zM430 228q-34 19 -87 33t-106 14q-72 0 -128 -31.5t-67 -95.5q-11 -73 47 -106t134 -18q73 11 130.5 68.5t76.5 135.5z"/>
            <glyph glyph-name="amacron.alt" horiz-adv-x="550"
                   d="M204 650l5 26h256l-5 -26h-256zM121 437v28q91 34 165 34q99 0 152 -45t36 -140l-55 -314h-30l21 118q-78 -107 -190 -123q-48 -9 -94.5 0t-81 42t-33.5 86q1 46 21.5 82t54.5 56.5t73.5 31t82.5 10.5q104 0 192 -47l10 58q15 85 -29 120.5t-135 35.5q-77 0 -160 -33z
M430 228q-34 19 -87 33t-106 14q-72 0 -128 -31.5t-67 -95.5q-11 -73 47 -106t134 -18q73 11 130.5 68.5t76.5 135.5z"/>
            <glyph glyph-name="aogonek.alt" horiz-adv-x="549"
                   d="M430 228q-87 48 -193 48q-71 0 -126.5 -32.5t-66.5 -96.5q-11 -73 46.5 -105t132.5 -18q73 11 130.5 68.5t76.5 135.5zM121 437v27q93 35 165 35q99 0 152 -45t36 -140l-60 -340q-62 6 -93 -20.5t-29 -56.5q2 -19 18 -30.5t45 -10.5q57 4 92 49l15 -21q-39 -49 -107 -54
q-45 -1 -67 16t-24 43q-3 41 33.5 74t91.5 34l22 121q-78 -107 -191 -123q-48 -9 -94 0t-80.5 42t-34.5 86q0 61 36 103t86.5 59.5t109.5 17.5q103 0 191 -47l10 58q8 45 -1.5 76.5t-33.5 48.5t-55 24t-73 7q-77 0 -160 -33z"/>
            <glyph glyph-name="aring.alt" horiz-adv-x="550"
                   d="M390 644q0 22 -15.5 34t-37.5 12q-28 0 -49 -16.5t-21 -46.5q0 -21 15 -32.5t37 -11.5q27 0 49 16.5t22 44.5zM416 647q0 -41 -30.5 -64t-70.5 -23q-31 0 -52.5 17t-21.5 47q0 41 31 64.5t69 23.5q31 0 53 -17t22 -48zM121 437v28q91 34 165 34q99 0 152 -45t36 -140
l-55 -314h-30l21 118q-78 -107 -190 -123q-48 -9 -94.5 0t-81 42t-33.5 86q1 46 21.5 82t54.5 56.5t73.5 31t82.5 10.5q104 0 192 -47l10 58q15 85 -29 120.5t-135 35.5q-77 0 -160 -33zM430 228q-34 19 -87 33t-106 14q-72 0 -128 -31.5t-67 -95.5q-11 -73 47 -106t134 -18
q73 11 130.5 68.5t76.5 135.5z"/>
            <glyph glyph-name="aringacute.alt" horiz-adv-x="550"
                   d="M345 741l1 3l82 87h33v-1l-89 -89h-27zM398 628q4 27 -11 41.5t-40 14.5q-24 0 -45 -15t-25 -41q-5 -26 10.5 -41t39.5 -15q25 0 45.5 14.5t25.5 41.5zM252 628q6 37 35 57t63 20q37 0 58.5 -20.5t15.5 -56.5t-35 -56.5t-66 -20.5q-34 0 -55.5 20t-15.5 57zM121 437v28
q91 34 165 34q99 0 152 -45t36 -140l-55 -314h-30l21 118q-78 -107 -190 -123q-48 -9 -94.5 0t-81 42t-33.5 86q1 46 21.5 82t54.5 56.5t73.5 31t82.5 10.5q104 0 192 -47l10 58q15 85 -29 120.5t-135 35.5q-77 0 -160 -33zM430 228q-34 19 -87 33t-106 14q-72 0 -128 -31.5
t-67 -95.5q-11 -73 47 -106t134 -18q73 11 130.5 68.5t76.5 135.5z"/>
            <glyph glyph-name="atilde.alt" horiz-adv-x="550"
                   d="M121 437v28q91 34 165 34q99 0 152 -45t36 -140l-55 -314h-30l21 118q-78 -107 -190 -123q-48 -9 -94.5 0t-81 42t-33.5 86q1 46 21.5 82t54.5 56.5t73.5 31t82.5 10.5q104 0 192 -47l10 58q15 85 -29 120.5t-135 35.5q-77 0 -160 -33zM430 228q-34 19 -87 33t-106 14
q-72 0 -128 -31.5t-67 -95.5q-11 -73 47 -106t134 -18q73 11 130.5 68.5t76.5 135.5zM323 681l42 -20q25 -14 41.5 -10t27.5 35l22 -6q-24 -83 -103 -44l-41 19q-57 29 -74 -26l-20 6q7 37 37.5 50.5t67.5 -4.5z"/>
            <glyph glyph-name="g.alt" horiz-adv-x="607"
                   d="M-3 -104h29q-13 -76 39.5 -119t139.5 -43q62 0 116.5 16t93 55t38.5 95q0 35 -18 60.5t-48 39t-62 20t-67 6.5q-98 0 -156.5 52t-58.5 144q0 67 27.5 122.5t72 89.5t96 52t103.5 18q91 0 148 -47l61 60l20 -16l-62 -64q14 -18 21.5 -31t15.5 -39.5t9 -58.5
q3 -83 -57 -163t-154 -103q60 -11 99 -45.5t40 -92.5q2 -95 -81.5 -146.5t-200.5 -51.5q-97 0 -158 50.5t-46 139.5zM73 225q0 -84 50 -126.5t136 -42.5q112 0 189.5 73t77.5 173q0 87 -51.5 130t-132.5 43q-36 0 -73 -9t-72.5 -29t-62.5 -48.5t-44 -71t-17 -92.5z"/>
            <glyph glyph-name="gbreve.alt" horiz-adv-x="607"
                   d="M474 705h29q-24 -116 -141 -116q-116 0 -99 116h26q-17 -90 78 -90q90 0 107 90zM-3 -104h29q-13 -76 39.5 -119t139.5 -43q62 0 116.5 16t93 55t38.5 95q0 35 -18 60.5t-48 39t-62 20t-67 6.5q-98 0 -156.5 52t-58.5 144q0 67 27.5 122.5t72 89.5t96 52t103.5 18
q91 0 148 -47l61 60l20 -16l-62 -64q14 -18 21.5 -31t15.5 -39.5t9 -58.5q3 -83 -57 -163t-154 -103q60 -11 99 -45.5t40 -92.5q2 -95 -81.5 -146.5t-200.5 -51.5q-97 0 -158 50.5t-46 139.5zM73 225q0 -84 50 -126.5t136 -42.5q112 0 189.5 73t77.5 173q0 87 -51.5 130
t-132.5 43q-36 0 -73 -9t-72.5 -29t-62.5 -48.5t-44 -71t-17 -92.5z"/>
            <glyph glyph-name="gcircumflex.alt" horiz-adv-x="607"
                   d="M403 708l110 -121l-1 -4h-31l-89 101l-136 -101h-32l1 4l157 121h21zM-3 -104h29q-13 -76 39.5 -119t139.5 -43q62 0 116.5 16t93 55t38.5 95q0 35 -18 60.5t-48 39t-62 20t-67 6.5q-98 0 -156.5 52t-58.5 144q0 67 27.5 122.5t72 89.5t96 52t103.5 18q91 0 148 -47
l61 60l20 -16l-62 -64q14 -18 21.5 -31t15.5 -39.5t9 -58.5q3 -83 -57 -163t-154 -103q60 -11 99 -45.5t40 -92.5q2 -95 -81.5 -146.5t-200.5 -51.5q-97 0 -158 50.5t-46 139.5zM73 225q0 -84 50 -126.5t136 -42.5q112 0 189.5 73t77.5 173q0 87 -51.5 130t-132.5 43
q-36 0 -73 -9t-72.5 -29t-62.5 -48.5t-44 -71t-17 -92.5z"/>
            <glyph glyph-name="gcommaaccent.alt" horiz-adv-x="607"
                   d="M428 713l-39 -74q13 -5 13 -19q0 -26 -25 -32q-22 -5 -29 12q-2 5 -2 10q0 11 13 31l43 72h26zM-3 -104h29q-13 -76 39.5 -119t139.5 -43q62 0 116.5 16t93 55t38.5 95q0 35 -18 60.5t-48 39t-62 20t-67 6.5q-98 0 -156.5 52t-58.5 144q0 67 27.5 122.5t72 89.5t96 52
t103.5 18q91 0 148 -47l61 60l20 -16l-62 -64q14 -18 21.5 -31t15.5 -39.5t9 -58.5q3 -83 -57 -163t-154 -103q60 -11 99 -45.5t40 -92.5q2 -95 -81.5 -146.5t-200.5 -51.5q-97 0 -158 50.5t-46 139.5zM73 225q0 -84 50 -126.5t136 -42.5q112 0 189.5 73t77.5 173
q0 87 -51.5 130t-132.5 43q-36 0 -73 -9t-72.5 -29t-62.5 -48.5t-44 -71t-17 -92.5z"/>
            <glyph glyph-name="gdotaccent.alt" horiz-adv-x="607"
                   d="M361 666q0 15 10 23.5t23 8.5q23 0 23 -23q0 -15 -10 -23.5t-22 -8.5q-24 0 -24 23zM-3 -104h29q-13 -76 39.5 -119t139.5 -43q62 0 116.5 16t93 55t38.5 95q0 35 -18 60.5t-48 39t-62 20t-67 6.5q-98 0 -156.5 52t-58.5 144q0 67 27.5 122.5t72 89.5t96 52t103.5 18
q91 0 148 -47l61 60l20 -16l-62 -64q14 -18 21.5 -31t15.5 -39.5t9 -58.5q3 -83 -57 -163t-154 -103q60 -11 99 -45.5t40 -92.5q2 -95 -81.5 -146.5t-200.5 -51.5q-97 0 -158 50.5t-46 139.5zM73 225q0 -84 50 -126.5t136 -42.5q112 0 189.5 73t77.5 173q0 87 -51.5 130
t-132.5 43q-36 0 -73 -9t-72.5 -29t-62.5 -48.5t-44 -71t-17 -92.5z"/>
            <glyph glyph-name="y.alt" horiz-adv-x="527"
                   d="M488 494h34l-445 -736h-33l149 248l-114 488h31l104 -458z"/>
            <glyph glyph-name="yacute.alt" horiz-adv-x="527"
                   d="M296 583l1 4l90 116h35l-100 -120h-26zM488 494h34l-445 -736h-33l149 248l-114 488h31l104 -458z"/>
            <glyph glyph-name="ycircumflex.alt" horiz-adv-x="527"
                   d="M359 708l109 -121l-1 -4h-30l-94 106l-132 -106h-32l1 4l151 121h28zM488 494h34l-445 -736h-33l149 248l-114 488h31l104 -458z"/>
            <glyph glyph-name="ydieresis.alt" horiz-adv-x="527"
                   d="M208 668q0 15 10 23.5t23 8.5q24 0 24 -23q0 -15 -10.5 -23.5t-23.5 -8.5q-10 0 -16.5 6t-6.5 17zM401 668q0 15 10 23.5t23 8.5q10 0 17 -6t7 -17q0 -15 -10.5 -23.5t-23.5 -8.5q-10 0 -16.5 6t-6.5 17zM488 494h34l-445 -736h-33l149 248l-114 488h31l104 -458z"/>
            <glyph glyph-name="ygrave.alt" horiz-adv-x="527"
                   d="M345 587l-1 -4h-25l-56 120h34zM488 494h34l-445 -736h-33l149 248l-114 488h31l104 -458z"/>
            <glyph glyph-name="zero.denom" horiz-adv-x="368"
                   d="M18 151l10 51q15 76 59 116.5t107 40.5q64 0 96 -40t18 -117l-9 -51q-17 -96 -96 -137q-65 -34 -125 -8q-64 29 -64 109q0 17 4 36zM58 203l-10 -52q-15 -80 40 -113q46 -27 102 0q66 32 80 113l9 52q11 63 -14.5 95t-76.5 32q-49 0 -83.5 -32.5t-46.5 -94.5z"/>
            <glyph glyph-name="one.denom" horiz-adv-x="217"
                   d="M-16 0l5 27h63l51 288l-59 -12l5 28l90 20l-57 -324h65l-5 -27h-158z"/>
            <glyph glyph-name="two.denom" horiz-adv-x="348"
                   d="M253 0h-261l13 76q9 55 48 79.5t107 28.5q31 2 47.5 4.5t33.5 10.5t24 25t7 44q0 64 -89 64q-99 0 -111 -78h-30q18 105 146 105q45 0 78.5 -21t33.5 -67q0 -114 -144 -114q-109 0 -123 -80l-9 -50h234z"/>
            <glyph glyph-name="three.denom" horiz-adv-x="345"
                   d="M70 263l-29 1q22 94 138 94q49 0 80 -21t31 -60q0 -33 -22.5 -58.5t-54.5 -33.5q24 -9 39.5 -28.5t15.5 -45.5q0 -59 -44 -86.5t-108 -27.5q-56 0 -88.5 24.5t-24.5 78.5h29q-3 -25 5 -41.5t25.5 -23t30.5 -8.5t28 -2q116 0 116 84q0 29 -26.5 46.5t-60.5 17.5h-55l5 27
h53q37 0 72 19t35 54q0 57 -86 57q-89 0 -104 -67z"/>
            <glyph glyph-name="four.denom" horiz-adv-x="330"
                   d="M233 353h29l-42 -235h44l-5 -29h-44l-15 -89h-30l15 89h-193l-2 21zM31 118h159l34 188z"/>
            <glyph glyph-name="five.denom" horiz-adv-x="348"
                   d="M65 215h91q124 0 124 -89q0 -53 -40.5 -91.5t-121.5 -38.5q-24 0 -44.5 4.5t-38.5 14.5t-26 30.5t-3 48.5h29q-8 -38 18.5 -54t70.5 -16q69 0 97 30t28 66q0 68 -97 68h-119l29 165h241l-6 -29h-212z"/>
            <glyph glyph-name="six.denom" horiz-adv-x="362"
                   d="M73 247l-15 -83q21 23 53.5 36t63.5 13q49 0 82.5 -24t33.5 -69q0 -62 -46 -93.5t-107 -31.5q-58 0 -93.5 27t-25.5 82l25 143q10 57 53 85t99 28q55 0 86.5 -22t28.5 -65h-28q2 29 -20.5 44t-71.5 15q-47 0 -79 -22t-39 -63zM140 24q43 0 81.5 23t39.5 69
q1 36 -24.5 52.5t-64.5 16.5t-76 -22t-45 -59q-9 -41 19.5 -60.5t69.5 -19.5z"/>
            <glyph glyph-name="seven.denom" horiz-adv-x="303"
                   d="M31 324l5 29h255l1 -18l-249 -335h-34l243 324h-221z"/>
            <glyph glyph-name="eight.denom" horiz-adv-x="372"
                   d="M5 79q0 43 29.5 70.5t71.5 34.5q-27 6 -45 23.5t-18 46.5q0 53 48.5 80t106.5 27q48 0 84.5 -20t36.5 -62q0 -41 -24 -62t-69 -33q30 -6 49.5 -26t19.5 -51q0 -41 -27.5 -68.5t-62 -37t-72.5 -9.5q-52 0 -90 20.5t-38 66.5zM288 275q0 32 -29 44.5t-66 12.5
q-39 0 -75 -14.5t-43 -51.5q-7 -34 22.5 -50.5t71.5 -16.5q46 0 82.5 19t36.5 57zM263 94q7 39 -24.5 57t-75.5 18q-42 0 -80.5 -19t-45.5 -57q-4 -22 6.5 -37.5t29 -22t34.5 -9.5t31 -3t31.5 3t37.5 10t36 22.5t20 37.5z"/>
            <glyph glyph-name="nine.denom" horiz-adv-x="361"
                   d="M247 107l15 83q-21 -23 -53.5 -36t-63.5 -13q-49 0 -82.5 23t-33.5 69q0 58 47 92t106 34q58 0 93.5 -27t25.5 -82l-25 -143q-10 -57 -53 -85t-99 -28q-55 0 -87 22t-29 65h29q-2 -27 21 -43t71 -16q47 0 79 22t39 63zM181 330q-44 0 -81.5 -22.5t-40.5 -70.5
q-2 -37 24 -52.5t62 -15.5q37 0 75.5 22t48.5 59q9 43 -18.5 61.5t-69.5 18.5z"/>
            <glyph glyph-name="zero.num" horiz-adv-x="369"
                   d="M81 503l9 51q13 75 58.5 116t108.5 41q64 0 96 -40t18 -117l-9 -51q-17 -96 -95 -137q-66 -34 -125 -8q-65 29 -64 111q0 16 3 34zM121 555l-9 -52q-14 -81 41 -113q47 -28 103 1q63 32 77 112l9 52q11 63 -14.5 95t-76.5 32q-49 0 -84 -32.5t-46 -94.5z"/>
            <glyph glyph-name="one.num" horiz-adv-x="219"
                   d="M48 359l5 29h63l51 286l-59 -12l5 28l90 20l-57 -322h65l-5 -29h-158z"/>
            <glyph glyph-name="two.num" horiz-adv-x="349"
                   d="M315 350h-261l13 76q9 51 50 79.5t105 28.5q58 0 84 17t26 67q0 62 -87 62q-99 0 -111 -76h-30q18 105 146 105q46 0 79.5 -20.5t33.5 -66.5q0 -115 -145 -115q-106 0 -120 -80l-8 -48h230z"/>
            <glyph glyph-name="three.num" horiz-adv-x="344"
                   d="M131 613l-29 1q22 94 138 94q49 0 80 -20.5t31 -59.5q0 -33 -22.5 -58.5t-54.5 -33.5q24 -9 39.5 -28.5t15.5 -46.5q0 -57 -45 -85.5t-107 -28.5q-56 0 -88.5 24.5t-24.5 78.5h30q-4 -23 4 -39t25 -23.5t31 -10t28 -2.5q24 0 47.5 6t46 26t22.5 52q0 29 -26 45.5
t-61 16.5h-55l5 29h53q37 0 72 19t35 54q0 26 -23 41t-63 15q-89 0 -104 -66z"/>
            <glyph glyph-name="four.num" horiz-adv-x="333"
                   d="M287 701h37l-42 -235h48l-5 -29h-48l-15 -89h-30l15 89h-193l-2 21zM95 466h157l35 199z"/>
            <glyph glyph-name="five.num" horiz-adv-x="348"
                   d="M127 563h90q64 0 94 -24.5t30 -65.5q0 -53 -40.5 -91.5t-121.5 -38.5q-24 0 -44.5 4.5t-38.5 14.5t-26 30.5t-3 48.5h29q-8 -38 18.5 -54t70.5 -16q69 0 97 30t28 66q0 28 -22.5 48t-74.5 20h-119l29 165h241l-6 -29h-212z"/>
            <glyph glyph-name="six.num" horiz-adv-x="362"
                   d="M134 594l-15 -83q21 23 53.5 36t63.5 13q49 0 82.5 -24t33.5 -69q0 -62 -46 -93.5t-107 -31.5q-58 0 -93.5 27t-25.5 82l25 143q10 57 53 85t99 28q55 0 87 -22t29 -65h-29q2 27 -21 43t-71 16q-47 0 -79 -22t-39 -63zM204 371q43 0 80.5 23t37.5 69q0 36 -27.5 52.5
t-63.5 16.5q-37 0 -74.5 -22t-44.5 -59q-7 -41 22 -60.5t70 -19.5z"/>
            <glyph glyph-name="seven.num" horiz-adv-x="303"
                   d="M92 672l5 29h255l1 -18l-249 -335h-34l243 324h-221z"/>
            <glyph glyph-name="eight.num" horiz-adv-x="372"
                   d="M66 426q0 43 30 70.5t72 34.5q-28 6 -46 23.5t-18 46.5q0 53 48.5 80t106.5 27q48 0 85 -20t37 -62q0 -41 -24 -62t-69 -33q29 -6 48.5 -26t19.5 -51q0 -41 -27.5 -68.5t-62 -37t-72.5 -9.5q-51 0 -89.5 20.5t-38.5 66.5zM349 622q0 32 -29.5 44.5t-65.5 12.5
q-39 0 -75 -14.5t-43 -51.5q-7 -34 22.5 -50.5t71.5 -16.5q46 0 82.5 19t36.5 57zM324 441q7 39 -24.5 57t-75.5 18q-42 0 -80.5 -19t-44.5 -57q-5 -28 15 -45.5t41.5 -22t43.5 -4.5t45 4.5t49 22t31 46.5z"/>
            <glyph glyph-name="nine.num" horiz-adv-x="360"
                   d="M309 456l15 83q-21 -23 -53.5 -36t-63.5 -13q-49 0 -82.5 23t-33.5 69q0 58 47 92t106 34q58 0 93.5 -27t25.5 -82l-25 -143q-10 -57 -54.5 -85t-100.5 -28q-55 0 -86.5 22t-28.5 65h29q-2 -27 20.5 -43t70.5 -16q47 0 80.5 22t40.5 63zM239 679q-44 0 -80.5 -22.5
t-36.5 -70.5q0 -37 26.5 -52.5t63.5 -15.5t74.5 22t44.5 59q7 43 -21.5 61.5t-70.5 18.5z"/>
            <glyph glyph-name="zero.tf" horiz-adv-x="680"
                   d="M66 260l33 181q24 128 109 196t199 68q115 0 181.5 -69t42.5 -195l-33 -181q-24 -128 -109.5 -197t-201.5 -69q-50 0 -94 17t-77 49t-47.5 84t-2.5 116zM132 441l-33 -181q-20 -112 36.5 -173.5t156.5 -61.5q98 0 175.5 62t97.5 173l33 181q22 114 -34.5 173.5
t-162.5 59.5q-92 0 -169.5 -60t-99.5 -173z"/>
            <glyph glyph-name="one.tf" horiz-adv-x="680"
                   d="M90 0l4 29h191l115 636l-191 -31l5 29l225 37l-119 -671h208l-4 -29h-434z"/>
            <glyph glyph-name="two.tf" horiz-adv-x="680"
                   d="M81 152l-22 -120h513l-6 -32h-544l26 152q32 191 303 191q45 0 88.5 9.5t85.5 30.5t68.5 60t27.5 91q1 42 -17.5 72t-51 45.5t-67.5 22t-76 6.5q-40 0 -79 -7.5t-78.5 -25t-67.5 -51t-36 -78.5h-31q8 52 38 90.5t73.5 59.5t89.5 31t96 10q51 0 95 -11t79.5 -33.5
t52.5 -63t8 -93.5q-10 -64 -55.5 -109.5t-108.5 -66t-137 -20.5q-49 0 -87.5 -6.5t-78.5 -22t-66 -49t-35 -82.5z"/>
            <glyph glyph-name="three.tf" horiz-adv-x="680"
                   d="M153 535h-29q34 175 285 175q112 0 168.5 -43.5t58.5 -113.5q1 -73 -55.5 -128t-137.5 -68q58 -10 101 -52.5t43 -100.5q0 -89 -78.5 -151t-224.5 -62q-38 0 -72.5 4.5t-68.5 17.5t-57 32.5t-34 52t-4 73.5h28q-6 -37 5 -65t32 -43.5t53 -25t61 -12.5t62 -3q131 0 199 51
t68 127q0 57 -54 102t-151 45h-117l5 27h115q120 0 186.5 53.5t66.5 121.5q0 59 -50.5 95.5t-150.5 36.5q-224 0 -253 -146z"/>
            <glyph glyph-name="four.tf" horiz-adv-x="680"
                   d="M439 0l29 165h-437l2 32l531 503h30l-89 -506h93l-5 -29h-93l-29 -165h-32zM71 194h402l82 458z"/>
            <glyph glyph-name="five.tf" horiz-adv-x="680"
                   d="M154 423h218q124 0 185 -63.5t35 -172.5q-47 -192 -301 -192q-34 0 -66.5 5t-65.5 19t-55.5 35t-33.5 56t-4 79h29q-7 -39 3 -68.5t30 -47.5t50 -29.5t59 -15.5t61 -4q117 0 182 46t83 124q23 92 -28 146.5t-168 54.5h-246l53 305h445l-5 -27h-414z"/>
            <glyph glyph-name="six.tf" horiz-adv-x="680"
                   d="M165 525l-53 -228q49 61 122 90.5t147 29.5q62 0 113 -18t84 -60.5t31 -102.5q-3 -65 -32.5 -114t-77 -76t-100.5 -40t-110 -13q-52 0 -96 11.5t-78.5 35.5t-49 67t-2.5 100l68 317q19 89 106 137t194 48t171 -44.5t56 -124.5h-33q7 67 -48.5 103t-152.5 36
q-92 -1 -167 -41.5t-92 -112.5zM296 25q47 0 91.5 10t86.5 32t69.5 64.5t30.5 99.5q4 80 -56.5 117t-143.5 37q-55 0 -111 -18t-104.5 -60.5t-61.5 -100.5q-11 -50 1 -86.5t43 -56.5t69.5 -29t85.5 -9z"/>
            <glyph glyph-name="seven.tf" horiz-adv-x="680"
                   d="M121 0l506 672h-469l5 28h509v-16l-513 -684h-38z"/>
            <glyph glyph-name="eight.tf" horiz-adv-x="680"
                   d="M33 181q13 74 78.5 122t143.5 63q-63 14 -107 49.5t-44 90.5q0 59 30.5 102t79.5 65.5t99 32.5t101 10q33 0 66 -5t66 -16.5t57.5 -29.5t40 -46.5t15.5 -63.5q-1 -80 -61.5 -127t-152.5 -66q75 -15 124 -66.5t36 -118.5q-10 -53 -43.5 -92t-81 -60t-96.5 -30.5t-99 -9.5
q-39 0 -76 6t-72.5 21t-60.5 36.5t-37.5 56t-5.5 76.5zM355 378q40 0 84 9t87.5 28t71.5 54t28 80q1 39 -20.5 67.5t-57.5 43t-70.5 20.5t-68.5 6q-39 0 -80.5 -7.5t-88 -25t-75.5 -54.5t-29 -88q0 -37 22.5 -64.5t58 -41.5t70.5 -20.5t68 -6.5zM349 351q-40 0 -85.5 -10.5
t-91.5 -31.5t-77 -61.5t-32 -93.5q-1 -41 22 -70t61 -43t74 -20t71 -6q33 0 73 7.5t85.5 24.5t79.5 51t43 80q8 45 -13.5 81t-60 54.5t-77 28t-72.5 9.5z"/>
            <glyph glyph-name="nine.tf" horiz-adv-x="680"
                   d="M542 177l44 219q-50 -56 -121.5 -83.5t-143.5 -27.5q-98 0 -166 46t-67 135q1 65 29 114t75 76t100 40t110 13q41 0 77 -7t69 -23t54.5 -40t30.5 -61t0 -83l-59 -317q-16 -92 -101.5 -138.5t-194.5 -46.5q-107 0 -171.5 44.5t-57.5 124.5h34q-7 -66 47.5 -102.5
t152.5 -36.5q94 1 170 40t89 114zM395 678q-47 0 -92 -10t-87.5 -32.5t-68.5 -65t-27 -99.5q0 -41 17 -72t47 -49t65.5 -26.5t77.5 -8.5q55 0 111.5 18.5t104.5 61.5t59 101q19 93 -40.5 137.5t-166.5 44.5z"/>
            <glyph glyph-name="bullet.case" horiz-adv-x="369"
                   d="M178 262q-34 0 -55 20t-21 54q0 45 31.5 74t75.5 29q33 0 53.5 -20t20.5 -54q0 -45 -31 -74t-74 -29z"/>
            <glyph glyph-name="periodcentered.case" horiz-adv-x="166"
                   d="M90 346q0 -32 -3 -32q-1 0 -1 7q0 27 4 25z"/>
            <glyph glyph-name="braceleft.case" horiz-adv-x="301"
                   d="M54 375q80 0 103 126l29 160q27 153 160 119l-5 -25q-50 13 -81 -6.5t-44 -87.5l-29 -160q-4 -26 -8.5 -42.5t-14 -39t-27 -37t-42.5 -20.5q18 -5 29.5 -16.5t16.5 -24t5 -32t-1.5 -32t-5.5 -33.5l-27 -152q-12 -68 13 -86t80 -5l-5 -25q-69 -17 -100.5 9.5t-17.5 106.5
l26 152q23 125 -58 125z"/>
            <glyph glyph-name="braceright.case" horiz-adv-x="300"
                   d="M275 375l-5 -26q-80 0 -103 -125l-26 -152q-26 -151 -160 -116l4 25q51 -13 82 5t43 86l27 152q4 26 8.5 42.5t14.5 38.5t27.5 36.5t42.5 20.5q-18 5 -29.5 17t-16.5 24t-5 32t1.5 32.5t5.5 33.5l28 160q12 68 -13 87.5t-79 6.5l4 25q70 17 101 -10.5t17 -108.5l-28 -160
q-21 -126 59 -126z"/>
            <glyph glyph-name="bracketleft.case" horiz-adv-x="306"
                   d="M33 -93l155 880h166l-5 -29h-134l-145 -822h134l-5 -29h-166z"/>
            <glyph glyph-name="bracketright.case" horiz-adv-x="305"
                   d="M290 787l-155 -880h-166l6 30h135l144 823h-135l5 27h166z"/>
            <glyph glyph-name="parenleft.case" horiz-adv-x="321"
                   d="M362 810l14 -22q-98 -53 -169.5 -150t-99.5 -216q-18 -85 -15.5 -167.5t37 -162.5t97.5 -136l-19 -24q-98 90 -130.5 217t-1.5 263q58 264 287 398z"/>
            <glyph glyph-name="parenright.case" horiz-adv-x="321"
                   d="M117 775l16 21q73 -53 111.5 -147t38.5 -202q0 -170 -80.5 -309t-225.5 -223l-11 24q285 179 285 510q0 105 -34 190.5t-100 135.5z"/>
            <glyph glyph-name="emdash.case" horiz-adv-x="709"
                   d="M84 331l5 30h549l-5 -30h-549z"/>
            <glyph glyph-name="endash.case" horiz-adv-x="588"
                   d="M79 329l5 30h439l-5 -30h-439z"/>
            <glyph glyph-name="hyphen.case" horiz-adv-x="506"
                   d="M85 326l5 30h345l-5 -30h-345z"/>
            <glyph glyph-name="guillemotleft.case" horiz-adv-x="372"
                   d="M60 322l176 218h33l-172 -218l95 -220h-33zM248 102l-99 220l176 218h32l-172 -218l95 -220h-32z"/>
            <glyph glyph-name="guillemotright.case" horiz-adv-x="377"
                   d="M238 332l-177 -219h-33l174 219l-97 219h33zM228 551l100 -219l-177 -219h-33l174 219l-97 219h33z"/>
            <glyph glyph-name="guilsinglleft.case" horiz-adv-x="315"
                   d="M177 129l-99 220l176 218h33l-172 -218l95 -220h-33z"/>
            <glyph glyph-name="guilsinglright.case" horiz-adv-x="314"
                   d="M254 341l-176 -220h-33l173 220l-96 219h33z"/>
            <glyph glyph-name="florin.tf" horiz-adv-x="680"
                   d="M291 0q-13 -75 -42.5 -114.5t-100.5 -42.5q-49 0 -85 33l21 21q12 -11 19 -15.5t19.5 -7.5t30.5 -3q46 2 70.5 30.5t37.5 98.5l82 465h-143l5 28h143l9 53q13 74 50 115t113 41q56 0 88 -32l-22 -21q-29 25 -72 25q-53 0 -84 -28.5t-43 -99.5l-9 -53h168l-5 -28h-168z
"/>
            <glyph glyph-name="cent.tf" horiz-adv-x="680"
                   d="M293 -84l13 71q-89 5 -144.5 58.5t-55.5 147.5q0 131 83 209.5t205 85.5l10 57h29l-10 -57q97 -8 148 -69l-23 -19q-52 61 -145 61q-111 0 -189 -70.5t-78 -195.5q0 -88 52.5 -133.5t136.5 -45.5q92 0 170 63l17 -19q-81 -67 -176 -72l-13 -72h-30z"/>
            <glyph glyph-name="dollar.tf" horiz-adv-x="680"
                   d="M644 604l-25 -19q-51 91 -217 91q-34 0 -69.5 -6t-79 -22t-72.5 -51.5t-32 -85.5q-2 -27 10 -48t25.5 -33t46.5 -24t48.5 -15.5t57.5 -12.5q15 -3 23 -5q126 -28 171 -53q83 -46 66 -143q-10 -54 -41.5 -92.5t-76.5 -57.5t-87.5 -27t-88.5 -9l-15 -88h-28l15 89
q-80 3 -147.5 39t-92.5 103l31 16q22 -63 89.5 -95.5t142.5 -32.5q39 0 76 6t79.5 21.5t73 49t38.5 81.5q7 40 -4.5 67.5t-46.5 45.5t-61 25.5t-80 19.5l-27 6q-5 1 -27 5.5t-30.5 6.5t-30 8t-32 10t-28.5 12t-27 15.5t-21.5 19t-18.5 23.5t-10 28t-4 34q1 54 30 95t74 62.5
t90 32t90 11.5l15 84h29l-15 -85q153 -8 214 -102z"/>
            <glyph glyph-name="Euro.tf" horiz-adv-x="680"
                   d="M89 394l5 28h72q42 127 145 206.5t257 79.5q45 0 82 -10l-10 -28q-37 9 -77 9q-138 0 -231.5 -71t-132.5 -186h291l-13 -28h-287q-2 -5 -10 -47q-4 -24 -6 -47h279l-11 -28h-269q2 -112 69 -180t202 -68q53 0 111 20l2 -29q-61 -21 -119 -21q-149 0 -223.5 77t-74.5 201
h-73l5 28h69q0 2 2 19t4 27q7 37 11 48h-69z"/>
            <glyph glyph-name="sterling.tf" horiz-adv-x="680"
                   d="M29 0l4 25q66 54 100 110.5t40 95.5t2 88h-90l5 26h82q-6 56 -6 105q0 68 23.5 119t63.5 80t87 42.5t101 13.5q45 0 81 -8t65.5 -26t42 -53t3.5 -84h-26q8 43 -3.5 73t-39 44.5t-58 20.5t-70.5 6q-105 0 -173 -54.5t-68 -165.5q0 -30 5 -113h273l-5 -26h-266
q18 -175 -134 -292h484l-5 -27h-518z"/>
            <glyph glyph-name="yen.tf" horiz-adv-x="680"
                   d="M164 278l4 26h140l-188 396h37l182 -393l323 393h39l-327 -396h143l-4 -26h-160l-12 -67h160l-5 -27h-160l-32 -184h-32l32 184h-157l5 27h157l12 67h-157z"/>
            <glyph glyph-name="bar.case" horiz-adv-x="236"
                   d="M185 761h31l-146 -826h-31z"/>
            <glyph glyph-name="commaaccentcomb.alt" horiz-adv-x="440"
                   d="M394 799l-48 -79q10 -6 10 -51l3 50q1 29 1 65l-3 16v-1h37z"/>
            <glyph glyph-name="asterisk.alt" horiz-adv-x="282"
                   d="M259 606l36 -60q6 -12 -6.5 -18.5t-18.5 2.5l-33 63l-58 -63q-7 -7 -14.5 -5.5t-8.5 8t5 13.5l59 60l-66 22q-7 3 -7 9.5t6 11.5t12 2l67 -21l12 65q3 13 16 11q10 -1 8 -11l-12 -65l76 19q12 4 12 -9q1 -12 -9 -14z"/>
            </font>
</defs>
</svg>
